<svg width="114" height="114" viewBox="0 0 114 114" fill="none" xmlns="http://www.w3.org/2000/svg">
<circle cx="57" cy="57" r="56.5" fill="#1C4188" stroke="#1C4188"/>
<path d="M86.4072 71.8281C63.9147 80.5819 42.4578 74.5975 34.6312 71.8281C33.7478 71.4979 33.003 70.8768 32.5194 70.0672C32.0358 69.2575 31.8421 68.3073 31.9701 67.3729L33.7642 49.8052L60.2543 59.6306L87.1899 49.6607L89.0081 67.4331C89.1237 68.3504 88.9309 69.2802 88.46 70.0758C87.9891 70.8715 87.267 71.488 86.4072 71.8281Z" fill="white" stroke="#1C4188" stroke-width="0.4" stroke-miterlimit="10"/>
<path d="M60.2448 28.5L102.316 44.081L87.1803 49.692L60.2448 59.662L33.7547 49.8365L31.2743 48.9214C29.901 50.9719 28.7353 53.1541 27.7944 55.4356C26.9165 58.2679 26.5097 61.2251 26.5903 64.1893C27.494 64.7024 28.2447 65.447 28.7653 66.3464C29.2858 67.2458 29.5575 68.2675 29.5524 69.3067C29.5558 70.2826 29.3126 71.2436 28.8453 72.1003C28.3779 72.9571 27.7017 73.6819 26.8793 74.2074L28.8902 87.4524C28.9119 87.6935 28.8832 87.9364 28.806 88.1659C28.7288 88.3953 28.6047 88.6061 28.4417 88.785C28.2786 88.9639 28.0802 89.1069 27.8589 89.205C27.6376 89.3031 27.3983 89.3542 27.1563 89.3549H20.2207C19.9782 89.354 19.7384 89.303 19.5166 89.205C19.2947 89.1071 19.0956 88.9642 18.9316 88.7855C18.7676 88.6069 18.6423 88.3962 18.5637 88.1667C18.4851 87.9373 18.4548 87.6941 18.4748 87.4524L20.4856 74.2074C19.664 73.681 18.9884 72.9561 18.5212 72.0995C18.0539 71.243 17.8102 70.2824 17.8125 69.3067C17.8165 68.1517 18.1614 67.0237 18.804 66.0641C19.4467 65.1044 20.3584 64.3558 21.4248 63.9124C21.4536 60.529 21.9686 57.1673 22.954 53.9305C23.9093 51.5587 25.0612 49.271 26.3977 47.0912L18.258 44.081L60.3291 28.5" fill="white"/>
<path d="M60.2448 28.5L102.316 44.081L87.1803 49.692L60.2448 59.662L33.7547 49.8365L31.2743 48.9214C29.901 50.9719 28.7353 53.1541 27.7944 55.4356C26.9165 58.2679 26.5097 61.2251 26.5903 64.1893C27.494 64.7024 28.2447 65.447 28.7653 66.3464C29.2858 67.2458 29.5575 68.2675 29.5524 69.3067C29.5558 70.2826 29.3126 71.2436 28.8453 72.1003C28.3779 72.9571 27.7017 73.6819 26.8793 74.2074L28.8902 87.4524C28.9119 87.6935 28.8832 87.9364 28.806 88.1659C28.7288 88.3953 28.6047 88.6061 28.4417 88.785C28.2786 88.9639 28.0802 89.1069 27.8589 89.205C27.6376 89.3031 27.3983 89.3542 27.1563 89.3549H20.2207C19.9782 89.354 19.7384 89.303 19.5166 89.205C19.2947 89.1071 19.0956 88.9642 18.9316 88.7855C18.7676 88.6069 18.6423 88.3962 18.5637 88.1667C18.4851 87.9373 18.4548 87.6941 18.4748 87.4524L20.4856 74.2074C19.664 73.681 18.9884 72.9561 18.5212 72.0995C18.0539 71.243 17.8102 70.2824 17.8125 69.3067C17.8165 68.1517 18.1614 67.0237 18.804 66.0641C19.4467 65.1044 20.3584 64.3558 21.4248 63.9124C21.4536 60.529 21.9686 57.1673 22.954 53.9305C23.9093 51.5587 25.0612 49.271 26.3977 47.0912L18.258 44.081L60.3291 28.5" stroke="#1C4188" stroke-width="0.4" stroke-miterlimit="10"/>
</svg>
