<svg width="114" height="114" viewBox="0 0 114 114" fill="none" xmlns="http://www.w3.org/2000/svg">
<circle cx="57" cy="57" r="57" fill="#FFF8F8"/>
<path d="M51.8038 19.6875C54.1132 15.6875 59.8867 15.6875 62.1962 19.6875L91.9117 71.1562C94.2211 75.1562 91.3343 80.1562 86.7155 80.1562H27.2845C22.6657 80.1562 19.7789 75.1562 22.0883 71.1562L51.8038 19.6875Z" fill="#EC2A41"/>
<path d="M54.0146 59.1302L52.4685 36.3373H61.7452L60.1991 59.1302H54.0146ZM57.1068 71.6488C55.7103 71.6488 54.5632 71.2 53.6655 70.3022C52.7677 69.4045 52.3188 68.3405 52.3188 67.1102C52.3188 65.8467 52.7677 64.7993 53.6655 63.9681C54.5632 63.1036 55.7103 62.6713 57.1068 62.6713C58.5366 62.6713 59.6837 63.1036 60.5482 63.9681C61.446 64.7993 61.8948 65.8467 61.8948 67.1102C61.8948 68.3405 61.446 69.4045 60.5482 70.3022C59.6837 71.2 58.5366 71.6488 57.1068 71.6488Z" fill="white"/>
</svg>
