<svg width="114" height="114" viewBox="0 0 114 114" fill="none" xmlns="http://www.w3.org/2000/svg">
<circle cx="57" cy="57" r="56.5" fill="#C64D4D" stroke="#C64D4D"/>
<path d="M48.8241 50.5638C44.6076 50.5638 41.7146 50.6316 39.5586 50.7266C37.4026 50.8215 33.5 51.3774 33.5 53.6962C33.5 54.8216 34.4961 55.8929 37.7574 57.181C41.6389 58.7237 45.6866 59.8157 49.8202 60.4354C56.8068 61.6015 58.3351 62.1304 60.4502 63.4321C61.4376 64.0614 62.254 64.9224 62.8275 65.9392C63.401 66.9561 63.7141 68.0975 63.7389 69.2628C63.7389 71.7714 62.3742 73.0189 60.4502 74.5918C59.2494 75.5682 58.1305 76.0292 53.5319 78.9852C51.574 80.0921 49.8391 81.5495 48.4148 83.2837C47.4757 84.3421 46.8477 85.6369 46.5998 87.0262C46.2177 89.928 48.7695 92.8298 51.6896 95.5825" stroke="white" stroke-miterlimit="10" stroke-linecap="round"/>
<path d="M65.1646 50.5638C69.3811 50.5638 72.2741 50.6316 74.4438 50.7266C76.6134 50.8215 80.4887 51.3774 80.4887 53.6962C80.4887 54.8216 79.4926 55.8929 76.2313 57.181C72.3498 58.7237 68.3021 59.8157 64.1685 60.4354C57.1819 61.6015 55.6536 62.1304 53.5521 63.4321C52.5605 64.058 51.7401 64.918 51.164 65.9353C50.5878 66.9526 50.2739 68.0957 50.25 69.2628C50.25 71.7714 51.6144 73.0189 53.5385 74.5918C54.7393 75.5682 55.8583 76.0292 60.4569 78.9852C62.4149 80.0921 64.1498 81.5495 65.5741 83.2837C66.5132 84.3421 67.141 85.6369 67.3889 87.0262C67.771 89.928 65.2192 92.8298 62.2991 95.5825" stroke="white" stroke-miterlimit="10" stroke-linecap="round"/>
<path d="M62.4173 26.8017C62.4126 27.8656 62.0932 28.9046 61.4988 29.7894C60.9043 30.6743 60.0611 31.3659 59.0741 31.7781V93.4753H54.9804V31.8324C54.0586 31.4646 53.2552 30.8538 52.6569 30.0658C52.0586 29.2778 51.6879 28.3425 51.585 27.3607C51.4821 26.3788 51.6509 25.3877 52.0731 24.4941C52.4952 23.6005 53.1546 22.8383 53.9805 22.2897C54.8064 21.7411 55.7673 21.4269 56.7596 21.3809C57.7519 21.3349 58.738 21.5589 59.6117 22.0287C60.4853 22.4985 61.2135 23.1963 61.7175 24.047C62.2215 24.8976 62.4823 25.8688 62.4719 26.8559L62.4173 26.8017Z" fill="white" stroke="#C64D4D" stroke-width="0.4" stroke-miterlimit="10"/>
<path d="M52.7327 33.5472C53.4646 33.5854 54.1979 33.5854 54.9297 33.5472V45.8324C54.1244 45.8673 53.323 45.7043 52.5963 45.3578C51.9828 45.0206 51.3944 44.64 50.836 44.2188C49.6811 44.9281 48.3698 45.347 47.0153 45.4391C45.9447 45.2446 44.9432 44.7774 44.1087 44.0831C43.1255 44.7242 42.0029 45.1238 40.8337 45.2493C39.6215 45.0718 38.4854 44.5544 37.5588 43.7577C36.1717 44.4369 34.6428 44.7808 33.0966 44.7611C31.7433 44.4367 30.4859 43.8004 29.426 42.9035C28.0001 43.1585 26.5398 43.1585 25.1139 42.9035C22.9306 42.3339 21.375 39.5135 21.375 39.5135C23.0628 39.5768 24.7529 39.4861 26.424 39.2423C28.3886 38.8836 30.2678 38.1615 31.9641 37.1134C34.5452 35.8142 36.9181 34.1417 39.0053 32.1505C39.8377 31.3505 40.7928 30.5098 42.6895 28.8012C44.2042 27.4453 44.559 26.9571 45.7325 26.9842C46.906 27.0113 47.9567 28.3402 48.2706 28.8419C48.5844 29.3436 48.639 29.6148 49.1576 30.442C49.5162 31.1695 50.0171 31.8187 50.6309 32.3519C51.2447 32.885 51.9592 33.2913 52.7327 33.5472Z" fill="white" stroke="#C64D4D" stroke-width="0.4" stroke-miterlimit="10"/>
<path d="M92.624 39.5848C92.624 39.5848 91.0684 42.4053 88.8714 42.9748C87.4501 43.2299 85.9945 43.2299 84.5732 42.9748C83.5096 43.874 82.2471 44.5105 80.8888 44.8325C79.3469 44.853 77.8221 44.5091 76.4403 43.8291C75.5136 44.6257 74.3775 45.1431 73.1653 45.3206C71.9953 45.1983 70.8723 44.7983 69.8904 44.1545C69.0559 44.8487 68.0545 45.3159 66.9839 45.5105C65.6289 45.4211 64.3167 45.002 63.163 44.2901C62.5986 44.7096 62.0059 45.0902 61.389 45.4291C60.6668 45.7745 59.8701 45.9376 59.0693 45.9037V33.6185C59.7966 33.6565 60.5253 33.6565 61.2526 33.6185C62.023 33.3728 62.7368 32.9778 63.3528 32.4565C63.9687 31.9352 64.4747 31.2978 64.8414 30.5811C65.3463 29.754 65.4009 29.4963 65.7148 28.981C66.0286 28.4658 67.0793 27.1505 68.2528 27.1234C69.4264 27.0962 69.7811 27.5979 71.2958 28.9404C73.2062 30.6489 74.1615 31.4896 74.9802 32.2896C77.0674 34.2808 79.4403 35.9533 82.0215 37.2525C83.7215 38.303 85.6056 39.0253 87.5752 39.3814C89.2483 39.6026 90.9383 39.6707 92.624 39.5848Z" fill="white" stroke="#C64D4D" stroke-width="0.4" stroke-miterlimit="10"/>
</svg>
