<svg width="32" height="32" viewBox="0 0 32 32" fill="none" xmlns="http://www.w3.org/2000/svg">
<circle cx="16" cy="16" r="15.5" fill="#2E60E1" stroke="#2E60E1"/>
<path d="M16 26C21.5228 26 26 21.5228 26 16C26 10.4772 21.5228 6 16 6C10.4772 6 6 10.4772 6 16C6 21.5228 10.4772 26 16 26Z" fill="white" stroke="#2E60E1" stroke-width="0.4" stroke-miterlimit="10"/>
<path d="M16.0156 16.2129C17.014 14.9799 17.9086 13.6664 18.6903 12.2859C19.5638 10.7179 20.3108 9.08274 20.9244 7.396" fill="white"/>
<path d="M16.0156 16.2129C17.014 14.9799 17.9086 13.6664 18.6903 12.2859C19.5638 10.7179 20.3108 9.08274 20.9244 7.396" stroke="#2E60E1" stroke-width="0.4" stroke-miterlimit="10"/>
<path d="M16.1814 16.09C14.6299 15.7529 13.0535 15.5424 11.4678 15.4606C9.67638 15.3805 7.88143 15.4415 6.09961 15.6431" fill="white"/>
<path d="M16.1814 16.09C14.6299 15.7529 13.0535 15.5424 11.4678 15.4606C9.67638 15.3805 7.88143 15.4415 6.09961 15.6431" stroke="#2E60E1" stroke-width="0.4" stroke-miterlimit="10"/>
<path d="M16.0527 16.0391C16.7509 17.4639 17.5632 18.8298 18.4819 20.1234C19.5355 21.5741 20.699 22.9417 21.9621 24.214" fill="white"/>
<path d="M16.0527 16.0391C16.7509 17.4639 17.5632 18.8298 18.4819 20.1234C19.5355 21.5741 20.699 22.9417 21.9621 24.214" stroke="#2E60E1" stroke-width="0.4" stroke-miterlimit="10"/>
<path d="M18.574 20.2506C19.6768 18.8175 20.6557 17.2932 21.5003 15.6942C22.4465 13.8589 23.2482 11.9526 23.8981 9.99255" fill="white"/>
<path d="M18.574 20.2506C19.6768 18.8175 20.6557 17.2932 21.5003 15.6942C22.4465 13.8589 23.2482 11.9526 23.8981 9.99255" stroke="#2E60E1" stroke-width="0.4" stroke-miterlimit="10"/>
<path d="M18.9754 11.7972C17.1474 11.4123 15.291 11.1766 13.4248 11.0923C11.3106 11.0154 9.19365 11.1059 7.09375 11.3629" fill="white"/>
<path d="M18.9754 11.7972C17.1474 11.4123 15.291 11.1766 13.4248 11.0923C11.3106 11.0154 9.19365 11.1059 7.09375 11.3629" stroke="#2E60E1" stroke-width="0.4" stroke-miterlimit="10"/>
<path d="M10.8438 15.3462C11.6682 17.1503 12.6341 18.8864 13.7324 20.5381C14.9743 22.3767 16.3589 24.1148 17.8733 25.7364" fill="white"/>
<path d="M10.8438 15.3462C11.6682 17.1503 12.6341 18.8864 13.7324 20.5381C14.9743 22.3767 16.3589 24.1148 17.8733 25.7364" stroke="#2E60E1" stroke-width="0.4" stroke-miterlimit="10"/>
</svg>
