<svg width="32" height="32" viewBox="0 0 32 32" fill="none" xmlns="http://www.w3.org/2000/svg">
<circle cx="16" cy="16" r="15.5" fill="#6A29F2" stroke="#6A29F2"/>
<path d="M12.8127 25.733C17.2237 25.733 21.6347 15.0591 21.6347 8.52637C18.7048 9.1216 15.744 9.55343 12.7662 9.81988C9.82201 9.55466 6.89528 9.12281 4 8.52637C4 14.5566 8.43893 25.733 12.8127 25.733Z" fill="white" stroke="#6A29F2" stroke-width="0.4" stroke-miterlimit="10"/>
<path d="M9.36417 14.9175L7.48438 13.6798L9.36417 12.4421L11.244 13.6798L9.36417 14.9175Z" fill="#6A29F2" stroke="#6A29F2" stroke-width="0.4" stroke-miterlimit="10"/>
<path d="M16.2646 14.9737L14.3848 13.736L16.2646 12.4983L18.1537 13.736L16.2646 14.9737Z" fill="white" stroke="#6A29F2" stroke-width="0.4" stroke-miterlimit="10"/>
<path d="M11.7091 21.8999C12.0321 22.1437 12.4257 22.2756 12.8304 22.2756C13.2351 22.2756 13.6288 22.1437 13.9518 21.8999C14.5709 21.341 15.1096 20.699 15.5524 19.9922C13.7791 20.5806 11.8632 20.5806 10.0898 19.9922C10.5439 20.6961 11.0883 21.3375 11.7091 21.8999Z" fill="#6A29F2" stroke="#6A29F2" stroke-width="0.4" stroke-miterlimit="10"/>
<path d="M14.5388 26.2354C18.652 27.836 26.6365 19.4886 29.0002 13.4025C26.0551 12.8971 23.1408 12.226 20.2712 11.3924C17.6236 10.0774 15.054 8.61085 12.5752 7C10.379 12.6208 10.4348 24.6347 14.5388 26.2354Z" fill="white" stroke="#6A29F2" stroke-width="0.4" stroke-miterlimit="10"/>
<path d="M15.2442 14.9119L13.9414 13.0786L16.1469 12.604L17.4497 14.4373L15.2442 14.9119Z" fill="#6A29F2" stroke="#6A29F2" stroke-width="0.4" stroke-miterlimit="10"/>
<path d="M21.6676 17.4712L20.3555 15.6379L22.561 15.1633L23.8638 17.0059L21.6676 17.4712Z" fill="#6A29F2" stroke="#6A29F2" stroke-width="0.4" stroke-miterlimit="10"/>
<path d="M14.8873 22.2707C15.0979 22.6185 15.4166 22.8878 15.7948 23.0373C16.1729 23.1869 16.5896 23.2085 16.9811 23.0989C17.7579 22.799 18.4904 22.3951 19.1587 21.8984C17.293 21.8019 15.508 21.1069 14.0684 19.9163C14.2393 20.7329 14.5145 21.5242 14.8873 22.2707Z" fill="#6A29F2" stroke="#6A29F2" stroke-width="0.4" stroke-miterlimit="10"/>
</svg>
