<svg width="32" height="32" viewBox="0 0 32 32" fill="none" xmlns="http://www.w3.org/2000/svg">
<circle cx="16" cy="16" r="15.5" fill="#C52873" stroke="#C52873"/>
<path d="M8.38012 10.2097L6.54841 15.1745C7.02504 15.3983 7.5243 15.5703 8.03761 15.6876C8.89308 15.8832 9.77614 15.928 10.647 15.82L11.6167 12.8047L11.5902 14.3636C11.584 14.7796 11.661 15.1926 11.8169 15.5783L13.0877 18.7045L13.6618 18.069L12.8345 15.2987C12.717 14.9014 12.6921 14.4824 12.7617 14.074L13.134 11.8945C13.1415 11.7839 13.1365 11.6729 13.1191 11.5635C12.9751 10.6814 12.0369 10.2064 11.8152 10.1022L11.7441 10.0674C11.7215 10.1369 11.691 10.2036 11.6531 10.266C11.5286 10.461 11.3384 10.6048 11.1169 10.6715C11.012 10.712 10.8996 10.7299 10.7873 10.7239C10.6749 10.7179 10.5651 10.6882 10.465 10.6367C10.2973 10.5296 10.1784 10.3608 10.1341 10.1667C10.0903 9.99233 10.0977 9.80901 10.1556 9.63878C10.1983 9.49795 10.2692 9.36731 10.3641 9.25483C10.0767 8.9895 9.75707 8.76153 9.41263 8.57631C8.93121 8.30427 8.40107 8.1294 7.85228 8.06163C7.60243 8.04012 7.14078 7.77036 7.22186 7.64955L8.73422 5.41539L8.11207 5L6.04042 7.7025C5.85179 7.94909 6.37136 8.40751 6.60963 8.61769L8.38012 10.2097Z" fill="white" stroke="#C52873" stroke-width="0.2" stroke-miterlimit="10"/>
<path d="M11.8343 9.58414C12.5389 9.58414 13.1101 9.01287 13.1101 8.30818C13.1101 7.60349 12.5389 7.03223 11.8343 7.03223C11.1298 7.03223 10.5586 7.60349 10.5586 8.30818C10.5586 9.01287 11.1298 9.58414 11.8343 9.58414Z" fill="white" stroke="#C52873" stroke-width="0.2" stroke-miterlimit="10"/>
<path d="M6.48635 15.3701C6.41095 15.6478 6.36274 15.9321 6.3424 16.2191C6.27621 17.2501 6.53434 18.1024 6.90498 19.294C6.99765 19.5952 7.08203 19.8401 7.13995 20.0006L6.43671 26.1901H8.16088V25.6489L7.26736 25.3295L8.79792 20.5749L9.05274 18.0925L10.2971 20.3267V26.3241H12.0196V25.687L11.1277 25.3676L12.147 20.1992L10.6776 16.0006C10.5734 16.0189 10.4658 16.0354 10.3583 16.0486C8.84425 16.239 7.71081 15.9129 6.61542 15.433L6.48635 15.3701Z" fill="white" stroke="#C52873" stroke-width="0.2" stroke-miterlimit="10"/>
<path d="M24.5845 11.5414C24.8836 10.8822 24.5918 10.1053 23.9328 9.80618C23.2737 9.50703 22.4969 9.79889 22.1978 10.4581C21.8987 11.1172 22.1905 11.8941 22.8496 12.1933C23.5087 12.4924 24.2854 12.2006 24.5845 11.5414Z" fill="white" stroke="#C52873" stroke-width="0.2" stroke-miterlimit="10"/>
<path d="M26.0297 10.4996L26.6122 7.18975H27.4279C27.4279 7.18975 27.317 10.3093 26.7859 11.3734C26.2696 12.4078 23.6751 14.5989 23.6751 14.5989C23.6041 14.666 23.5377 14.7378 23.4766 14.814C23.2596 15.0957 23.103 15.4191 23.0166 15.764C22.8296 16.6096 23.6503 17.6754 23.6503 17.6754C20.9846 18.915 19.416 17.7102 19.416 17.7102C21.8815 15.855 19.651 15.0722 20.4403 13.217C20.7249 12.555 20.6802 10.6502 20.7828 9.74166C20.8649 9.02347 21.1672 8.34829 21.6482 7.80869L23.4352 5.71851L24.0673 6.2514C22.4606 8.0437 22.55 8.07183 22.0684 8.8993C22.0684 8.8993 20.7712 12.0006 22.4126 12.8116C23.829 13.5116 25.0303 12.2274 25.7898 11.1086C25.9128 10.9254 25.9947 10.7176 26.0297 10.4996Z" fill="white" stroke="#C52873" stroke-width="0.2" stroke-miterlimit="10"/>
<path d="M19.2701 17.8602C19.3628 17.9314 20.9794 19.1048 23.7245 17.842C23.7245 17.842 24.2507 18.231 23.8684 22.2127L25.9004 26.0323L24.6428 27.0005L24.2755 26.3815L24.8745 25.5292L22.3379 22.4312L21.3682 19.6426L17.7064 21.6699L15.9078 25.5673V26.4394H14.498V26.0257L15.4462 25.5094L16.4621 21.2694L19.2701 17.8602Z" fill="white" stroke="#C52873" stroke-width="0.2" stroke-miterlimit="10"/>
</svg>
