<svg width="765" height="1034" viewBox="0 0 765 1034" fill="none" xmlns="http://www.w3.org/2000/svg">
<path d="M957 -37.6164H-68V985.773H957V-37.6164Z" fill="#2C3347"/>
<path d="M-68 87.7487C-68 87.7487 66.5312 118.45 99.8438 133.801H112.656L225.406 122.288L268.969 105.658L315.094 160.665C315.094 160.665 271.531 251.491 272.812 314.174C274.094 376.856 270.25 521.41 270.25 521.41C270.25 521.41 160.062 536.761 131.875 535.481C103.688 534.202 31.9375 486.87 26.8125 480.474C21.6875 474.078 -79.5312 417.792 -79.5312 417.792L-68 87.7487Z" fill="#133874" fill-opacity="0.35"/>
<path d="M653.651 771.232L689.039 831.599L743.108 854.664L692.973 1016.61L530.767 950.363L653.651 771.232Z" fill="#4C658C"/>
<path d="M-70.2678 855.598L104.2 881.349L123.854 846.336C123.854 846.336 42.1875 689.988 40.3041 689.374C38.4206 688.76 11.4375 675.302 11.4375 675.302L-93.625 845.172L-70.2678 855.598Z" fill="#4C658C"/>
<path d="M590.947 499.036L673.075 494.124L774.166 459.085L880.881 386.195" stroke="#3D4B67" stroke-width="15" stroke-miterlimit="10"/>
<path d="M750.309 618.888L672.383 497.629" stroke="#3D4B67" stroke-width="15" stroke-miterlimit="10"/>
<path d="M737.663 602.769L703.966 626.601L687.117 620.998L656.931 636.413" stroke="#3D4B67" stroke-width="12" stroke-linecap="round" stroke-linejoin="round"/>
<path d="M754.908 470.867L793.102 536.134L824.685 528.062" stroke="#3D4B67" stroke-width="12" stroke-linecap="round" stroke-linejoin="round"/>
<path d="M749.771 313.93L770.335 286.798" stroke="#3D4B67" stroke-width="12" stroke-linecap="round" stroke-linejoin="round"/>
<path d="M801.918 352.065L737.279 312.459L693.947 324.203L679.264 402.671" stroke="#3D4B67" stroke-width="12" stroke-linecap="round" stroke-linejoin="round"/>
<path d="M684.401 357.194L635.188 365.266" stroke="#3D4B67" stroke-width="12" stroke-linecap="round" stroke-linejoin="round"/>
<path d="M700.775 808.355L783.365 746.849L903.2 527.166" stroke="#3D4B67" stroke-width="16" stroke-linecap="round" stroke-linejoin="round"/>
<path d="M930.952 799.567L810.451 781.99L725.824 659.644" stroke="#3D4B67" stroke-width="12" stroke-linecap="round" stroke-linejoin="round"/>
<path d="M909.966 842.831L809.772 819.178L753.576 771.181" stroke="#3D4B67" stroke-width="12" stroke-linecap="round" stroke-linejoin="round"/>
<path d="M673.011 756.303L754.255 703.586" stroke="#3D4B67" stroke-width="8" stroke-linecap="round" stroke-linejoin="round"/>
<path d="M390.508 514.323L370.239 570.827L347.881 647.555L370.943 674.752L377.234 796.126L361.155 864.475L299.68 1004.68" stroke="#3D4B67" stroke-width="19" stroke-linecap="round" stroke-linejoin="round"/>
<path d="M174.63 778.69L322.781 751.48L426.87 760.55C426.87 760.55 587.552 659.414 590.345 658.019" stroke="#3D4B67" stroke-width="12" stroke-linecap="round" stroke-linejoin="round"/>
<path d="M564.451 611.98L372.34 692.891L234.016 685.92L-95.0344 546.419" stroke="#3D4B67" stroke-width="12" stroke-linecap="round" stroke-linejoin="round"/>
<path d="M-85.2456 613.374L39.0997 686.61L128.518 858.207" stroke="#3D4B67" stroke-width="8" stroke-linecap="round" stroke-linejoin="round"/>
<path d="M185.111 532.462L162.753 658.019L110.363 765.437" stroke="#3D4B67" stroke-width="8" stroke-linecap="round" stroke-linejoin="round"/>
<path d="M205.368 719.397L-85.9502 575.01" stroke="#3D4B67" stroke-width="8" stroke-linecap="round" stroke-linejoin="round"/>
<path d="M12.5522 671.963L-104.118 860.292" stroke="#3D4B67" stroke-width="8" stroke-linecap="round" stroke-linejoin="round"/>
<path d="M62.2006 732.318L-85.2456 926.557" stroke="#3D4B67" stroke-width="8" stroke-linecap="round" stroke-linejoin="round"/>
<path d="M-81.0559 852.617L128.518 881.221L236.105 988.638" stroke="#3D4B67" stroke-width="16" stroke-linecap="round" stroke-linejoin="round"/>
<path d="M466.025 507.146L463.54 602.258L545.552 691.587" stroke="#3D4B67" stroke-width="8" stroke-linecap="round" stroke-linejoin="round"/>
<path d="M427.92 516.242L422.949 671.733" stroke="#3D4B67" stroke-width="8" stroke-linecap="round" stroke-linejoin="round"/>
<path d="M531.458 571.658L356.67 646.916L254.785 632.038" stroke="#3D4B67" stroke-width="8" stroke-linecap="round" stroke-linejoin="round"/>
<path d="M278.809 560.081L373.557 565.863" stroke="#3D4B67" stroke-width="8" stroke-linecap="round" stroke-linejoin="round"/>
<path d="M268.866 597.294L363.615 603.089" stroke="#3D4B67" stroke-width="8" stroke-linecap="round" stroke-linejoin="round"/>
<path d="M130.53 877.677L357.503 874.364L466.025 935.563L512.406 945.489" stroke="#3D4B67" stroke-width="8" stroke-linecap="round" stroke-linejoin="round"/>
<path d="M807.094 862.544L761.827 1015.2" stroke="#3D4B67" stroke-width="8" stroke-linecap="round" stroke-linejoin="round"/>
<path d="M743.89 847.193L692.64 1026.29" stroke="#3D4B67" stroke-width="8" stroke-linecap="round" stroke-linejoin="round"/>
<path d="M642.235 431.006L678.969 494.124" stroke="#3D4B67" stroke-width="8" stroke-linecap="round" stroke-linejoin="round"/>
<path d="M813.923 360.226C812.219 360.226 722.531 475.357 722.531 475.357" stroke="#3D4B67" stroke-width="8" stroke-linecap="round" stroke-linejoin="round"/>
<path d="M175.015 1008.38L257.015 763.608" stroke="#3D4B67" stroke-width="8" stroke-linecap="round" stroke-linejoin="round"/>
<path d="M230.531 1033.96L343.281 690.269" stroke="#3D4B67" stroke-width="8" stroke-linecap="round" stroke-linejoin="round"/>
<path d="M584.925 90.3711L586.962 225.676L556.392 378.263L443.296 498.307" stroke="#3D4B67" stroke-width="8" stroke-linecap="round" stroke-linejoin="round"/>
<path d="M391.328 507.466L413.75 260.267L367.894 44.6001L333.262 -69.3415" stroke="#3D4B67" stroke-width="19" stroke-linecap="round" stroke-linejoin="round"/>
<path d="M771.372 -108L669.487 174.814" stroke="#3D4B67" stroke-width="19" stroke-linecap="round" stroke-linejoin="round"/>
<path d="M288.431 246.016L406.614 232.801L565.565 71.0419L606.322 -48.9888" stroke="#3D4B67" stroke-width="8" stroke-linecap="round" stroke-linejoin="round"/>
<path d="M639.942 143.28L612.434 298.912L601.223 437.274" stroke="#3D4B67" stroke-width="8" stroke-linecap="round" stroke-linejoin="round"/>
<path d="M666.438 311.129L405.601 302.993L281.294 322.322" stroke="#3D4B67" stroke-width="8" stroke-linecap="round" stroke-linejoin="round"/>
<path d="M276.195 364.025L402.539 368.093" stroke="#3D4B67" stroke-width="8" stroke-linecap="round" stroke-linejoin="round"/>
<path d="M278.232 453.546L396.428 449.478L556.392 378.263L606.322 435.24" stroke="#3D4B67" stroke-width="8" stroke-linecap="round" stroke-linejoin="round"/>
<path d="M706.17 216.517L413.75 227.71" stroke="#3D4B67" stroke-width="8" stroke-linecap="round" stroke-linejoin="round"/>
<path d="M719.431 205.285L774.563 3.45987" stroke="#3D4B67" stroke-width="8" stroke-linecap="round" stroke-linejoin="round"/>
<path d="M615.291 112.528L658.174 0.402496" stroke="#3D4B67" stroke-width="8" stroke-linecap="round" stroke-linejoin="round"/>
<path d="M714.318 51.3672L813.346 175.722" stroke="#3D4B67" stroke-width="8" stroke-linecap="round" stroke-linejoin="round"/>
<path d="M-80.9663 82.9644L108.915 130.872L228.366 121.7L501.977 14.666" stroke="#3D4B67" stroke-width="8" stroke-linecap="round" stroke-linejoin="round"/>
<path d="M120.151 50.3439L236.54 76.8497" stroke="#3D4B67" stroke-width="8" stroke-linecap="round" stroke-linejoin="round"/>
<path d="M294.722 -9.79303L357.003 149.216" stroke="#3D4B67" stroke-width="8" stroke-linecap="round" stroke-linejoin="round"/>
<path d="M243.677 75.8262L329.444 171.641" stroke="#3D4B67" stroke-width="8" stroke-linecap="round" stroke-linejoin="round"/>
<path d="M227.341 238.916L275.324 250.135" stroke="#3D4B67" stroke-width="8" stroke-linecap="round" stroke-linejoin="round"/>
<path d="M219.179 365.317L271.249 364.294" stroke="#3D4B67" stroke-width="8" stroke-linecap="round" stroke-linejoin="round"/>
<path d="M217.142 451.96L276.349 458.075" stroke="#3D4B67" stroke-width="8" stroke-linecap="round" stroke-linejoin="round"/>
<path d="M56.2812 -45.2918L47.3125 112.054" stroke="#3D4B67" stroke-width="8" stroke-linecap="round" stroke-linejoin="round"/>
<path d="M20.4062 480.474L-0.09375 590.489" stroke="#3D4B67" stroke-width="8" stroke-linecap="round" stroke-linejoin="round"/>
<path d="M89.5935 534.202L81.022 760.55L162.753 783.564" stroke="#3D4B67" stroke-width="8" stroke-linecap="round" stroke-linejoin="round"/>
<path d="M468.844 -65.7596L522.656 28.9039L755.844 254.049L866.031 351.271L1035.16 513.734" stroke="#3D4B67" stroke-width="34" stroke-linecap="round" stroke-linejoin="round"/>
<path d="M90.875 1024.15C90.875 1024.15 103.688 897.505 122.906 862.966C142.125 828.427 239.5 676.197 260 619.911C280.5 563.625 274.094 445.935 274.094 378.135C274.094 310.336 268.969 231.023 324.062 176.016C379.156 121.009 518.812 21.2285 518.812 21.2285" stroke="#3D4B67" stroke-width="34" stroke-linecap="round" stroke-linejoin="round"/>
<path d="M1026.19 925.649L693.062 823.31L568.781 619.911L536.75 571.3L538.031 462.565L666.156 417.792L1021.06 265.563" stroke="#3D4B67" stroke-width="34" stroke-linecap="round" stroke-linejoin="round"/>
<path d="M654.625 760.627L531.663 935.524L467.562 1026.71" stroke="#3D4B67" stroke-width="34" stroke-linecap="round" stroke-linejoin="round"/>
<path d="M698.482 1025.99L521.67 951.796" stroke="#3D4B67" stroke-width="34" stroke-linecap="round" stroke-linejoin="round"/>
<path d="M-109 403.72C-109 403.72 -3.9375 456.169 24.25 471.52C52.4375 486.871 79.3438 549.553 180.562 532.923C281.781 516.293 580.312 498.384 580.312 498.384C580.312 498.384 617.469 362.785 678.969 291.147C740.469 219.51 867.312 137.639 867.312 137.639L1042.84 114.613" stroke="#3D4B67" stroke-width="23" stroke-linejoin="round"/>
<path d="M580.313 498.384C580.313 498.384 605.938 610.956 595.688 633.983C585.438 657.009 557.25 678.756 530.344 719.691C503.438 760.627 526.5 804.121 439.375 832.264C352.25 860.407 409.906 1016.47 409.906 1016.47" stroke="#3D4B67" stroke-width="23" stroke-linejoin="round"/>
<path d="M580.313 498.384C580.313 498.384 605.938 610.956 595.688 633.983C585.438 657.009 557.25 678.756 530.344 719.691C503.438 760.627 526.5 804.121 439.375 832.264C352.25 860.407 409.906 1016.47 409.906 1016.47" stroke="#293F64" stroke-opacity="0.96" stroke-width="10" stroke-linejoin="round"/>
<path d="M-109 403.72C-109 403.72 -3.9375 456.169 24.25 471.52C52.4375 486.871 79.3438 549.553 180.562 532.923C281.781 516.293 580.312 498.384 580.312 498.384C580.312 498.384 617.469 362.785 678.969 291.147C740.469 219.51 867.312 137.639 867.312 137.639L1042.84 114.613" stroke="#293F64" stroke-opacity="0.96" stroke-width="10" stroke-linejoin="round"/>
<path d="M363.781 1006.24L465 930.765L580.312 783.653L650.781 704.341L848.094 563.625L964.688 483.033" stroke="#3D4B67" stroke-width="23" stroke-linejoin="round"/>
<path d="M363.781 1006.24L465 930.765L580.312 783.653L650.781 704.341L848.094 563.625L964.688 483.033" stroke="#606A98" stroke-width="14" stroke-linejoin="round"/>
<path d="M468.844 -65.7596L522.656 28.9039L755.844 254.049L866.031 351.271L1035.16 513.734" stroke="#2C3347" stroke-width="21" stroke-linecap="round" stroke-linejoin="round"/>
<path d="M90.875 1024.15C90.875 1024.15 103.688 897.505 122.906 862.966C142.125 828.427 239.5 676.197 260 619.911C280.5 563.625 274.094 445.935 274.094 378.135C274.094 310.336 268.969 231.023 324.062 176.016C379.156 121.009 518.812 21.2285 518.812 21.2285" stroke="#2C3347" stroke-width="21" stroke-linecap="round" stroke-linejoin="round"/>
<path d="M1026.19 925.649L693.062 823.31L568.781 619.911L536.75 571.3L538.031 462.565L666.156 417.792L1021.06 265.563" stroke="#2C3347" stroke-width="21" stroke-linecap="round" stroke-linejoin="round"/>
<path d="M654.625 760.627L531.663 935.524L467.562 1026.71" stroke="#2C3347" stroke-width="21" stroke-linecap="round" stroke-linejoin="round"/>
<path d="M696.535 1025.15L523.63 952.653" stroke="#2C3347" stroke-width="21" stroke-linecap="round" stroke-linejoin="round"/>
<path d="M696.535 1025.15L523.63 952.653" stroke="#48496F" stroke-width="19" stroke-linecap="round" stroke-linejoin="round"/>
<path d="M112.656 -54.2465C112.656 -54.2465 119.062 114.613 103.687 163.224C88.3123 211.835 24.2498 326.966 53.7186 407.558C83.1873 488.15 197.219 525.248 211.312 463.844C225.406 402.441 208.75 298.823 216.437 257.887C224.125 216.952 236.937 44.2547 253.594 21.2284C270.25 -1.79781 303.562 -33.7787 367.625 -46.5711" stroke="#3D4B67" stroke-width="23" stroke-linejoin="round"/>
<path d="M652.062 -60.6427C655.906 -60.6427 818.625 -69.5973 876.281 -4.35627C933.938 60.8848 923.688 91.5865 935.219 119.73C946.75 147.873 971.094 170.899 999.281 184.971" stroke="#3D4B67" stroke-width="23" stroke-linejoin="round"/>
<path d="M112.656 -54.2465C112.656 -54.2465 119.062 114.613 103.687 163.224C88.3123 211.835 24.2498 326.966 53.7186 407.558C83.1873 488.15 197.219 525.248 211.312 463.844C225.406 402.441 208.75 298.823 216.437 257.887C224.125 216.952 236.937 44.2547 253.594 21.2284C270.25 -1.79781 303.562 -33.7787 367.625 -46.5711" stroke="#606A98" stroke-width="14" stroke-linejoin="round"/>
<path d="M652.062 -60.6427C655.906 -60.6427 818.625 -69.5973 876.281 -4.35627C933.938 60.8848 923.688 91.5865 935.219 119.73C946.75 147.873 971.094 170.899 999.281 184.971" stroke="#606A98" stroke-width="14" stroke-linejoin="round"/>
<path d="M468.844 -65.7596L522.656 28.9039L755.844 254.049L866.031 351.271L1035.16 513.734" stroke="#48496F" stroke-width="19" stroke-linecap="round" stroke-linejoin="round"/>
<path d="M90.875 1024.15C90.875 1024.15 103.688 897.505 122.906 862.966C142.125 828.427 239.5 676.197 260 619.911C280.5 563.625 274.094 445.935 274.094 378.135C274.094 310.336 268.969 231.023 324.062 176.016C379.156 121.009 518.812 21.2285 518.812 21.2285" stroke="#48496F" stroke-width="19" stroke-linecap="round" stroke-linejoin="round"/>
<path d="M1026.19 925.649L693.062 823.31L568.781 619.911L536.75 571.3L538.031 462.565L666.156 417.792L1021.06 265.563" stroke="#48496F" stroke-width="19" stroke-linecap="round" stroke-linejoin="round"/>
<path d="M654.625 760.627L531.663 935.524L467.562 1026.71" stroke="#48496F" stroke-width="19" stroke-linecap="round" stroke-linejoin="round"/>
<path d="M957 -37.6164H-68V1034.38H957V-37.6164Z" fill="url(#paint0_radial_1177_29877)"/>
<path opacity="0.2" d="M887.812 -37.6164H-68V910.298H887.812V-37.6164Z" fill="#151618"/>
<path style="mix-blend-mode:multiply" opacity="0.28" d="M367.42 508.835C367.42 512.11 356.286 514.758 342.538 514.758C328.79 514.758 317.656 512.11 317.656 508.835C317.656 505.56 328.803 502.912 342.551 502.912C356.299 502.912 367.42 505.573 367.42 508.835Z" fill="url(#paint1_radial_1177_29877)"/>
<path d="M431.816 948.291C431.752 947.984 431.701 947.69 431.662 947.383C431.688 947.69 431.752 947.984 431.816 948.291Z" fill="#B5B5B5"/>
<path d="M432.803 951.157L432.726 950.99L432.803 951.157Z" fill="#B5B5B5"/>
<path d="M432.123 949.468C432.285 949.976 432.482 950.471 432.712 950.952C432.484 950.47 432.287 949.975 432.123 949.468Z" fill="#B5B5B5"/>
<defs>
<radialGradient id="paint0_radial_1177_29877" cx="0" cy="0" r="1" gradientUnits="userSpaceOnUse" gradientTransform="translate(448.984 485.962) rotate(-1.17774) scale(508.123 515.459)">
<stop stop-color="#151618" stop-opacity="0"/>
<stop offset="1" stop-color="#151618"/>
</radialGradient>
<radialGradient id="paint1_radial_1177_29877" cx="0" cy="0" r="1" gradientUnits="userSpaceOnUse" gradientTransform="translate(342.826 507.754) scale(24.906 5.89624)">
<stop/>
<stop offset="0.15" stop-opacity="0.5"/>
<stop offset="1" stop-opacity="0"/>
</radialGradient>
</defs>
</svg>
