<svg width="35" height="41" viewBox="0 0 35 41" fill="none" xmlns="http://www.w3.org/2000/svg">
<path d="M22.9917 3.42155C23.0337 3.35036 23.0757 3.27497 23.1219 3.20797C23.6763 2.37457 24.2307 1.54535 24.7851 0.711951C25.0077 0.381103 24.9657 0.196833 24.6297 0H24.4197C24.3147 0.0963228 24.1929 0.18427 24.1173 0.297344C23.5167 1.17681 22.9245 2.06047 22.3364 2.94413C22.2524 3.06977 22.1852 3.10746 22.0382 3.05301C20.354 2.41645 18.6025 2.18192 16.809 2.26568C15.4818 2.32431 14.1881 2.57978 12.9449 3.05301C12.7852 3.11583 12.7138 3.06977 12.634 2.94413C12.046 2.05628 11.458 1.17263 10.8616 0.293156C10.786 0.18427 10.6726 0.0963228 10.576 0H10.366C10.0299 0.171706 9.97534 0.389479 10.1853 0.703575C10.6012 1.3192 11.017 1.93483 11.4328 2.55046C11.6302 2.83943 11.8192 3.13258 12.0208 3.43412C11.0254 3.91154 10.1307 4.47692 9.32851 5.18887C7.91725 6.44106 6.93021 7.95291 6.5354 9.81236C6.43039 10.3149 6.39679 10.8384 6.32959 11.3619H28.6703C28.4519 7.50899 26.2636 5.08836 22.9917 3.42155ZM12.7096 8.2C12.0586 8.2 11.542 7.67232 11.542 7.01062C11.542 6.34474 12.0712 5.81287 12.7264 5.81706C13.3775 5.82125 13.9109 6.3573 13.9193 7.019C13.9319 7.65557 13.3691 8.2 12.7096 8.2ZM22.2692 8.2C21.6224 8.19581 21.0806 7.66394 21.0764 7.02319C21.068 6.38243 21.6308 5.81287 22.2692 5.81706C22.9329 5.82125 23.4579 6.34474 23.4579 7.01062C23.4579 7.68069 22.9329 8.20419 22.2692 8.2Z" fill="white"/>
<path d="M28.6494 12.9785V13.2172C28.6494 18.9128 28.6494 24.6084 28.6494 30.3041C28.6494 31.6693 27.8094 32.6912 26.4569 32.9006C25.9991 32.9718 25.5245 32.9215 25.0541 32.9257C24.8105 32.9257 24.5669 32.9257 24.3569 32.9257C24.3695 33.3361 24.3905 33.7298 24.3905 34.1276C24.3905 35.6814 24.4031 37.2351 24.3779 38.793C24.3611 39.84 23.5084 40.7697 22.4794 40.9582C21.1269 41.2053 19.8711 40.33 19.6485 38.9815C19.6317 38.8642 19.6317 38.7428 19.6317 38.6255C19.6317 36.8917 19.6359 35.1537 19.6401 33.4199C19.6401 33.2607 19.6779 33.1058 19.7031 32.9383H15.3601C15.3769 34.8982 15.3895 36.854 15.3559 38.8056C15.3391 39.8316 14.4739 40.7823 13.4658 40.9582C12.105 41.1969 10.9121 40.3844 10.6391 39.0317C10.6139 38.9103 10.6097 38.7805 10.6097 38.659C10.6097 36.9084 10.6097 35.1579 10.6181 33.4115C10.6181 33.2607 10.6559 33.11 10.6811 32.9299H10.4711C9.90407 32.9299 9.33705 32.9299 8.77423 32.9299C7.59818 32.9257 6.48094 31.8997 6.38013 30.727C6.36753 30.5595 6.35913 30.392 6.35913 30.2245C6.35913 24.5498 6.35913 18.8751 6.35913 13.2005V12.9827H28.6494V12.9785Z" fill="white"/>
<path d="M4.76299 25.4291C4.76299 26.6352 4.06576 27.5482 2.93592 27.833C1.63807 28.1638 0.294012 27.3053 0.0462019 25.9903C0.0126005 25.806 0.00420017 25.6175 0.00420017 25.4333C0 23.7665 0 22.0997 0 20.4329H0.00420017C0.00420017 18.7032 0 16.9736 0.00420017 15.244C0.00840034 14.1844 0.835834 13.2087 1.87748 13.0118C3.24253 12.7522 4.45638 13.5688 4.72519 14.9299C4.75459 15.0849 4.76299 15.2482 4.76299 15.4073C4.76299 18.7493 4.76719 22.0871 4.76299 25.4291Z" fill="white"/>
<path d="M34.9999 25.5089C35.0083 26.7904 33.9415 27.984 32.4756 27.9002C31.224 27.829 30.3167 26.8407 30.2453 25.7267C30.2327 25.534 30.2285 25.3372 30.2285 25.1403C30.2285 23.5657 30.2285 21.991 30.2285 20.4122C30.2285 18.7537 30.2285 17.0953 30.2285 15.4327C30.2285 14.7082 30.4553 14.0758 31.0013 13.59C31.7112 12.9618 32.5386 12.7901 33.429 13.1084C34.3153 13.4267 34.8151 14.0925 34.9831 15.0097C35.0041 15.127 34.9957 15.2442 34.9957 15.3657C34.9957 18.7495 34.9873 22.1292 34.9999 25.5089Z" fill="white"/>
</svg>
