<svg width="34" height="41" viewBox="0 0 34 41" fill="none" xmlns="http://www.w3.org/2000/svg">
<g clip-path="url(#clip0_1189_36752)">
<path d="M32.7774 13.7708C25.9932 19.1778 27.7681 26.841 34.0001 30.1474C32.7379 33.804 30.8052 36.9937 27.9259 39.6389C26.3876 41.0393 24.4154 41.3505 22.601 40.5336C19.2484 38.9776 16.0535 39.0943 12.7797 40.6114C11.0442 41.3894 9.34815 41.0004 7.80986 39.7945C2.16949 35.4378 -1.38039 24.7793 0.512879 17.9719C2.32726 11.3979 8.16485 8.40265 14.5152 10.9311C16.8029 11.8647 18.6567 11.3979 20.7472 10.6199C25.6382 8.79164 30.0952 10.0364 32.7774 13.7708Z" fill="white"/>
<path d="M17.0395 9.18027C16.6056 4.59013 20.4316 0.272296 25.0859 0C26.3481 3.34535 22.0093 9.88046 17.0395 9.18027Z" fill="white"/>
</g>
<defs>
<clipPath id="clip0_1189_36752">
<rect width="34" height="41" fill="white"/>
</clipPath>
</defs>
</svg>
