<svg width="1026" height="1074" viewBox="0 0 1026 1074" fill="none" xmlns="http://www.w3.org/2000/svg">
<g clip-path="url(#clip0_1189_36808)">
<path d="M1026 0.000488281H0V1025.3H1026V0.000488281Z" fill="#2C3347"/>
<path d="M2.00272e-05 125.599C2.00272e-05 125.599 134.663 156.358 168.008 171.738H180.833L293.693 160.203L337.298 143.542L383.468 198.652C383.468 198.652 339.863 289.647 341.145 352.446C342.428 415.246 338.58 560.069 338.58 560.069C338.58 560.069 228.285 575.449 200.07 574.167C171.855 572.885 100.035 525.465 94.905 519.057C89.775 512.649 -11.5425 456.258 -11.5425 456.258L2.00272e-05 125.599Z" fill="#133874" fill-opacity="0.35"/>
<path d="M722.355 810.357L757.778 870.837L811.899 893.945L761.715 1056.2L599.351 989.823L722.355 810.357Z" fill="#4C658C"/>
<path d="M-2.27017 894.88L172.368 920.68L192.041 885.602C192.041 885.602 110.295 728.962 108.41 728.346C106.524 727.731 79.5149 714.249 79.5149 714.249L-25.6501 884.435L-2.27017 894.88Z" fill="#4C658C"/>
<path d="M659.59 537.654L741.798 532.733L842.987 497.629L949.807 424.602" stroke="#3D4B67" stroke-width="15" stroke-miterlimit="10"/>
<path d="M819.107 657.729L741.105 536.244" stroke="#3D4B67" stroke-width="15" stroke-miterlimit="10"/>
<path d="M806.449 641.581L772.719 665.457L755.854 659.844L725.638 675.287" stroke="#3D4B67" stroke-width="12" stroke-linecap="round" stroke-linejoin="round"/>
<path d="M890.619 471.228L947.96 545.433" stroke="#3D4B67" stroke-width="12" stroke-linecap="round" stroke-linejoin="round"/>
<path d="M823.711 509.433L861.943 574.821L893.556 566.734" stroke="#3D4B67" stroke-width="12" stroke-linecap="round" stroke-linejoin="round"/>
<path d="M883.271 524.12L843.564 540.294" stroke="#3D4B67" stroke-width="12" stroke-linecap="round" stroke-linejoin="round"/>
<path d="M881.796 403.635L1000.17 538.09" stroke="#3D4B67" stroke-width="12" stroke-linecap="round" stroke-linejoin="round"/>
<path d="M818.568 352.203L839.152 325.02" stroke="#3D4B67" stroke-width="12" stroke-linecap="round" stroke-linejoin="round"/>
<path d="M870.766 390.408L806.064 350.729L762.69 362.494L747.992 441.109" stroke="#3D4B67" stroke-width="12" stroke-linecap="round" stroke-linejoin="round"/>
<path d="M753.135 395.547L703.875 403.634" stroke="#3D4B67" stroke-width="12" stroke-linecap="round" stroke-linejoin="round"/>
<path d="M769.526 847.55L852.196 785.93L972.148 565.837" stroke="#3D4B67" stroke-width="16" stroke-linecap="round" stroke-linejoin="round"/>
<path d="M999.927 838.745L879.308 821.136L794.599 698.562" stroke="#3D4B67" stroke-width="12" stroke-linecap="round" stroke-linejoin="round"/>
<path d="M978.919 882.09L878.628 858.393L822.377 810.306" stroke="#3D4B67" stroke-width="12" stroke-linecap="round" stroke-linejoin="round"/>
<path d="M741.734 795.401L823.057 742.585" stroke="#3D4B67" stroke-width="8" stroke-linecap="round" stroke-linejoin="round"/>
<path d="M1003.99 803.539L896.25 785.93" stroke="#3D4B67" stroke-width="8" stroke-linecap="round" stroke-linejoin="round"/>
<path d="M1016.2 779.15L908.446 761.541" stroke="#3D4B67" stroke-width="8" stroke-linecap="round" stroke-linejoin="round"/>
<path d="M1028.4 754.774L920.643 737.164" stroke="#3D4B67" stroke-width="8" stroke-linecap="round" stroke-linejoin="round"/>
<path d="M1040.59 730.397L932.839 712.788" stroke="#3D4B67" stroke-width="8" stroke-linecap="round" stroke-linejoin="round"/>
<path d="M842.705 659.959L905.74 689.757L1060.24 671.481" stroke="#3D4B67" stroke-width="12" stroke-linecap="round" stroke-linejoin="round"/>
<path d="M959.951 600.376L1060.63 651.065" stroke="#3D4B67" stroke-width="12" stroke-linecap="round" stroke-linejoin="round"/>
<path d="M458.955 552.969L438.666 609.579L416.287 686.45L439.372 713.698L445.669 835.298L429.573 903.775L368.039 1044.24" stroke="#3D4B67" stroke-width="19" stroke-linecap="round" stroke-linejoin="round"/>
<path d="M242.867 817.83L391.162 790.569L495.353 799.656C495.353 799.656 656.191 698.331 658.987 696.934" stroke="#3D4B67" stroke-width="12" stroke-linecap="round" stroke-linejoin="round"/>
<path d="M633.068 650.808L440.77 731.871L302.311 724.886L-27.0608 585.125" stroke="#3D4B67" stroke-width="12" stroke-linecap="round" stroke-linejoin="round"/>
<path d="M-17.2625 652.206L107.204 725.578L196.71 897.495" stroke="#3D4B67" stroke-width="8" stroke-linecap="round" stroke-linejoin="round"/>
<path d="M253.358 571.143L230.978 696.934L178.537 804.552" stroke="#3D4B67" stroke-width="8" stroke-linecap="round" stroke-linejoin="round"/>
<path d="M273.634 758.426L-17.9678 613.77" stroke="#3D4B67" stroke-width="8" stroke-linecap="round" stroke-linejoin="round"/>
<path d="M42.1686 689.937L-23.5596 782.188" stroke="#3D4B67" stroke-width="8" stroke-linecap="round" stroke-linejoin="round"/>
<path d="M80.6306 710.904L-36.1538 899.584" stroke="#3D4B67" stroke-width="8" stroke-linecap="round" stroke-linejoin="round"/>
<path d="M130.328 771.371L-17.2625 965.972" stroke="#3D4B67" stroke-width="8" stroke-linecap="round" stroke-linejoin="round"/>
<path d="M-13.0686 891.895L196.71 920.552L304.401 1028.17" stroke="#3D4B67" stroke-width="16" stroke-linecap="round" stroke-linejoin="round"/>
<path d="M534.546 545.779L532.058 641.068L614.151 730.564" stroke="#3D4B67" stroke-width="8" stroke-linecap="round" stroke-linejoin="round"/>
<path d="M496.404 554.892L491.428 710.673" stroke="#3D4B67" stroke-width="8" stroke-linecap="round" stroke-linejoin="round"/>
<path d="M600.043 610.412L425.085 685.809L323.1 670.904" stroke="#3D4B67" stroke-width="8" stroke-linecap="round" stroke-linejoin="round"/>
<path d="M347.147 598.813L441.988 604.606" stroke="#3D4B67" stroke-width="8" stroke-linecap="round" stroke-linejoin="round"/>
<path d="M337.195 636.095L432.036 641.901" stroke="#3D4B67" stroke-width="8" stroke-linecap="round" stroke-linejoin="round"/>
<path d="M198.723 917.002L425.918 913.682L534.546 974.995L580.973 984.94" stroke="#3D4B67" stroke-width="8" stroke-linecap="round" stroke-linejoin="round"/>
<path d="M903.303 906.108L927.247 830.069" stroke="#3D4B67" stroke-width="8" stroke-linecap="round" stroke-linejoin="round"/>
<path d="M875.947 901.84L830.637 1054.78" stroke="#3D4B67" stroke-width="8" stroke-linecap="round" stroke-linejoin="round"/>
<path d="M957.168 970.189L950.332 971.893L861.417 957.373" stroke="#3D4B67" stroke-width="8" stroke-linecap="round" stroke-linejoin="round"/>
<path d="M939.213 1021.45L851.157 994.963" stroke="#3D4B67" stroke-width="8" stroke-linecap="round" stroke-linejoin="round"/>
<path d="M812.682 886.46L761.382 1065.89" stroke="#3D4B67" stroke-width="8" stroke-linecap="round" stroke-linejoin="round"/>
<path d="M710.928 469.497L747.697 532.732" stroke="#3D4B67" stroke-width="8" stroke-linecap="round" stroke-linejoin="round"/>
<path d="M882.783 398.585C881.078 398.585 791.302 513.931 791.302 513.931" stroke="#3D4B67" stroke-width="8" stroke-linecap="round" stroke-linejoin="round"/>
<path d="M243.252 1047.94L325.332 802.719" stroke="#3D4B67" stroke-width="8" stroke-linecap="round" stroke-linejoin="round"/>
<path d="M298.823 1073.58L411.683 729.244" stroke="#3D4B67" stroke-width="8" stroke-linecap="round" stroke-linejoin="round"/>
<path d="M653.562 128.227L655.601 263.784L625.001 416.656L511.794 536.923" stroke="#3D4B67" stroke-width="8" stroke-linecap="round" stroke-linejoin="round"/>
<path d="M459.776 546.1L482.22 298.439L436.319 82.37L401.653 -31.7842" stroke="#3D4B67" stroke-width="19" stroke-linecap="round" stroke-linejoin="round"/>
<path d="M840.191 -70.5146L738.207 212.827" stroke="#3D4B67" stroke-width="19" stroke-linecap="round" stroke-linejoin="round"/>
<path d="M356.779 284.161L475.076 270.922L634.183 108.861L674.98 -11.3936" stroke="#3D4B67" stroke-width="8" stroke-linecap="round" stroke-linejoin="round"/>
<path d="M708.633 181.234L681.097 337.157L669.875 475.777" stroke="#3D4B67" stroke-width="8" stroke-linecap="round" stroke-linejoin="round"/>
<path d="M735.154 349.396L474.063 341.245L349.635 360.61" stroke="#3D4B67" stroke-width="8" stroke-linecap="round" stroke-linejoin="round"/>
<path d="M344.531 402.392L470.998 406.467" stroke="#3D4B67" stroke-width="8" stroke-linecap="round" stroke-linejoin="round"/>
<path d="M346.57 492.079L464.88 488.004L625.001 416.656L674.98 473.739" stroke="#3D4B67" stroke-width="8" stroke-linecap="round" stroke-linejoin="round"/>
<path d="M774.925 254.607L482.22 265.822" stroke="#3D4B67" stroke-width="8" stroke-linecap="round" stroke-linejoin="round"/>
<path d="M942.509 183.093L903.675 344.449" stroke="#3D4B67" stroke-width="8" stroke-linecap="round" stroke-linejoin="round"/>
<path d="M992.578 171.866L971.122 355.689" stroke="#3D4B67" stroke-width="8" stroke-linecap="round" stroke-linejoin="round"/>
<path d="M788.199 243.355L843.385 41.1533" stroke="#3D4B67" stroke-width="8" stroke-linecap="round" stroke-linejoin="round"/>
<path d="M683.957 150.424L726.883 38.0898" stroke="#3D4B67" stroke-width="8" stroke-linecap="round" stroke-linejoin="round"/>
<path d="M783.082 89.1499L882.206 213.736" stroke="#3D4B67" stroke-width="8" stroke-linecap="round" stroke-linejoin="round"/>
<path d="M898.558 191.269L904.688 108.553L952.718 -11.9575" stroke="#3D4B67" stroke-width="8" stroke-linecap="round" stroke-linejoin="round"/>
<path d="M942.509 172.891L1006.89 -30.3359" stroke="#3D4B67" stroke-width="8" stroke-linecap="round" stroke-linejoin="round"/>
<path d="M-12.979 120.806L177.087 168.803L296.655 159.614L570.533 52.3804" stroke="#3D4B67" stroke-width="8" stroke-linecap="round" stroke-linejoin="round"/>
<path d="M188.335 88.1245L304.838 114.68" stroke="#3D4B67" stroke-width="8" stroke-linecap="round" stroke-linejoin="round"/>
<path d="M363.076 27.8755L425.418 187.181" stroke="#3D4B67" stroke-width="8" stroke-linecap="round" stroke-linejoin="round"/>
<path d="M311.981 113.655L397.832 209.648" stroke="#3D4B67" stroke-width="8" stroke-linecap="round" stroke-linejoin="round"/>
<path d="M295.629 277.049L343.659 288.289" stroke="#3D4B67" stroke-width="8" stroke-linecap="round" stroke-linejoin="round"/>
<path d="M287.459 403.686L339.58 402.661" stroke="#3D4B67" stroke-width="8" stroke-linecap="round" stroke-linejoin="round"/>
<path d="M285.42 490.49L344.685 496.616" stroke="#3D4B67" stroke-width="8" stroke-linecap="round" stroke-linejoin="round"/>
<path d="M62.8425 -19.2241L53.865 135.852" stroke="#3D4B67" stroke-width="8" stroke-linecap="round" stroke-linejoin="round"/>
<path d="M124.403 -7.68945L115.425 149.95" stroke="#3D4B67" stroke-width="8" stroke-linecap="round" stroke-linejoin="round"/>
<path d="M88.4924 519.058L67.9724 629.277" stroke="#3D4B67" stroke-width="8" stroke-linecap="round" stroke-linejoin="round"/>
<path d="M157.747 572.886L149.167 799.656L230.978 822.713" stroke="#3D4B67" stroke-width="8" stroke-linecap="round" stroke-linejoin="round"/>
<path d="M537.367 -28.1953L591.232 66.6448L824.647 292.21L934.942 389.614L1104.23 552.38" stroke="#3D4B67" stroke-width="34" stroke-linecap="round" stroke-linejoin="round"/>
<path d="M159.03 1063.75C159.03 1063.75 171.855 936.867 191.093 902.263C210.33 867.659 307.8 715.146 328.32 658.755C348.84 602.363 342.428 484.454 342.428 416.528C342.428 348.602 337.298 269.141 392.445 214.031C447.593 158.922 587.385 58.9551 587.385 58.9551" stroke="#3D4B67" stroke-width="34" stroke-linecap="round" stroke-linejoin="round"/>
<path d="M1070.89 643.375L924.682 1062.47" stroke="#3D4B67" stroke-width="34" stroke-linecap="round" stroke-linejoin="round"/>
<path d="M1095.25 965.063L761.805 862.533L637.402 658.755L605.34 610.053L606.622 501.115L734.872 456.258L1090.12 303.745" stroke="#3D4B67" stroke-width="34" stroke-linecap="round" stroke-linejoin="round"/>
<path d="M723.33 799.733L600.248 974.956L536.085 1066.31" stroke="#3D4B67" stroke-width="34" stroke-linecap="round" stroke-linejoin="round"/>
<path d="M767.23 1065.59L590.245 991.259" stroke="#3D4B67" stroke-width="34" stroke-linecap="round" stroke-linejoin="round"/>
<path d="M-41.04 442.16C-41.04 442.16 64.125 494.706 92.34 510.086C120.555 525.465 147.487 588.265 248.805 571.604C350.122 554.943 648.945 537 648.945 537C648.945 537 686.137 401.148 747.697 329.377C809.257 257.606 936.225 175.582 936.225 175.582L1111.93 152.513" stroke="#3D4B67" stroke-width="23" stroke-linejoin="round"/>
<path d="M648.945 537C648.945 537 674.595 649.783 664.335 672.852C654.075 695.921 625.86 717.709 598.928 758.721C571.995 799.733 595.08 843.308 507.87 871.504C420.66 899.699 478.373 1056.06 478.373 1056.06" stroke="#3D4B67" stroke-width="23" stroke-linejoin="round"/>
<path d="M648.945 537C648.945 537 674.595 649.783 664.335 672.852C654.075 695.921 625.86 717.709 598.928 758.721C571.995 799.733 595.08 843.308 507.87 871.504C420.66 899.699 478.373 1056.06 478.373 1056.06" stroke="#293F64" stroke-opacity="0.96" stroke-width="10" stroke-linejoin="round"/>
<path d="M-41.04 442.16C-41.04 442.16 64.125 494.706 92.34 510.086C120.555 525.465 147.487 588.265 248.805 571.604C350.122 554.943 648.945 537 648.945 537C648.945 537 686.137 401.148 747.697 329.377C809.257 257.606 936.225 175.582 936.225 175.582L1111.93 152.513" stroke="#293F64" stroke-opacity="0.96" stroke-width="10" stroke-linejoin="round"/>
<path d="M432.202 1045.8L533.52 970.189L648.945 822.802L719.482 743.341L916.987 602.363L1033.69 521.621" stroke="#3D4B67" stroke-width="23" stroke-linejoin="round"/>
<path d="M432.202 1045.8L533.52 970.189L648.945 822.802L719.482 743.341L916.987 602.363L1033.69 521.621" stroke="#606A98" stroke-width="14" stroke-linejoin="round"/>
<path d="M537.367 -28.1953L591.232 66.6448L824.647 292.21L934.942 389.614L1104.23 552.38" stroke="#2C3347" stroke-width="21" stroke-linecap="round" stroke-linejoin="round"/>
<path d="M159.03 1063.75C159.03 1063.75 171.855 936.867 191.093 902.263C210.33 867.659 307.8 715.146 328.32 658.755C348.84 602.363 342.428 484.454 342.428 416.528C342.428 348.602 337.298 269.141 392.445 214.031C447.593 158.922 587.385 58.9551 587.385 58.9551" stroke="#2C3347" stroke-width="21" stroke-linecap="round" stroke-linejoin="round"/>
<path d="M1070.89 643.375L924.682 1062.47" stroke="#2C3347" stroke-width="21" stroke-linecap="round" stroke-linejoin="round"/>
<path d="M1095.25 965.063L761.805 862.533L637.402 658.755L605.34 610.053L606.622 501.115L734.872 456.258L1090.12 303.745" stroke="#2C3347" stroke-width="21" stroke-linecap="round" stroke-linejoin="round"/>
<path d="M723.33 799.733L600.248 974.956L536.085 1066.31" stroke="#2C3347" stroke-width="21" stroke-linecap="round" stroke-linejoin="round"/>
<path d="M765.28 1064.75L592.207 992.117" stroke="#2C3347" stroke-width="21" stroke-linecap="round" stroke-linejoin="round"/>
<path d="M765.28 1064.75L592.207 992.117" stroke="#48496F" stroke-width="19" stroke-linecap="round" stroke-linejoin="round"/>
<path d="M180.832 -16.6606C180.832 -16.6606 187.245 152.514 171.855 201.215C156.465 249.917 92.3398 365.263 121.837 446.005C151.335 526.747 265.477 563.915 279.585 502.397C293.692 440.879 277.02 337.067 284.715 296.055C292.41 255.043 305.235 82.0243 321.907 58.9551C338.58 35.8859 371.925 3.84532 436.05 -8.97091" stroke="#3D4B67" stroke-width="23" stroke-linejoin="round"/>
<path d="M720.765 -23.0692C724.612 -23.0692 887.49 -32.0405 945.202 33.3222C1002.91 98.685 992.655 129.444 1004.2 157.64C1015.74 185.835 1040.11 208.905 1068.32 223.002" stroke="#3D4B67" stroke-width="23" stroke-linejoin="round"/>
<path d="M180.832 -16.6606C180.832 -16.6606 187.245 152.514 171.855 201.215C156.465 249.917 92.3398 365.263 121.837 446.005C151.335 526.747 265.477 563.915 279.585 502.397C293.692 440.879 277.02 337.067 284.715 296.055C292.41 255.043 305.235 82.0243 321.907 58.9551C338.58 35.8859 371.925 3.84532 436.05 -8.97091" stroke="#606A98" stroke-width="14" stroke-linejoin="round"/>
<path d="M720.765 -23.0692C724.612 -23.0692 887.49 -32.0405 945.202 33.3222C1002.91 98.685 992.655 129.444 1004.2 157.64C1015.74 185.835 1040.11 208.905 1068.32 223.002" stroke="#606A98" stroke-width="14" stroke-linejoin="round"/>
<path d="M537.367 -28.1953L591.232 66.6448L824.647 292.21L934.942 389.614L1104.23 552.38" stroke="#48496F" stroke-width="19" stroke-linecap="round" stroke-linejoin="round"/>
<path d="M159.03 1063.75C159.03 1063.75 171.855 936.867 191.093 902.263C210.33 867.659 307.8 715.146 328.32 658.755C348.84 602.363 342.428 484.454 342.428 416.528C342.428 348.602 337.298 269.141 392.445 214.031C447.593 158.922 587.385 58.9551 587.385 58.9551" stroke="#48496F" stroke-width="19" stroke-linecap="round" stroke-linejoin="round"/>
<path d="M1070.89 643.375L924.682 1062.47" stroke="#48496F" stroke-width="19" stroke-linecap="round" stroke-linejoin="round"/>
<path d="M1095.25 965.063L761.805 862.533L637.402 658.755L605.34 610.053L606.622 501.115L734.872 456.258L1090.12 303.745" stroke="#48496F" stroke-width="19" stroke-linecap="round" stroke-linejoin="round"/>
<path d="M723.33 799.733L600.248 974.956L536.085 1066.31" stroke="#48496F" stroke-width="19" stroke-linecap="round" stroke-linejoin="round"/>
<path d="M1026 0.000488281H0V1074H1026V0.000488281Z" fill="url(#paint0_radial_1189_36808)"/>
<path opacity="0.2" d="M956.745 0.000488281H0V949.683H956.745V0.000488281Z" fill="#151618"/>
<path style="mix-blend-mode:multiply" opacity="0.28" d="M435.845 547.471C435.845 550.752 424.7 553.405 410.939 553.405C397.177 553.405 386.032 550.752 386.032 547.471C386.032 544.19 397.19 541.537 410.951 541.537C424.713 541.537 435.845 544.203 435.845 547.471Z" fill="url(#paint1_radial_1189_36808)"/>
<path d="M500.303 987.747C500.239 987.439 500.188 987.145 500.149 986.837C500.175 987.145 500.239 987.439 500.303 987.747Z" fill="#B5B5B5"/>
<path d="M501.291 990.618L501.214 990.451L501.291 990.618Z" fill="#B5B5B5"/>
<path d="M500.611 988.926C500.773 989.434 500.97 989.931 501.201 990.413C500.972 989.93 500.775 989.434 500.611 988.926Z" fill="#B5B5B5"/>
<g filter="url(#filter0_d_1189_36808)">
<path d="M559 639.694C559 652.779 538.091 680.619 536 680.619C533.909 680.619 513 652.779 513 639.694C513 626.608 523.297 616 536 616C548.703 616 559 626.608 559 639.694Z" fill="#661144"/>
<ellipse cx="536.46" cy="639.055" rx="17.2057" ry="17.3124" fill="#EFDCE8"/>
<rect x="523.992" y="623.041" width="24.088" height="30.7296" rx="4" fill="#EFDCE8"/>
<mask id="mask0_1189_36808" style="mask-type:alpha" maskUnits="userSpaceOnUse" x="515" y="618" width="42" height="42">
<circle cx="535.988" cy="638.998" r="20.8095" fill="white"/>
</mask>
<g mask="url(#mask0_1189_36808)">
<rect x="510.071" y="610.729" width="49.4717" height="49.4717" fill="#EFDCE8"/>
<rect x="494.438" y="618.42" width="87.1579" height="62.1404" fill="#EFDCE8"/>
</g>
</g>
<path fill-rule="evenodd" clip-rule="evenodd" d="M543.609 633.847C543.609 637.647 540.496 640.695 536.609 640.695C532.724 640.695 529.609 637.647 529.609 633.847C529.609 630.046 532.724 627 536.609 627C540.496 627 543.609 630.046 543.609 633.847ZM536.5 652.202C530.807 652.202 526 651.297 526 647.804C526 644.31 530.837 643.437 536.5 643.437C542.194 643.437 547 644.342 547 647.835C547 651.329 542.163 652.202 536.5 652.202Z" fill="url(#paint2_linear_1189_36808)"/>
<g filter="url(#filter1_d_1189_36808)">
<path d="M877 695.694C877 708.779 856.091 736.619 854 736.619C851.909 736.619 831 708.779 831 695.694C831 682.608 841.297 672 854 672C866.703 672 877 682.608 877 695.694Z" fill="#661144"/>
<ellipse cx="854.46" cy="695.055" rx="17.2057" ry="17.3124" fill="#EFDCE8"/>
<rect x="841.992" y="679.041" width="24.088" height="30.7296" rx="4" fill="#EFDCE8"/>
<mask id="mask1_1189_36808" style="mask-type:alpha" maskUnits="userSpaceOnUse" x="833" y="674" width="42" height="42">
<circle cx="853.988" cy="694.998" r="20.8095" fill="white"/>
</mask>
<g mask="url(#mask1_1189_36808)">
<rect x="828.071" y="666.729" width="49.4717" height="49.4717" fill="#EFDCE8"/>
<rect x="812.438" y="674.42" width="87.1579" height="62.1404" fill="#EFDCE8"/>
</g>
</g>
<path fill-rule="evenodd" clip-rule="evenodd" d="M861.609 689.847C861.609 693.647 858.496 696.695 854.609 696.695C850.724 696.695 847.609 693.647 847.609 689.847C847.609 686.046 850.724 683 854.609 683C858.496 683 861.609 686.046 861.609 689.847ZM854.5 708.202C848.807 708.202 844 707.297 844 703.804C844 700.31 848.837 699.437 854.5 699.437C860.194 699.437 865 700.342 865 703.835C865 707.329 860.163 708.202 854.5 708.202Z" fill="url(#paint3_linear_1189_36808)"/>
<g filter="url(#filter2_d_1189_36808)">
<path d="M469 469.176C469 491.365 433.545 538.571 430 538.571C426.455 538.571 391 491.365 391 469.176C391 446.987 408.461 429 430 429C451.539 429 469 446.987 469 469.176Z" fill="#661144"/>
<ellipse cx="430.78" cy="468.094" rx="29.1749" ry="29.3559" fill="#EFDCE8"/>
<rect x="409.639" y="440.938" width="40.8449" height="52.1067" rx="4" fill="#EFDCE8"/>
<mask id="mask2_1189_36808" style="mask-type:alpha" maskUnits="userSpaceOnUse" x="394" y="432" width="72" height="72">
<circle cx="429.979" cy="467.998" r="35.2857" fill="white"/>
</mask>
<g mask="url(#mask2_1189_36808)">
<rect x="386.034" y="420.062" width="83.8868" height="83.8868" fill="#EFDCE8"/>
<rect x="359.526" y="433.104" width="147.789" height="105.368" fill="#EFDCE8"/>
</g>
</g>
<path fill-rule="evenodd" clip-rule="evenodd" d="M442.903 459.262C442.903 465.706 437.623 470.874 431.033 470.874C424.446 470.874 419.164 465.706 419.164 459.262C419.164 452.817 424.446 447.652 431.033 447.652C437.623 447.652 442.903 452.817 442.903 459.262ZM430.848 490.386C421.194 490.386 413.043 488.851 413.043 482.929C413.043 477.004 421.245 475.524 430.848 475.524C440.504 475.524 448.652 477.059 448.652 482.981C448.652 488.905 440.45 490.386 430.848 490.386Z" fill="url(#paint4_linear_1189_36808)"/>
<g filter="url(#filter3_d_1189_36808)">
<path d="M500 94.6937C500 107.779 479.091 135.619 477 135.619C474.909 135.619 454 107.779 454 94.6937C454 81.608 464.297 71 477 71C489.703 71 500 81.608 500 94.6937Z" fill="#661144"/>
<ellipse cx="477.46" cy="94.0551" rx="17.2057" ry="17.3124" fill="#EFDCE8"/>
<rect x="464.992" y="78.041" width="24.088" height="30.7296" rx="4" fill="#EFDCE8"/>
<mask id="mask3_1189_36808" style="mask-type:alpha" maskUnits="userSpaceOnUse" x="456" y="73" width="42" height="42">
<circle cx="476.988" cy="93.9985" r="20.8095" fill="white"/>
</mask>
<g mask="url(#mask3_1189_36808)">
<rect x="451.071" y="65.729" width="49.4717" height="49.4717" fill="#EFDCE8"/>
<rect x="435.438" y="73.4199" width="87.1579" height="62.1404" fill="#EFDCE8"/>
</g>
</g>
<path fill-rule="evenodd" clip-rule="evenodd" d="M484.609 88.8466C484.609 92.6472 481.496 95.6946 477.609 95.6946C473.724 95.6946 470.609 92.6472 470.609 88.8466C470.609 85.0461 473.724 82 477.609 82C481.496 82 484.609 85.0461 484.609 88.8466ZM477.5 107.202C471.807 107.202 467 106.297 467 102.804C467 99.3102 471.837 98.437 477.5 98.437C483.194 98.437 488 99.3423 488 102.835C488 106.329 483.163 107.202 477.5 107.202Z" fill="url(#paint5_linear_1189_36808)"/>
<g filter="url(#filter4_d_1189_36808)">
<path d="M786 512.267C786 536.162 747.818 587 744 587C740.182 587 702 536.162 702 512.267C702 488.371 720.804 469 744 469C767.196 469 786 488.371 786 512.267Z" fill="#1F4AA0"/>
<ellipse cx="744.84" cy="511.101" rx="31.4192" ry="31.614" fill="white"/>
<rect x="722.073" y="481.857" width="43.9868" height="56.1149" rx="4" fill="white"/>
<mask id="mask4_1189_36808" style="mask-type:alpha" maskUnits="userSpaceOnUse" x="705" y="472" width="77" height="77">
<circle cx="743.978" cy="510.998" r="38" fill="white"/>
</mask>
<g mask="url(#mask4_1189_36808)">
<rect x="696.652" y="459.375" width="90.3396" height="90.3396" fill="white"/>
<rect x="665.158" y="464.577" width="250.526" height="191.579" fill="#CBD8F2"/>
</g>
</g>
<path fill-rule="evenodd" clip-rule="evenodd" d="M756.982 500.49C756.982 507.43 751.296 512.995 744.2 512.995C737.105 512.995 731.417 507.43 731.417 500.49C731.417 493.55 737.105 487.987 744.2 487.987C751.296 487.987 756.982 493.55 756.982 500.49ZM744 534.009C733.604 534.009 724.826 532.356 724.826 525.978C724.826 519.598 733.659 518.003 744 518.003C754.398 518.003 763.174 519.656 763.174 526.034C763.174 532.414 754.341 534.009 744 534.009Z" fill="url(#paint6_linear_1189_36808)"/>
<g filter="url(#filter5_d_1189_36808)">
<path d="M378 694.694C378 707.779 357.091 735.619 355 735.619C352.909 735.619 332 707.779 332 694.694C332 681.608 342.297 671 355 671C367.703 671 378 681.608 378 694.694Z" fill="#1F4AA0"/>
<ellipse cx="355.46" cy="694.055" rx="17.2057" ry="17.3124" fill="white"/>
<rect x="342.992" y="678.041" width="24.088" height="30.7296" rx="4" fill="white"/>
<mask id="mask5_1189_36808" style="mask-type:alpha" maskUnits="userSpaceOnUse" x="334" y="673" width="42" height="42">
<circle cx="354.988" cy="693.998" r="20.8095" fill="white"/>
</mask>
<g mask="url(#mask5_1189_36808)">
<rect x="329.071" y="665.729" width="49.4717" height="49.4717" fill="white"/>
<rect x="311.824" y="668.578" width="137.193" height="104.912" fill="#CBD8F2"/>
</g>
</g>
<path fill-rule="evenodd" clip-rule="evenodd" d="M362.109 688.245C362.109 692.045 358.996 695.093 355.109 695.093C351.224 695.093 348.109 692.045 348.109 688.245C348.109 684.444 351.224 681.398 355.109 681.398C358.996 681.398 362.109 684.444 362.109 688.245ZM355 706.6C349.307 706.6 344.5 705.695 344.5 702.202C344.5 698.708 349.337 697.835 355 697.835C360.694 697.835 365.5 698.74 365.5 702.233C365.5 705.727 360.663 706.6 355 706.6Z" fill="url(#paint7_linear_1189_36808)"/>
<circle cx="620.5" cy="286.5" r="34" fill="#69653F" stroke="#69653F"/>
<path d="M640.865 280.428L639.422 282.151C639.176 282.491 638.807 282.723 638.392 282.797C637.978 282.871 637.551 282.782 637.201 282.549L636.224 281.842L630.317 277.07L621.435 270.443C621.335 270.338 621.215 270.253 621.081 270.196C620.947 270.138 620.803 270.108 620.657 270.108C620.512 270.108 620.368 270.138 620.234 270.196C620.1 270.253 619.98 270.338 619.88 270.443L610.998 277.07L604.558 281.93L603.892 282.372C603.558 282.61 603.148 282.719 602.739 282.679C602.331 282.638 601.951 282.45 601.671 282.151L600.117 280.163C599.877 279.831 599.767 279.423 599.808 279.017C599.849 278.61 600.038 278.232 600.339 277.954L619.658 263.374C619.758 263.269 619.878 263.184 620.012 263.127C620.146 263.069 620.29 263.04 620.435 263.04C620.581 263.04 620.725 263.069 620.859 263.127C620.992 263.184 621.113 263.269 621.213 263.374L640.421 278.064C640.616 278.182 640.784 278.339 640.914 278.526C641.044 278.712 641.133 278.924 641.175 279.147C641.216 279.37 641.211 279.6 641.157 279.821C641.104 280.041 641.004 280.248 640.865 280.428Z" fill="white" stroke="#69653F" stroke-width="0.3" stroke-miterlimit="10"/>
<path d="M636.295 281.915V302.238C636.295 302.824 636.061 303.386 635.644 303.8C635.228 304.214 634.663 304.447 634.074 304.447H606.76C606.171 304.447 605.607 304.214 605.19 303.8C604.774 303.386 604.54 302.824 604.54 302.238V281.915L610.98 277.055L619.862 270.428C619.962 270.322 620.082 270.238 620.216 270.181C620.35 270.123 620.494 270.093 620.639 270.093C620.785 270.093 620.929 270.123 621.063 270.181C621.196 270.238 621.317 270.322 621.417 270.428L630.299 277.055L636.295 281.915Z" fill="white" stroke="#69653F" stroke-width="0.3" stroke-miterlimit="10"/>
<path d="M627.438 297.25C627.438 301.182 624.463 297.758 620.532 297.758C616.602 297.758 613.604 301.182 613.604 297.25C613.56 296.331 613.709 295.414 614.041 294.555C614.373 293.697 614.881 292.917 615.533 292.264C616.184 291.612 616.965 291.101 617.826 290.766C618.687 290.43 619.609 290.276 620.532 290.314C621.454 290.279 622.373 290.435 623.232 290.772C624.09 291.11 624.868 291.62 625.517 292.273C626.167 292.925 626.673 293.704 627.003 294.561C627.334 295.417 627.482 296.333 627.438 297.25Z" fill="#69653F" stroke="#69653F" stroke-width="0.3" stroke-miterlimit="10"/>
<path d="M620.539 287.457C621.9 287.457 623.004 285.914 623.004 284.011C623.004 282.107 621.9 280.564 620.539 280.564C619.178 280.564 618.074 282.107 618.074 284.011C618.074 285.914 619.178 287.457 620.539 287.457Z" fill="#69653F" stroke="#69653F" stroke-width="0.3" stroke-miterlimit="10"/>
<path d="M630.691 287.774C631.366 285.993 630.88 284.162 629.606 283.684C628.332 283.207 626.753 284.263 626.078 286.044C625.403 287.825 625.889 289.656 627.163 290.134C628.437 290.611 630.016 289.555 630.691 287.774Z" fill="#69653F" stroke="#69653F" stroke-width="0.3" stroke-miterlimit="10"/>
<path d="M613.889 289.759C615.163 289.282 615.648 287.451 614.974 285.67C614.299 283.889 612.719 282.833 611.445 283.31C610.172 283.788 609.686 285.619 610.361 287.399C611.035 289.18 612.615 290.237 613.889 289.759Z" fill="#69653F" stroke="#69653F" stroke-width="0.3" stroke-miterlimit="10"/>
<circle cx="419" cy="256" r="20.5" fill="#D9753D" stroke="#D9753D"/>
<path d="M429.495 265.791H418.396C418.103 265.18 417.95 264.506 417.95 263.824C417.95 263.141 418.103 262.468 418.396 261.857H429.495C429.806 262.463 429.969 263.138 429.969 263.824C429.969 264.51 429.806 265.185 429.495 265.791Z" fill="white" stroke="#D9753D" stroke-width="0.3" stroke-miterlimit="10"/>
<path d="M419.175 261.842C419.466 260.931 419.769 259.962 419.719 259.004C419.719 258.053 419.141 255.379 419.099 255.158C418.231 255.123 417.381 254.888 416.612 254.471C415.843 254.055 415.173 253.467 414.65 252.749C413.911 251.411 413.647 249.848 413.902 248.33C413.93 247.147 414.362 246.012 415.121 245.127C415.88 244.241 416.918 243.661 418.051 243.49C421.9 242.849 422.67 245.832 422.67 245.832C423.923 245.277 425.218 244.826 426.54 244.484C427.973 244.301 429.427 244.414 430.817 244.816C435.8 246.252 435.886 251.18 433.213 253.39C431.86 254.228 430.427 254.917 428.936 255.446C428.798 256.28 428.706 257.121 428.658 257.965C428.553 259.305 428.395 260.531 428.683 261.842H419.175Z" fill="white" stroke="#D9753D" stroke-width="0.3" stroke-miterlimit="10"/>
<g clip-path="url(#clip1_1189_36808)">
<path d="M413.14 248.426C413.717 249.133 414.205 249.908 414.591 250.734C415.197 252.233 415.648 253.789 415.937 255.38C415.989 255.907 415.858 256.437 415.565 256.879C415.269 257.319 414.834 257.646 414.329 257.809L414.942 260.833L415.256 262.375L416.86 270.307L415.558 270.596L413.809 261.907L413.494 260.365L413.04 258.099C412.511 258.148 411.981 258.012 411.541 257.714C411.1 257.424 410.774 256.989 410.618 256.485C410.258 254.907 410.088 253.292 410.11 251.673C410.18 250.774 410.302 249.88 410.476 248.995L411.513 254.124L412.19 253.988C411.348 251.777 411.693 248.058 411.693 248.058C412.741 249.773 413.37 251.71 413.532 253.714L414.202 253.583L413.14 248.426Z" fill="white" stroke="#D9753D" stroke-width="0.3" stroke-linejoin="round"/>
<path d="M413.463 260.343L413.777 261.885L412.214 261.358L411.097 262.817C409.948 262.585 408.821 262.254 407.73 261.826C406.202 261.168 402.668 258.916 401.997 256.504L413.463 260.343Z" fill="white" stroke="#D9753D" stroke-width="0.3" stroke-linejoin="round"/>
<path d="M423.293 263.644L422.862 264.934L415.256 262.375L414.942 260.833L423.293 263.644Z" fill="white" stroke="#D9753D" stroke-width="0.3" stroke-linejoin="round"/>
</g>
<circle cx="663.5" cy="697.5" r="34" fill="#D9753D" stroke="#D9753D"/>
<path d="M680.742 713.585H662.508C662.026 712.581 661.774 711.475 661.774 710.353C661.774 709.232 662.026 708.126 662.508 707.122H680.742C681.253 708.117 681.52 709.227 681.52 710.353C681.52 711.48 681.253 712.589 680.742 713.585Z" fill="white" stroke="#D9753D" stroke-width="0.3" stroke-miterlimit="10"/>
<path d="M663.788 707.098C664.266 705.601 664.764 704.009 664.681 702.434C664.681 700.873 663.732 696.48 663.662 696.117C662.236 696.058 660.841 695.673 659.577 694.988C658.313 694.304 657.212 693.338 656.354 692.16C655.14 689.96 654.705 687.393 655.125 684.898C655.171 682.955 655.881 681.092 657.128 679.637C658.375 678.182 660.08 677.229 661.94 676.947C668.264 675.894 669.529 680.796 669.529 680.796C671.588 679.884 673.715 679.143 675.888 678.581C678.242 678.28 680.63 678.465 682.914 679.125C691.1 681.485 691.241 689.582 686.849 693.213C684.627 694.588 682.272 695.72 679.823 696.589C679.597 697.959 679.445 699.341 679.366 700.728C679.195 702.93 678.934 704.944 679.408 707.098H663.788Z" fill="white" stroke="#D9753D" stroke-width="0.3" stroke-miterlimit="10"/>
<g clip-path="url(#clip2_1189_36808)">
<path d="M653.872 685.057C654.821 686.218 655.622 687.492 656.257 688.849C657.252 691.311 657.993 693.868 658.468 696.481C658.553 697.348 658.338 698.218 657.857 698.945C657.371 699.667 656.655 700.204 655.826 700.471L656.833 705.439L657.349 707.973L659.985 721.004L657.845 721.48L654.971 707.205L654.455 704.671L653.708 700.948C652.839 701.028 651.969 700.805 651.246 700.316C650.522 699.839 649.986 699.125 649.73 698.297C649.138 695.704 648.858 693.051 648.895 690.392C649.01 688.915 649.211 687.446 649.496 685.992L651.2 694.418L652.313 694.194C650.929 690.562 651.495 684.452 651.495 684.452C653.217 687.27 654.251 690.453 654.516 693.744L655.617 693.53L653.872 685.057Z" fill="white" stroke="#D9753D" stroke-width="0.3" stroke-linejoin="round"/>
<path d="M654.403 704.636L654.919 707.169L652.352 706.302L650.517 708.7C648.629 708.319 646.778 707.774 644.984 707.072C642.474 705.991 636.668 702.29 635.566 698.328L654.403 704.636Z" fill="white" stroke="#D9753D" stroke-width="0.3" stroke-linejoin="round"/>
<path d="M670.553 710.058L669.845 712.178L657.349 707.973L656.833 705.44L670.553 710.058Z" fill="white" stroke="#D9753D" stroke-width="0.3" stroke-linejoin="round"/>
</g>
<circle cx="762" cy="356" r="20.5" fill="#CB426B" stroke="#CB426B"/>
<path d="M769.542 349.267C770.841 349.267 771.894 348.213 771.894 346.913C771.894 345.613 770.841 344.56 769.542 344.56C768.243 344.56 767.19 345.613 767.19 346.913C767.19 348.213 768.243 349.267 769.542 349.267Z" fill="white" stroke="#CB426B" stroke-width="0.3" stroke-miterlimit="10"/>
<path d="M773.154 352.466H772.75C773.528 357.396 772.594 359.529 772.536 359.735L773.029 361.258L772.971 361.391C772.774 361.79 772.463 362.124 772.077 362.353C772.012 362.389 771.938 362.426 771.863 362.459C771.609 362.566 771.337 362.627 771.061 362.639C771.061 362.639 768.926 362.695 768.219 362.639C767.961 362.608 767.711 362.535 767.478 362.423C767.3 362.347 767.13 362.255 766.968 362.15C766.648 361.937 766.359 361.68 766.112 361.388C766.073 361.348 766.039 361.308 766.01 361.268L766.459 359.735C766.459 359.735 765.626 357.932 766.244 352.516H765.867C765.867 352.516 765.867 351.741 765.894 350.853C765.922 350.221 766.52 349.888 766.737 349.755C767.093 349.576 767.463 349.426 767.845 349.31C767.845 349.31 769.402 351.565 771.18 349.31C771.421 349.379 773.073 349.882 773.141 350.866C773.154 351.315 773.154 352.466 773.154 352.466Z" fill="white" stroke="#CB426B" stroke-width="0.3" stroke-miterlimit="10"/>
<path d="M767.739 351.555C767.726 352.745 767.64 353.934 767.481 355.114C767.389 355.813 767.284 356.398 767.199 356.821C767.007 357.852 766.75 358.871 766.427 359.871" stroke="#CB426B" stroke-width="0.3" stroke-miterlimit="10"/>
<path d="M771.262 351.555C771.273 352.744 771.358 353.932 771.517 355.111C771.613 355.809 771.718 356.395 771.799 356.821C771.994 357.852 772.253 358.871 772.574 359.871" stroke="#CB426B" stroke-width="0.3" stroke-miterlimit="10"/>
<path d="M772.137 362.331C772.167 365.75 769.605 370.101 769.605 370.101C769.605 370.101 766.936 365.637 766.93 362.118C767.09 362.23 767.261 362.328 767.44 362.41C767.687 362.53 767.954 362.609 768.228 362.643C768.935 362.7 771.012 362.643 771.012 362.643C771.287 362.64 771.559 362.586 771.814 362.484C771.872 362.447 772.055 362.367 772.137 362.331Z" fill="white" stroke="#CB426B" stroke-width="0.3" stroke-miterlimit="10"/>
<path d="M769.577 370.015V362.624" stroke="#CB426B" stroke-width="0.3" stroke-miterlimit="10"/>
<path d="M763.069 353.732C764.072 353.732 764.885 352.919 764.885 351.916C764.885 350.913 764.072 350.1 763.069 350.1C762.067 350.1 761.254 350.913 761.254 351.916C761.254 352.919 762.067 353.732 763.069 353.732Z" fill="white" stroke="#CB426B" stroke-width="0.3" stroke-miterlimit="10"/>
<path d="M765.868 356.203H765.556C766.157 360.009 765.435 361.655 765.391 361.814L765.771 362.99L765.726 363.093C765.574 363.401 765.335 363.658 765.036 363.835C764.986 363.864 764.929 363.892 764.871 363.918C764.675 364 764.465 364.047 764.252 364.056C764.252 364.056 762.604 364.1 762.058 364.056C761.859 364.033 761.666 363.976 761.486 363.889C761.349 363.831 761.217 363.76 761.092 363.679C760.845 363.514 760.622 363.316 760.431 363.091C760.401 363.06 760.375 363.029 760.352 362.998L760.699 361.814C760.699 361.814 760.056 360.422 760.533 356.241H760.242C760.242 356.241 760.242 355.643 760.263 354.957C760.284 354.469 760.746 354.212 760.914 354.11C761.188 353.971 761.475 353.856 761.769 353.766C761.769 353.766 762.971 355.507 764.344 353.766C764.53 353.82 765.805 354.207 765.858 354.968C765.868 355.314 765.868 356.203 765.868 356.203Z" fill="white" stroke="#CB426B" stroke-width="0.3" stroke-miterlimit="10"/>
<path d="M761.694 355.505C761.684 356.424 761.617 357.342 761.494 358.253C761.424 358.793 761.342 359.245 761.277 359.571C761.129 360.367 760.93 361.154 760.681 361.926" stroke="#CB426B" stroke-width="0.3" stroke-miterlimit="10"/>
<path d="M764.416 355.505C764.424 356.424 764.49 357.34 764.613 358.251C764.686 358.79 764.767 359.242 764.83 359.571C764.981 360.367 765.18 361.153 765.429 361.926" stroke="#CB426B" stroke-width="0.3" stroke-miterlimit="10"/>
<path d="M765.083 363.817C765.106 366.457 763.128 369.816 763.128 369.816C763.128 369.816 761.068 366.37 761.063 363.653C761.187 363.739 761.319 363.815 761.456 363.879C761.648 363.971 761.853 364.032 762.065 364.059C762.611 364.102 764.214 364.059 764.214 364.059C764.427 364.056 764.637 364.014 764.833 363.935C764.878 363.907 765.02 363.845 765.083 363.817Z" fill="white" stroke="#CB426B" stroke-width="0.3" stroke-miterlimit="10"/>
<path d="M763.105 369.749V364.043" stroke="#CB426B" stroke-width="0.3" stroke-miterlimit="10"/>
<path d="M755.212 348.287C756.561 348.287 757.655 347.193 757.655 345.843C757.655 344.493 756.561 343.399 755.212 343.399C753.863 343.399 752.769 344.493 752.769 345.843C752.769 347.193 753.863 348.287 755.212 348.287Z" fill="white" stroke="#CB426B" stroke-width="0.3" stroke-miterlimit="10"/>
<path d="M760.372 351.445V356.845C760.373 357.417 760.167 357.97 759.79 358.404C759.414 358.838 758.893 359.125 758.322 359.211C758.528 363.122 757.481 366.998 755.331 370.285C755.331 370.285 752.051 366.619 752.143 359.207C751.578 359.116 751.064 358.828 750.693 358.395C750.323 357.962 750.12 357.412 750.122 356.845V351.445C750.122 350.646 750.443 349.879 751.014 349.313C751.585 348.747 752.359 348.43 753.167 348.43H757.345C758.15 348.433 758.921 348.753 759.488 349.318C760.055 349.883 760.373 350.648 760.372 351.445Z" fill="white" stroke="#CB426B" stroke-width="0.3" stroke-miterlimit="10"/>
<path d="M752.139 359.204V351.459" stroke="#CB426B" stroke-width="0.3" stroke-miterlimit="10"/>
<path d="M758.323 359.207V351.459" stroke="#CB426B" stroke-width="0.3" stroke-miterlimit="10"/>
<path d="M755.333 370.281V359.656" stroke="#CB426B" stroke-width="0.3" stroke-miterlimit="10"/>
<circle cx="275" cy="566" r="20.5" fill="#CB426B" stroke="#CB426B"/>
<path d="M282.542 559.267C283.841 559.267 284.894 558.213 284.894 556.913C284.894 555.613 283.841 554.56 282.542 554.56C281.243 554.56 280.19 555.613 280.19 556.913C280.19 558.213 281.243 559.267 282.542 559.267Z" fill="white" stroke="#CB426B" stroke-width="0.3" stroke-miterlimit="10"/>
<path d="M286.154 562.466H285.75C286.528 567.396 285.594 569.529 285.536 569.735L286.029 571.258L285.971 571.391C285.774 571.79 285.463 572.124 285.077 572.353C285.012 572.389 284.938 572.426 284.863 572.459C284.609 572.566 284.337 572.627 284.061 572.639C284.061 572.639 281.926 572.695 281.219 572.639C280.961 572.608 280.711 572.535 280.478 572.423C280.3 572.347 280.13 572.255 279.968 572.15C279.648 571.937 279.359 571.68 279.112 571.388C279.073 571.348 279.039 571.308 279.01 571.268L279.459 569.735C279.459 569.735 278.626 567.932 279.244 562.516H278.867C278.867 562.516 278.867 561.741 278.894 560.853C278.922 560.221 279.52 559.888 279.737 559.755C280.093 559.576 280.463 559.426 280.845 559.31C280.845 559.31 282.402 561.565 284.18 559.31C284.421 559.379 286.073 559.882 286.141 560.866C286.154 561.315 286.154 562.466 286.154 562.466Z" fill="white" stroke="#CB426B" stroke-width="0.3" stroke-miterlimit="10"/>
<path d="M280.739 561.555C280.726 562.745 280.64 563.934 280.481 565.114C280.389 565.813 280.284 566.398 280.199 566.821C280.007 567.852 279.75 568.871 279.427 569.871" stroke="#CB426B" stroke-width="0.3" stroke-miterlimit="10"/>
<path d="M284.262 561.555C284.273 562.744 284.358 563.932 284.517 565.111C284.613 565.809 284.718 566.395 284.799 566.821C284.994 567.852 285.253 568.871 285.574 569.871" stroke="#CB426B" stroke-width="0.3" stroke-miterlimit="10"/>
<path d="M285.137 572.331C285.167 575.75 282.605 580.101 282.605 580.101C282.605 580.101 279.936 575.637 279.93 572.118C280.09 572.23 280.261 572.328 280.44 572.41C280.687 572.53 280.954 572.609 281.228 572.643C281.935 572.7 284.012 572.643 284.012 572.643C284.287 572.64 284.559 572.586 284.814 572.484C284.872 572.447 285.055 572.367 285.137 572.331Z" fill="white" stroke="#CB426B" stroke-width="0.3" stroke-miterlimit="10"/>
<path d="M282.577 580.015V572.624" stroke="#CB426B" stroke-width="0.3" stroke-miterlimit="10"/>
<path d="M276.069 563.732C277.072 563.732 277.885 562.919 277.885 561.916C277.885 560.913 277.072 560.1 276.069 560.1C275.067 560.1 274.254 560.913 274.254 561.916C274.254 562.919 275.067 563.732 276.069 563.732Z" fill="white" stroke="#CB426B" stroke-width="0.3" stroke-miterlimit="10"/>
<path d="M278.868 566.203H278.556C279.157 570.009 278.435 571.655 278.391 571.814L278.771 572.99L278.726 573.093C278.574 573.401 278.335 573.658 278.036 573.835C277.986 573.864 277.929 573.892 277.871 573.918C277.675 574 277.465 574.047 277.252 574.056C277.252 574.056 275.604 574.1 275.058 574.056C274.859 574.033 274.666 573.976 274.486 573.889C274.349 573.831 274.217 573.76 274.092 573.679C273.845 573.514 273.622 573.316 273.431 573.091C273.401 573.06 273.375 573.029 273.352 572.998L273.699 571.814C273.699 571.814 273.056 570.422 273.533 566.241H273.242C273.242 566.241 273.242 565.643 273.263 564.957C273.284 564.469 273.746 564.212 273.914 564.11C274.188 563.971 274.475 563.856 274.769 563.766C274.769 563.766 275.971 565.507 277.344 563.766C277.53 563.82 278.805 564.207 278.858 564.968C278.868 565.314 278.868 566.203 278.868 566.203Z" fill="white" stroke="#CB426B" stroke-width="0.3" stroke-miterlimit="10"/>
<path d="M274.694 565.505C274.684 566.424 274.617 567.342 274.494 568.253C274.424 568.793 274.342 569.245 274.277 569.571C274.129 570.367 273.93 571.154 273.681 571.926" stroke="#CB426B" stroke-width="0.3" stroke-miterlimit="10"/>
<path d="M277.416 565.505C277.424 566.424 277.49 567.34 277.613 568.251C277.686 568.79 277.767 569.242 277.83 569.571C277.981 570.367 278.18 571.153 278.429 571.926" stroke="#CB426B" stroke-width="0.3" stroke-miterlimit="10"/>
<path d="M278.083 573.817C278.106 576.457 276.128 579.816 276.128 579.816C276.128 579.816 274.068 576.37 274.063 573.653C274.187 573.739 274.319 573.815 274.456 573.879C274.648 573.971 274.853 574.032 275.065 574.059C275.611 574.102 277.214 574.059 277.214 574.059C277.427 574.056 277.637 574.014 277.833 573.935C277.878 573.907 278.02 573.845 278.083 573.817Z" fill="white" stroke="#CB426B" stroke-width="0.3" stroke-miterlimit="10"/>
<path d="M276.105 579.749V574.043" stroke="#CB426B" stroke-width="0.3" stroke-miterlimit="10"/>
<path d="M268.212 558.287C269.561 558.287 270.655 557.193 270.655 555.843C270.655 554.493 269.561 553.399 268.212 553.399C266.863 553.399 265.769 554.493 265.769 555.843C265.769 557.193 266.863 558.287 268.212 558.287Z" fill="white" stroke="#CB426B" stroke-width="0.3" stroke-miterlimit="10"/>
<path d="M273.372 561.445V566.845C273.373 567.417 273.167 567.97 272.79 568.404C272.414 568.838 271.893 569.125 271.322 569.211C271.528 573.122 270.481 576.998 268.331 580.285C268.331 580.285 265.051 576.619 265.143 569.207C264.578 569.116 264.064 568.828 263.693 568.395C263.323 567.962 263.12 567.412 263.122 566.845V561.445C263.122 560.646 263.443 559.879 264.014 559.313C264.585 558.747 265.359 558.43 266.167 558.43H270.345C271.15 558.433 271.921 558.753 272.488 559.318C273.055 559.883 273.373 560.648 273.372 561.445Z" fill="white" stroke="#CB426B" stroke-width="0.3" stroke-miterlimit="10"/>
<path d="M265.139 569.204V561.459" stroke="#CB426B" stroke-width="0.3" stroke-miterlimit="10"/>
<path d="M271.323 569.207V561.459" stroke="#CB426B" stroke-width="0.3" stroke-miterlimit="10"/>
<path d="M268.333 580.281V569.656" stroke="#CB426B" stroke-width="0.3" stroke-miterlimit="10"/>
<circle cx="200" cy="234" r="20.5" fill="#222B48" stroke="#222B48"/>
<path d="M194.584 218.04L190.76 248.358H209.807L205.374 218.04H194.584Z" fill="white" stroke="#222B48" stroke-width="0.3" stroke-miterlimit="10"/>
<path d="M200.224 230.737C202.174 230.737 203.756 229.135 203.756 227.16C203.756 225.184 202.174 223.583 200.224 223.583C198.273 223.583 196.692 225.184 196.692 227.16C196.692 229.135 198.273 230.737 200.224 230.737Z" fill="white" stroke="#222B48" stroke-width="0.3" stroke-miterlimit="10"/>
<path d="M200.239 229.738C201.644 229.738 202.784 228.584 202.784 227.16C202.784 225.737 201.644 224.583 200.239 224.583C198.833 224.583 197.693 225.737 197.693 227.16C197.693 228.584 198.833 229.738 200.239 229.738Z" fill="#222B48" stroke="white" stroke-width="0.3" stroke-miterlimit="10"/>
<path d="M202.35 221.627H197.71L196.748 219.875H203.3L202.35 221.627Z" stroke="#222B48" stroke-width="0.3" stroke-miterlimit="10"/>
<path d="M200.227 245.686C200.812 245.686 201.286 245.205 201.286 244.613C201.286 244.02 200.812 243.54 200.227 243.54C199.642 243.54 199.167 244.02 199.167 244.613C199.167 245.205 199.642 245.686 200.227 245.686Z" fill="#222B48" stroke="#222B48" stroke-width="0.3" stroke-miterlimit="10"/>
<path d="M200.233 242.673C203.078 242.673 205.385 240.337 205.385 237.456C205.385 234.574 203.078 232.238 200.233 232.238C197.388 232.238 195.082 234.574 195.082 237.456C195.082 240.337 197.388 242.673 200.233 242.673Z" fill="white" stroke="#222B48" stroke-width="0.3" stroke-miterlimit="10"/>
<path d="M200.22 241.217C202.271 241.217 203.935 239.533 203.935 237.455C203.935 235.378 202.271 233.693 200.22 233.693C198.169 233.693 196.506 235.378 196.506 237.455C196.506 239.533 198.169 241.217 200.22 241.217Z" fill="#222B48" stroke="white" stroke-width="0.3" stroke-miterlimit="10"/>
<circle cx="954" cy="553" r="20.5" fill="#2C3347" stroke="#2C3347"/>
<path d="M954 565.599C960.959 565.599 966.6 559.958 966.6 552.999C966.6 546.041 960.959 540.399 954 540.399C947.041 540.399 941.4 546.041 941.4 552.999C941.4 559.958 947.041 565.599 954 565.599Z" fill="white" stroke="#2C3347" stroke-width="0.3" stroke-miterlimit="10"/>
<path d="M954.02 553.266C955.278 551.712 956.405 550.057 957.39 548.317C958.49 546.342 959.432 544.282 960.205 542.156" fill="white"/>
<path d="M954.02 553.266C955.278 551.712 956.405 550.057 957.39 548.317C958.49 546.342 959.432 544.282 960.205 542.156" stroke="#2C3347" stroke-width="0.3" stroke-miterlimit="10"/>
<path d="M954.228 553.119C952.273 552.694 950.286 552.429 948.289 552.326C946.031 552.225 943.77 552.302 941.525 552.556" fill="white"/>
<path d="M954.228 553.119C952.273 552.694 950.286 552.429 948.289 552.326C946.031 552.225 943.77 552.302 941.525 552.556" stroke="#2C3347" stroke-width="0.3" stroke-miterlimit="10"/>
<path d="M954.069 553.054C954.948 554.849 955.972 556.57 957.13 558.2C958.457 560.028 959.923 561.751 961.515 563.354" fill="white"/>
<path d="M954.069 553.054C954.948 554.849 955.972 556.57 957.13 558.2C958.457 560.028 959.923 561.751 961.515 563.354" stroke="#2C3347" stroke-width="0.3" stroke-miterlimit="10"/>
<path d="M957.242 558.357C958.631 556.552 959.865 554.631 960.929 552.616C962.121 550.304 963.131 547.902 963.95 545.432" fill="white"/>
<path d="M957.242 558.357C958.631 556.552 959.865 554.631 960.929 552.616C962.121 550.304 963.131 547.902 963.95 545.432" stroke="#2C3347" stroke-width="0.3" stroke-miterlimit="10"/>
<path d="M957.749 547.709C955.446 547.224 953.107 546.927 950.755 546.821C948.091 546.724 945.424 546.838 942.778 547.161" fill="white"/>
<path d="M957.749 547.709C955.446 547.224 953.107 546.927 950.755 546.821C948.091 546.724 945.424 546.838 942.778 547.161" stroke="#2C3347" stroke-width="0.3" stroke-miterlimit="10"/>
<path d="M947.503 552.177C948.542 554.45 949.759 556.637 951.143 558.719C952.708 561.035 954.452 563.225 956.36 565.268" fill="white"/>
<path d="M947.503 552.177C948.542 554.45 949.759 556.637 951.143 558.719C952.708 561.035 954.452 563.225 956.36 565.268" stroke="#2C3347" stroke-width="0.3" stroke-miterlimit="10"/>
<circle cx="592" cy="467" r="20.5" fill="#3F3D9E" stroke="#3F3D9E"/>
<path d="M604.6 461.136V474.202C604.6 474.926 604.327 475.62 603.842 476.133C603.357 476.645 602.698 476.933 602.011 476.934H581.993C581.652 476.934 581.315 476.864 581.001 476.726C580.686 476.589 580.4 476.388 580.159 476.134C579.919 475.88 579.728 475.579 579.597 475.248C579.467 474.916 579.4 474.561 579.4 474.202V461.136C579.4 460.411 579.673 459.716 580.159 459.204C580.646 458.691 581.305 458.403 581.993 458.403H602.011C602.698 458.405 603.357 458.693 603.842 459.205C604.327 459.718 604.6 460.412 604.6 461.136Z" fill="white" stroke="#3F3D9E" stroke-width="0.3" stroke-miterlimit="10"/>
<path d="M596.629 457.12V460.923H587.349V457.111C587.349 456.838 587.452 456.576 587.635 456.383C587.819 456.19 588.067 456.081 588.327 456.081H595.655C595.784 456.081 595.912 456.108 596.031 456.16C596.15 456.213 596.258 456.29 596.348 456.386C596.439 456.483 596.51 456.598 596.558 456.724C596.607 456.85 596.631 456.984 596.629 457.12V457.12Z" stroke="white" stroke-width="0.4" stroke-miterlimit="10"/>
<path d="M579.486 462.51L591.942 466.68L604.499 462.51" stroke="#3F3D9E" stroke-width="0.3" stroke-miterlimit="10"/>
<path d="M593.227 465.381H590.778C590.515 465.381 590.302 465.605 590.302 465.883V469.484C590.302 469.761 590.515 469.986 590.778 469.986H593.227C593.49 469.986 593.703 469.761 593.703 469.484V465.883C593.703 465.605 593.49 465.381 593.227 465.381Z" fill="#3F3D9E" stroke="white" stroke-width="0.3" stroke-miterlimit="10"/>
<circle cx="167" cy="686" r="33.5" fill="#1C4188" stroke="#1C4188"/>
<path d="M183.993 693.661C170.842 698.78 158.295 695.281 153.719 693.661C153.202 693.468 152.767 693.105 152.484 692.632C152.201 692.158 152.088 691.603 152.163 691.056L153.212 680.784L168.701 686.529L184.451 680.7L185.514 691.092C185.582 691.628 185.469 692.172 185.194 692.637C184.918 693.102 184.496 693.463 183.993 693.661Z" fill="white" stroke="#1C4188" stroke-width="0.3" stroke-miterlimit="10"/>
<path d="M168.691 668.322L193.291 677.432L184.441 680.713L168.691 686.543L153.202 680.798L151.751 680.263C150.948 681.462 150.267 682.738 149.717 684.072C149.203 685.728 148.965 687.457 149.012 689.19C149.541 689.49 149.98 689.926 150.284 690.451C150.589 690.977 150.747 691.575 150.744 692.182C150.746 692.753 150.604 693.315 150.331 693.816C150.058 694.317 149.662 694.741 149.181 695.048L150.357 702.793C150.37 702.934 150.353 703.076 150.308 703.21C150.263 703.344 150.19 703.467 150.095 703.572C150 703.676 149.884 703.76 149.754 703.817C149.625 703.875 149.485 703.905 149.343 703.905H145.288C145.146 703.905 145.006 703.875 144.876 703.817C144.747 703.76 144.63 703.677 144.534 703.572C144.438 703.468 144.365 703.344 144.319 703.21C144.273 703.076 144.255 702.934 144.267 702.793L145.443 695.048C144.963 694.74 144.567 694.316 144.294 693.815C144.021 693.315 143.879 692.753 143.88 692.182C143.882 691.507 144.084 690.847 144.46 690.286C144.835 689.725 145.369 689.288 145.992 689.028C146.009 687.05 146.31 685.084 146.886 683.192C147.445 681.805 148.118 680.467 148.9 679.192L144.14 677.432L168.74 668.322" fill="white"/>
<path d="M168.691 668.322L193.291 677.432L184.441 680.713L168.691 686.543L153.202 680.798L151.751 680.263C150.948 681.462 150.267 682.738 149.717 684.072C149.203 685.728 148.965 687.457 149.012 689.19C149.541 689.49 149.98 689.926 150.284 690.451C150.589 690.977 150.747 691.575 150.744 692.182C150.746 692.753 150.604 693.315 150.331 693.816C150.058 694.317 149.662 694.741 149.181 695.048L150.357 702.793C150.37 702.934 150.353 703.076 150.308 703.21C150.263 703.344 150.19 703.467 150.095 703.572C150 703.676 149.884 703.76 149.754 703.817C149.625 703.875 149.485 703.905 149.343 703.905H145.288C145.146 703.905 145.006 703.875 144.876 703.817C144.747 703.76 144.63 703.677 144.534 703.572C144.438 703.468 144.365 703.344 144.319 703.21C144.273 703.076 144.255 702.934 144.267 702.793L145.443 695.048C144.963 694.74 144.567 694.316 144.294 693.815C144.021 693.315 143.879 692.753 143.88 692.182C143.882 691.507 144.084 690.847 144.46 690.286C144.835 689.725 145.369 689.287 145.992 689.028C146.009 687.05 146.31 685.084 146.886 683.192C147.445 681.805 148.118 680.467 148.9 679.192L144.14 677.432L168.74 668.322" stroke="#1C4188" stroke-width="0.3" stroke-miterlimit="10"/>
<g filter="url(#filter6_d_1189_36808)">
<path d="M143 552.694C143 565.779 122.091 593.619 120 593.619C117.909 593.619 97 565.779 97 552.694C97 539.608 107.297 529 120 529C132.703 529 143 539.608 143 552.694Z" fill="#1F4AA0"/>
<ellipse cx="120.46" cy="552.055" rx="17.2057" ry="17.3124" fill="white"/>
<rect x="107.992" y="536.041" width="24.088" height="30.7296" rx="4" fill="white"/>
<mask id="mask6_1189_36808" style="mask-type:alpha" maskUnits="userSpaceOnUse" x="99" y="531" width="42" height="42">
<circle cx="119.988" cy="551.998" r="20.8095" fill="white"/>
</mask>
<g mask="url(#mask6_1189_36808)">
<rect x="94.0713" y="523.729" width="49.4717" height="49.4717" fill="white"/>
<rect x="76.8245" y="526.578" width="137.193" height="104.912" fill="#CBD8F2"/>
</g>
</g>
<path fill-rule="evenodd" clip-rule="evenodd" d="M127.109 546.245C127.109 550.045 123.996 553.093 120.109 553.093C116.224 553.093 113.109 550.045 113.109 546.245C113.109 542.444 116.224 539.398 120.109 539.398C123.996 539.398 127.109 542.444 127.109 546.245ZM120 564.6C114.307 564.6 109.5 563.695 109.5 560.202C109.5 556.708 114.337 555.835 120 555.835C125.694 555.835 130.5 556.74 130.5 560.233C130.5 563.727 125.663 564.6 120 564.6Z" fill="url(#paint8_linear_1189_36808)"/>
<g filter="url(#filter7_d_1189_36808)">
<path d="M937 367.694C937 380.779 916.091 408.619 914 408.619C911.909 408.619 891 380.779 891 367.694C891 354.608 901.297 344 914 344C926.703 344 937 354.608 937 367.694Z" fill="#1F4AA0"/>
<ellipse cx="914.46" cy="367.055" rx="17.2057" ry="17.3124" fill="white"/>
<rect x="901.992" y="351.041" width="24.088" height="30.7296" rx="4" fill="white"/>
<mask id="mask7_1189_36808" style="mask-type:alpha" maskUnits="userSpaceOnUse" x="893" y="346" width="42" height="42">
<circle cx="913.988" cy="366.998" r="20.8095" fill="white"/>
</mask>
<g mask="url(#mask7_1189_36808)">
<rect x="888.071" y="338.729" width="49.4717" height="49.4717" fill="white"/>
<rect x="870.824" y="341.578" width="137.193" height="104.912" fill="#CBD8F2"/>
</g>
</g>
<path fill-rule="evenodd" clip-rule="evenodd" d="M921.109 361.245C921.109 365.045 917.996 368.093 914.109 368.093C910.224 368.093 907.109 365.045 907.109 361.245C907.109 357.444 910.224 354.398 914.109 354.398C917.996 354.398 921.109 357.444 921.109 361.245ZM914 379.6C908.307 379.6 903.5 378.695 903.5 375.202C903.5 371.708 908.337 370.835 914 370.835C919.694 370.835 924.5 371.74 924.5 375.233C924.5 378.727 919.663 379.6 914 379.6Z" fill="url(#paint9_linear_1189_36808)"/>
</g>
<defs>
<filter id="filter0_d_1189_36808" x="490" y="597" width="92" height="110.619" filterUnits="userSpaceOnUse" color-interpolation-filters="sRGB">
<feFlood flood-opacity="0" result="BackgroundImageFix"/>
<feColorMatrix in="SourceAlpha" type="matrix" values="0 0 0 0 0 0 0 0 0 0 0 0 0 0 0 0 0 0 127 0" result="hardAlpha"/>
<feOffset dy="4"/>
<feGaussianBlur stdDeviation="11.5"/>
<feComposite in2="hardAlpha" operator="out"/>
<feColorMatrix type="matrix" values="0 0 0 0 0.0916667 0 0 0 0 0.0916667 0 0 0 0 0.0916667 0 0 0 1 0"/>
<feBlend mode="normal" in2="BackgroundImageFix" result="effect1_dropShadow_1189_36808"/>
<feBlend mode="normal" in="SourceGraphic" in2="effect1_dropShadow_1189_36808" result="shape"/>
</filter>
<filter id="filter1_d_1189_36808" x="808" y="653" width="92" height="110.619" filterUnits="userSpaceOnUse" color-interpolation-filters="sRGB">
<feFlood flood-opacity="0" result="BackgroundImageFix"/>
<feColorMatrix in="SourceAlpha" type="matrix" values="0 0 0 0 0 0 0 0 0 0 0 0 0 0 0 0 0 0 127 0" result="hardAlpha"/>
<feOffset dy="4"/>
<feGaussianBlur stdDeviation="11.5"/>
<feComposite in2="hardAlpha" operator="out"/>
<feColorMatrix type="matrix" values="0 0 0 0 0.0916667 0 0 0 0 0.0916667 0 0 0 0 0.0916667 0 0 0 1 0"/>
<feBlend mode="normal" in2="BackgroundImageFix" result="effect1_dropShadow_1189_36808"/>
<feBlend mode="normal" in="SourceGraphic" in2="effect1_dropShadow_1189_36808" result="shape"/>
</filter>
<filter id="filter2_d_1189_36808" x="368" y="410" width="124" height="155.571" filterUnits="userSpaceOnUse" color-interpolation-filters="sRGB">
<feFlood flood-opacity="0" result="BackgroundImageFix"/>
<feColorMatrix in="SourceAlpha" type="matrix" values="0 0 0 0 0 0 0 0 0 0 0 0 0 0 0 0 0 0 127 0" result="hardAlpha"/>
<feOffset dy="4"/>
<feGaussianBlur stdDeviation="11.5"/>
<feComposite in2="hardAlpha" operator="out"/>
<feColorMatrix type="matrix" values="0 0 0 0 0.0916667 0 0 0 0 0.0916667 0 0 0 0 0.0916667 0 0 0 1 0"/>
<feBlend mode="normal" in2="BackgroundImageFix" result="effect1_dropShadow_1189_36808"/>
<feBlend mode="normal" in="SourceGraphic" in2="effect1_dropShadow_1189_36808" result="shape"/>
</filter>
<filter id="filter3_d_1189_36808" x="431" y="52" width="92" height="110.619" filterUnits="userSpaceOnUse" color-interpolation-filters="sRGB">
<feFlood flood-opacity="0" result="BackgroundImageFix"/>
<feColorMatrix in="SourceAlpha" type="matrix" values="0 0 0 0 0 0 0 0 0 0 0 0 0 0 0 0 0 0 127 0" result="hardAlpha"/>
<feOffset dy="4"/>
<feGaussianBlur stdDeviation="11.5"/>
<feComposite in2="hardAlpha" operator="out"/>
<feColorMatrix type="matrix" values="0 0 0 0 0.0916667 0 0 0 0 0.0916667 0 0 0 0 0.0916667 0 0 0 1 0"/>
<feBlend mode="normal" in2="BackgroundImageFix" result="effect1_dropShadow_1189_36808"/>
<feBlend mode="normal" in="SourceGraphic" in2="effect1_dropShadow_1189_36808" result="shape"/>
</filter>
<filter id="filter4_d_1189_36808" x="679" y="450" width="130" height="164" filterUnits="userSpaceOnUse" color-interpolation-filters="sRGB">
<feFlood flood-opacity="0" result="BackgroundImageFix"/>
<feColorMatrix in="SourceAlpha" type="matrix" values="0 0 0 0 0 0 0 0 0 0 0 0 0 0 0 0 0 0 127 0" result="hardAlpha"/>
<feOffset dy="4"/>
<feGaussianBlur stdDeviation="11.5"/>
<feComposite in2="hardAlpha" operator="out"/>
<feColorMatrix type="matrix" values="0 0 0 0 0.0916667 0 0 0 0 0.0916667 0 0 0 0 0.0916667 0 0 0 1 0"/>
<feBlend mode="normal" in2="BackgroundImageFix" result="effect1_dropShadow_1189_36808"/>
<feBlend mode="normal" in="SourceGraphic" in2="effect1_dropShadow_1189_36808" result="shape"/>
</filter>
<filter id="filter5_d_1189_36808" x="309" y="652" width="92" height="110.619" filterUnits="userSpaceOnUse" color-interpolation-filters="sRGB">
<feFlood flood-opacity="0" result="BackgroundImageFix"/>
<feColorMatrix in="SourceAlpha" type="matrix" values="0 0 0 0 0 0 0 0 0 0 0 0 0 0 0 0 0 0 127 0" result="hardAlpha"/>
<feOffset dy="4"/>
<feGaussianBlur stdDeviation="11.5"/>
<feComposite in2="hardAlpha" operator="out"/>
<feColorMatrix type="matrix" values="0 0 0 0 0.0916667 0 0 0 0 0.0916667 0 0 0 0 0.0916667 0 0 0 1 0"/>
<feBlend mode="normal" in2="BackgroundImageFix" result="effect1_dropShadow_1189_36808"/>
<feBlend mode="normal" in="SourceGraphic" in2="effect1_dropShadow_1189_36808" result="shape"/>
</filter>
<filter id="filter6_d_1189_36808" x="74" y="510" width="92" height="110.619" filterUnits="userSpaceOnUse" color-interpolation-filters="sRGB">
<feFlood flood-opacity="0" result="BackgroundImageFix"/>
<feColorMatrix in="SourceAlpha" type="matrix" values="0 0 0 0 0 0 0 0 0 0 0 0 0 0 0 0 0 0 127 0" result="hardAlpha"/>
<feOffset dy="4"/>
<feGaussianBlur stdDeviation="11.5"/>
<feComposite in2="hardAlpha" operator="out"/>
<feColorMatrix type="matrix" values="0 0 0 0 0.0916667 0 0 0 0 0.0916667 0 0 0 0 0.0916667 0 0 0 1 0"/>
<feBlend mode="normal" in2="BackgroundImageFix" result="effect1_dropShadow_1189_36808"/>
<feBlend mode="normal" in="SourceGraphic" in2="effect1_dropShadow_1189_36808" result="shape"/>
</filter>
<filter id="filter7_d_1189_36808" x="868" y="325" width="92" height="110.619" filterUnits="userSpaceOnUse" color-interpolation-filters="sRGB">
<feFlood flood-opacity="0" result="BackgroundImageFix"/>
<feColorMatrix in="SourceAlpha" type="matrix" values="0 0 0 0 0 0 0 0 0 0 0 0 0 0 0 0 0 0 127 0" result="hardAlpha"/>
<feOffset dy="4"/>
<feGaussianBlur stdDeviation="11.5"/>
<feComposite in2="hardAlpha" operator="out"/>
<feColorMatrix type="matrix" values="0 0 0 0 0.0916667 0 0 0 0 0.0916667 0 0 0 0 0.0916667 0 0 0 1 0"/>
<feBlend mode="normal" in2="BackgroundImageFix" result="effect1_dropShadow_1189_36808"/>
<feBlend mode="normal" in="SourceGraphic" in2="effect1_dropShadow_1189_36808" result="shape"/>
</filter>
<radialGradient id="paint0_radial_1189_36808" cx="0" cy="0" r="1" gradientUnits="userSpaceOnUse" gradientTransform="translate(517.489 524.556) rotate(-1.17879) scale(508.619 516.421)">
<stop stop-color="#151618" stop-opacity="0"/>
<stop offset="1" stop-color="#151618"/>
</radialGradient>
<radialGradient id="paint1_radial_1189_36808" cx="0" cy="0" r="1" gradientUnits="userSpaceOnUse" gradientTransform="translate(411.227 546.388) scale(24.9303 5.90724)">
<stop/>
<stop offset="0.15" stop-opacity="0.5"/>
<stop offset="1" stop-opacity="0"/>
</radialGradient>
<linearGradient id="paint2_linear_1189_36808" x1="532.569" y1="623.844" x2="556.703" y2="634.206" gradientUnits="userSpaceOnUse">
<stop stop-color="#A72A75"/>
<stop offset="1" stop-color="#4A0B31"/>
</linearGradient>
<linearGradient id="paint3_linear_1189_36808" x1="850.569" y1="679.844" x2="874.703" y2="690.206" gradientUnits="userSpaceOnUse">
<stop stop-color="#A72A75"/>
<stop offset="1" stop-color="#4A0B31"/>
</linearGradient>
<linearGradient id="paint4_linear_1189_36808" x1="424.182" y1="442.3" x2="465.105" y2="459.871" gradientUnits="userSpaceOnUse">
<stop stop-color="#A72A75"/>
<stop offset="1" stop-color="#4A0B31"/>
</linearGradient>
<linearGradient id="paint5_linear_1189_36808" x1="473.569" y1="78.8436" x2="497.703" y2="89.2061" gradientUnits="userSpaceOnUse">
<stop stop-color="#A72A75"/>
<stop offset="1" stop-color="#4A0B31"/>
</linearGradient>
<linearGradient id="paint6_linear_1189_36808" x1="736.822" y1="482.223" x2="780.893" y2="501.146" gradientUnits="userSpaceOnUse">
<stop stop-color="#616872"/>
<stop offset="1" stop-color="#191C20"/>
</linearGradient>
<linearGradient id="paint7_linear_1189_36808" x1="351.069" y1="678.242" x2="375.203" y2="688.604" gradientUnits="userSpaceOnUse">
<stop stop-color="#616872"/>
<stop offset="1" stop-color="#191C20"/>
</linearGradient>
<linearGradient id="paint8_linear_1189_36808" x1="116.069" y1="536.242" x2="140.203" y2="546.604" gradientUnits="userSpaceOnUse">
<stop stop-color="#616872"/>
<stop offset="1" stop-color="#191C20"/>
</linearGradient>
<linearGradient id="paint9_linear_1189_36808" x1="910.069" y1="351.242" x2="934.203" y2="361.604" gradientUnits="userSpaceOnUse">
<stop stop-color="#616872"/>
<stop offset="1" stop-color="#191C20"/>
</linearGradient>
<clipPath id="clip0_1189_36808">
<rect width="1026" height="1074" fill="white"/>
</clipPath>
<clipPath id="clip1_1189_36808">
<rect width="14.5215" height="20.6141" fill="white" transform="translate(401.36 256.742) rotate(-41.4333)"/>
</clipPath>
<clipPath id="clip2_1189_36808">
<rect width="23.8567" height="33.866" fill="white" transform="translate(634.52 698.719) rotate(-41.4333)"/>
</clipPath>
</defs>
</svg>
