<svg width="390" height="357" viewBox="0 0 390 357" fill="none" xmlns="http://www.w3.org/2000/svg">
<g opacity="0.8" filter="url(#filter0_f_1487_24159)">
<path d="M172.118 127.762C198.391 126.392 286.282 82.3684 273.268 172.217C260.255 262.066 211.908 239.974 152.144 237.704C92.3797 235.434 61.2558 241.247 69.7162 182.834C78.1766 124.421 85.5357 132.278 172.118 127.762Z" fill="#4264FB"/>
</g>
<g filter="url(#filter1_b_1487_24159)">
<path d="M20 233.151C20 248.615 32.536 261.151 48 261.151H51H256.015C257.861 261.151 259.65 261.79 261.079 262.958L293.734 289.658C295.04 290.726 297 289.797 297 288.11V261.151V103C297 87.536 284.464 75 269 75H48C32.536 75 20 87.536 20 103V233.151Z" fill="white" fill-opacity="0.06"/>
</g>
<defs>
<filter id="filter0_f_1487_24159" x="-46.6538" y="0.782341" width="436.228" height="355.94" filterUnits="userSpaceOnUse" color-interpolation-filters="sRGB">
<feFlood flood-opacity="0" result="BackgroundImageFix"/>
<feBlend mode="normal" in="SourceGraphic" in2="BackgroundImageFix" result="shape"/>
<feGaussianBlur stdDeviation="57.5" result="effect1_foregroundBlur_1487_24159"/>
</filter>
<filter id="filter1_b_1487_24159" x="-35" y="20" width="387" height="325.114" filterUnits="userSpaceOnUse" color-interpolation-filters="sRGB">
<feFlood flood-opacity="0" result="BackgroundImageFix"/>
<feGaussianBlur in="BackgroundImageFix" stdDeviation="27.5"/>
<feComposite in2="SourceAlpha" operator="in" result="effect1_backgroundBlur_1487_24159"/>
<feBlend mode="normal" in="SourceGraphic" in2="effect1_backgroundBlur_1487_24159" result="shape"/>
</filter>
</defs>
</svg>
