<svg width="1931" height="1743" viewBox="0 0 1931 1743" fill="none" xmlns="http://www.w3.org/2000/svg">
<g opacity="0.5" filter="url(#filter0_f_1189_37293)">
<ellipse cx="965.5" cy="981.5" rx="570.5" ry="366.5" transform="rotate(180 965.5 981.5)" fill="#4264FB"/>
</g>
<g opacity="0.2">
<path opacity="0.0344828" d="M399.496 748.034L811.149 787.137C838.702 789.754 850.601 753.135 826.771 739.057L470.756 528.73L830.912 731.885C855.018 745.483 880.782 716.869 864.739 694.315L625.049 357.365L871.439 689.448C887.931 711.675 923.106 696.014 917.623 668.885L835.705 263.575L925.723 667.163C931.749 694.177 970.252 694.177 976.278 667.164L1066.3 263.577L984.378 668.885C978.895 696.014 1014.07 711.675 1030.56 689.448L1276.95 357.367L1037.26 694.315C1021.22 716.869 1046.98 745.483 1071.09 731.885L1431.25 528.729L1075.23 739.057C1051.4 753.135 1063.3 789.754 1090.85 787.137L1502.5 748.034L1091.72 795.373C1064.22 798.541 1060.2 836.834 1086.43 845.65L1478.4 977.362L1083.87 853.527C1057.47 845.238 1038.22 878.583 1058.6 897.308L1363.1 1177.06L1053.06 903.462C1032.3 885.149 1001.15 907.781 1012.16 933.177L1176.55 1312.6L1004.59 936.546C993.081 911.375 955.418 919.38 955.141 947.056L951 1360.54L946.86 947.057C946.582 919.38 908.92 911.375 897.41 936.546L725.448 1312.6L889.844 933.177C900.848 907.781 869.698 885.149 848.945 903.462L538.897 1177.06L843.404 897.308C863.786 878.583 844.534 845.238 818.127 853.526L423.601 977.362L815.567 845.65C841.803 836.834 837.779 798.542 810.283 795.373L399.496 748.034Z" stroke="#004ECC" stroke-width="2"/>
<path opacity="0.0689655" d="M411.233 720.51L812.673 779.977C840.052 784.033 853.85 748.087 830.79 732.781L492.673 508.359L835.217 725.964C858.579 740.805 885.805 713.579 870.964 690.217L653.357 347.67L877.78 685.79C893.086 708.851 929.032 695.052 924.977 667.673L865.509 266.233L933.004 666.402C937.608 693.694 976.058 695.709 983.489 669.048L1092.44 278.128L991.34 671.151C984.445 697.956 1018.75 715.436 1036.38 694.102L1294.92 381.295L1042.7 699.217C1025.5 720.9 1049.73 750.823 1074.52 738.505L1437.93 557.897L1078.21 745.747C1053.67 758.559 1063.64 795.751 1091.29 794.579L1496.75 777.399L1091.72 802.696C1064.09 804.421 1058.07 842.45 1083.81 852.627L1461.2 1001.85L1080.89 860.215C1054.96 850.556 1033.99 882.848 1053.36 902.614L1337.43 1192.43L1047.61 908.361C1027.85 888.987 995.555 909.957 1005.21 935.895L1146.85 1316.2L997.627 938.807C987.45 913.069 949.42 919.092 947.695 946.716L922.399 1351.75L939.578 946.29C940.75 918.638 903.558 908.672 890.747 933.206L702.896 1292.93L883.505 929.516C895.823 904.731 865.9 880.499 844.217 897.701L526.294 1149.92L839.102 891.385C860.436 873.752 842.956 839.445 816.151 846.341L423.127 947.444L814.047 838.49C840.708 831.059 838.693 792.608 811.401 788.005L411.233 720.51Z" stroke="#004ECC" stroke-width="2"/>
<path opacity="0.103448" d="M424.317 694.049L814.562 772.923C841.691 778.406 857.352 743.231 835.124 726.739L515.387 489.508L839.811 720.288C862.365 736.332 890.978 710.568 877.38 686.461L681.775 339.687L884.286 682.474C898.364 706.303 934.983 694.405 932.366 666.852L894.716 270.499L940.296 666.018C943.465 693.514 981.757 697.538 990.573 671.303L1117.39 293.905L998.157 673.767C989.868 700.174 1023.21 719.426 1041.94 699.044L1311.29 405.854L1047.86 704.379C1029.55 725.132 1052.18 756.282 1077.58 745.278L1442.9 586.993L1080.82 752.563C1055.65 764.073 1063.66 801.735 1091.33 802.012L1489.45 805.999L1091.33 809.986C1063.66 810.263 1055.65 847.926 1080.82 859.436L1442.9 1025.01L1077.58 866.72C1052.18 855.717 1029.55 886.867 1047.86 907.619L1311.29 1206.14L1041.94 912.955C1023.21 892.573 989.868 911.825 998.157 938.232L1117.39 1318.1L990.573 940.696C981.757 914.46 943.465 918.485 940.296 945.981L894.717 1341.5L932.366 945.147C934.983 917.593 898.364 905.695 884.286 929.525L681.775 1272.31L877.381 925.538C890.979 901.431 862.365 875.667 839.811 891.711L515.386 1122.49L835.125 885.26C857.352 868.768 841.691 833.593 814.562 839.076L424.317 917.949L812.904 831.276C839.918 825.251 839.918 786.748 812.904 780.722L424.317 694.049Z" stroke="#004ECC" stroke-width="2"/>
<path opacity="0.137931" d="M438.67 668.722L816.811 765.996C843.616 772.892 861.096 738.585 839.762 720.952L538.801 472.207L844.683 714.875C866.366 732.077 896.289 707.845 883.971 683.06L710.202 333.406L890.939 679.51C903.75 704.044 940.942 694.078 939.77 666.425L923.241 276.323L947.58 666.016C949.305 693.64 987.334 699.663 997.511 673.925L1141.08 310.827L1004.81 676.727C995.153 702.664 1027.44 723.635 1047.21 704.261L1326.05 430.949L1052.74 709.79C1033.37 729.556 1054.34 761.848 1080.27 752.189L1446.17 615.921L1083.08 759.489C1057.34 769.666 1063.36 807.696 1090.98 809.421L1480.68 833.759L1090.58 817.23C1062.92 816.059 1052.96 853.25 1077.49 866.062L1423.59 1046.8L1073.94 873.03C1049.16 860.712 1024.92 890.635 1042.13 912.318L1284.79 1218.2L1036.05 917.239C1018.42 895.905 984.109 913.385 991.004 940.19L1088.28 1318.33L983.451 942.214C976.02 915.553 937.569 917.568 932.966 944.86L868.027 1329.87L925.242 943.636C929.298 916.258 893.352 902.459 878.046 925.519L662.122 1250.83L871.488 921.26C886.329 897.898 859.102 870.672 835.74 885.513L506.167 1094.88L831.481 878.955C854.541 863.649 840.743 827.703 813.364 831.758L427.128 888.973L812.141 824.035C839.433 819.431 841.448 780.981 814.787 773.55L438.67 668.722Z" stroke="#004ECC" stroke-width="2"/>
<path opacity="0.172414" d="M454.208 644.583L819.408 759.214C845.815 767.502 865.067 734.157 844.685 715.432L562.814 456.477L849.815 709.735C870.568 728.048 901.718 705.417 890.714 680.02L738.537 328.802L897.717 676.902C909.228 702.073 946.89 694.068 947.167 666.392L951 283.643L954.833 666.391C955.11 694.068 992.772 702.073 1004.28 676.902L1163.46 328.805L1011.29 680.02C1000.28 705.417 1031.43 728.048 1052.18 709.735L1339.19 456.476L1057.31 715.432C1036.93 734.157 1056.18 767.502 1082.59 759.214L1447.79 644.584L1084.96 766.505C1058.72 775.32 1062.75 813.613 1090.24 816.782L1470.5 860.602L1089.44 824.406C1061.89 821.789 1049.99 858.408 1073.82 872.486L1403.37 1067.18L1069.99 879.125C1045.88 865.527 1020.12 894.14 1036.16 916.694L1258.03 1228.6L1029.96 921.2C1013.47 898.972 978.292 914.633 983.776 941.762L1059.6 1316.94L976.277 943.356C970.252 916.342 931.748 916.342 925.723 943.356L842.396 1316.94L918.224 941.762C923.707 914.633 888.533 898.972 872.041 921.2L643.966 1228.6L865.839 916.694C881.882 894.14 856.118 865.527 832.011 879.125L498.625 1067.18L828.178 872.486C852.008 858.408 840.11 821.789 812.556 824.406L431.505 860.602L811.755 816.782C839.25 813.613 843.275 775.321 817.039 766.505L454.208 644.583Z" stroke="#004ECC" stroke-width="2"/>
<path opacity="0.206897" d="M470.848 621.688L822.348 752.592C848.285 762.252 869.256 729.96 849.882 710.194L587.328 442.329L855.194 704.882C874.959 724.256 907.251 703.286 897.592 677.348L766.687 325.848L904.605 674.656C914.782 700.395 952.812 694.372 954.537 666.748L977.917 292.393L962.039 667.141C960.867 694.794 998.059 704.759 1010.87 680.225L1184.49 347.747L1017.56 683.636C1005.25 708.421 1035.17 732.652 1056.85 715.451L1350.69 482.334L1061.58 721.289C1040.25 738.921 1057.73 773.228 1084.53 766.333L1447.78 672.888L1086.47 773.589C1059.81 781.02 1061.83 819.471 1089.12 824.074L1458.98 886.457L1087.95 831.494C1060.57 827.438 1046.77 863.384 1069.83 878.69L1382.34 1086.11L1065.74 884.99C1042.37 870.149 1015.15 897.375 1029.99 920.737L1231.11 1237.34L1023.69 924.829C1008.38 901.769 972.437 915.567 976.493 942.946L1031.46 1313.98L969.073 944.121C964.47 916.829 926.019 914.814 918.588 941.475L817.887 1302.79L911.332 939.531C918.228 912.726 883.921 895.246 866.288 916.58L627.334 1205.7L860.45 911.852C877.652 890.169 853.421 860.247 828.635 872.564L492.746 1039.49L825.225 865.871C849.759 853.059 839.793 815.868 812.14 817.039L437.394 832.918L811.747 809.537C839.371 807.812 845.394 769.783 819.656 759.606L470.848 621.688Z" stroke="#004ECC" stroke-width="2"/>
<path opacity="0.241379" d="M488.503 600.083L825.619 746.149C851.015 757.153 873.647 726.003 855.334 705.25L612.243 429.772L860.802 700.326C879.527 720.708 912.872 701.457 904.583 675.049L794.555 324.512L911.581 672.776C920.397 699.011 958.69 694.987 961.858 667.491L1003.92 302.507L969.176 668.26C966.559 695.814 1003.18 707.712 1017.26 683.883L1204.13 367.563L1023.63 687.562C1010.03 711.668 1038.64 737.432 1061.2 721.389L1360.58 508.425L1065.52 727.342C1043.3 743.834 1058.96 779.009 1086.09 773.526L1446.2 700.742L1087.62 780.723C1060.6 786.748 1060.6 825.252 1087.62 831.277L1446.2 911.259L1086.09 838.475C1058.96 832.992 1043.3 868.166 1065.52 884.658L1360.58 1103.57L1061.2 890.611C1038.64 874.568 1010.03 900.332 1023.63 924.439L1204.13 1244.44L1017.26 928.118C1003.18 904.288 966.559 916.186 969.176 943.74L1003.92 1309.49L961.858 944.509C958.69 917.013 920.397 912.989 911.581 939.225L794.556 1287.49L904.583 936.951C912.872 910.544 879.527 891.292 860.802 911.674L612.242 1182.23L855.334 906.75C873.647 885.997 851.015 854.847 825.619 865.851L488.504 1011.92L822.626 859.129C847.796 847.619 839.791 809.956 812.115 809.679L444.735 806L812.115 802.321C839.791 802.044 847.796 764.382 822.626 752.872L488.503 600.083Z" stroke="#004ECC" stroke-width="2"/>
<path opacity="0.275862" d="M507.083 579.815L829.211 739.904C853.996 752.222 878.227 722.299 861.025 700.616L637.461 418.814L866.624 696.082C884.257 717.416 918.564 699.936 911.668 673.131L822.051 324.757L918.627 671.266C926.058 697.928 964.509 695.912 969.112 668.62L1028.94 313.915L976.228 669.747C972.172 697.126 1008.12 710.925 1023.42 687.864L1222.35 388.16L1029.47 691.788C1014.63 715.15 1041.85 742.376 1065.21 727.535L1368.84 534.652L1069.14 733.578C1046.08 748.883 1059.88 784.83 1087.25 780.774L1443.08 728.063L1088.38 787.89C1061.09 792.493 1059.07 830.944 1085.74 838.374L1432.24 934.95L1083.87 845.333C1057.07 838.438 1039.59 872.745 1060.92 890.377L1338.19 1119.54L1056.39 895.976C1034.7 878.775 1004.78 903.006 1017.1 927.791L1177.19 1249.92L1010.68 931.062C997.867 906.528 960.675 916.494 961.847 944.146L977.075 1303.54L954.653 944.523C952.927 916.9 914.898 910.876 904.721 936.615L772.454 1271.13L897.995 934.033C907.654 908.096 875.363 887.125 855.597 906.499L598.706 1158.3L850.502 901.405C869.876 881.639 848.906 849.347 822.969 859.007L485.872 984.547L820.387 852.281C846.125 842.104 840.102 804.074 812.478 802.349L453.464 779.927L812.855 795.154C840.508 796.326 850.474 759.135 825.94 746.323L507.083 579.815Z" stroke="#004ECC" stroke-width="2"/>
<path opacity="0.310345" d="M526.496 560.913L833.112 733.867C857.219 747.465 882.982 718.851 866.939 696.298L662.884 409.443L872.643 692.154C889.135 714.381 924.31 698.72 918.827 671.591L849.087 326.537L925.723 670.125C931.748 697.139 970.252 697.139 976.277 670.125L1052.91 326.537L983.174 671.591C977.691 698.72 1012.87 714.381 1029.36 692.153L1239.12 409.442L1035.06 696.298C1019.02 718.851 1044.78 747.465 1068.89 733.867L1375.5 560.914L1072.41 739.973C1048.58 754.051 1060.48 790.67 1088.04 788.052L1438.49 754.763L1088.77 795.064C1061.28 798.233 1057.25 836.526 1083.49 845.342L1417.18 957.472L1081.31 852.047C1054.9 843.758 1035.65 877.103 1056.03 895.828L1315.27 1133.99L1051.31 901.068C1030.56 882.755 999.412 905.387 1010.42 930.783L1150.37 1253.8L1003.97 933.65C992.465 908.48 954.802 916.485 954.525 944.161L951 1296.17L947.475 944.161C947.198 916.485 909.535 908.48 898.025 933.65L751.629 1253.8L891.584 930.783C902.588 905.387 871.438 882.755 850.685 901.068L586.73 1133.99L845.968 895.828C866.35 877.103 847.098 843.758 820.691 852.047L484.817 957.472L818.512 845.342C844.748 836.526 840.723 798.233 813.227 795.064L463.513 754.763L813.964 788.053C841.518 790.67 853.416 754.051 829.586 739.973L526.496 560.913Z" stroke="#004ECC" stroke-width="2"/>
<path opacity="0.344828" d="M546.653 543.415L837.31 728.058C860.672 742.899 887.898 715.673 873.057 692.311L688.415 401.655L878.841 688.554C894.147 711.615 930.093 697.816 926.038 670.438L875.579 329.809L932.849 669.359C937.453 696.651 975.903 698.666 983.334 672.004L1075.78 340.3L989.996 673.789C983.1 700.594 1017.41 718.074 1035.04 696.741L1254.41 431.318L1040.4 701.081C1023.2 722.763 1047.43 752.686 1072.21 740.369L1380.58 587.119L1075.35 746.514C1050.81 759.325 1060.78 796.517 1088.43 795.345L1432.47 780.768L1088.79 802.232C1061.17 803.957 1055.14 841.987 1080.88 852.164L1401.11 978.78L1078.41 858.603C1052.47 848.943 1031.5 881.235 1050.88 901.001L1291.92 1146.92L1046 905.877C1026.23 886.504 993.943 907.474 1003.6 933.411L1123.78 1256.1L997.164 935.883C986.987 910.144 948.957 916.167 947.232 943.791L925.767 1287.47L940.345 943.43C941.516 915.778 904.325 905.812 891.513 930.346L732.119 1235.58L885.368 927.215C897.686 902.429 867.763 878.198 846.08 895.4L576.317 1109.41L841.74 890.04C863.074 872.408 845.594 838.101 818.789 844.996L485.301 930.784L817.004 838.335C843.665 830.904 841.65 792.453 814.358 787.85L474.809 730.579L815.437 781.038C842.816 785.094 856.614 749.148 833.554 733.842L546.653 543.415Z" stroke="#004ECC" stroke-width="2"/>
<path opacity="0.37931" d="M567.459 527.342L841.793 722.49C864.346 738.533 892.96 712.769 879.362 688.662L713.96 395.435L885.201 685.291C899.279 709.121 935.898 697.222 933.281 669.669L901.445 334.516L939.987 668.964C943.155 696.46 981.448 700.484 990.264 674.248L1097.5 355.121L996.677 676.332C988.388 702.739 1021.73 721.991 1040.46 701.609L1268.22 453.69L1045.47 706.121C1027.16 726.874 1049.79 758.024 1075.18 747.02L1384.09 613.174L1077.93 753.18C1052.76 764.69 1060.76 802.352 1088.44 802.629L1425.08 806.001L1088.44 809.372C1060.76 809.649 1052.76 847.311 1077.93 858.821L1384.1 998.827L1075.18 864.981C1049.79 853.977 1027.16 885.127 1045.47 905.88L1268.22 1158.31L1040.46 910.392C1021.73 890.01 988.388 909.262 996.677 935.669L1097.5 1256.88L990.264 937.753C981.448 911.517 943.155 915.542 939.987 943.037L901.445 1277.49L933.281 942.332C935.898 914.779 899.279 902.881 885.201 926.71L713.959 1216.57L879.362 923.339C892.96 899.232 864.346 873.468 841.793 889.511L567.46 1084.66L837.83 884.057C860.057 867.565 844.396 832.39 817.267 837.873L487.278 904.568L815.865 831.278C842.879 825.252 842.879 786.749 815.865 780.724L487.278 707.433L817.267 774.128C844.396 779.611 860.057 744.436 837.83 727.945L567.459 527.342Z" stroke="#004ECC" stroke-width="2"/>
<path opacity="0.413793" d="M588.822 512.716L846.546 717.177C868.229 734.379 898.152 710.148 885.834 685.362L739.425 390.762L891.705 682.371C904.516 706.905 941.708 696.939 940.536 669.287L926.61 340.604L947.116 668.942C948.841 696.566 986.871 702.589 997.048 676.85L1118.01 370.919L1003.2 679.212C993.539 705.149 1025.83 726.119 1045.6 706.745L1280.54 476.465L1050.26 711.404C1030.88 731.17 1051.85 763.462 1077.79 753.803L1386.08 638.989L1080.15 759.954C1054.41 770.131 1060.44 808.16 1088.06 809.886L1416.39 830.392L1087.71 816.465C1060.06 815.294 1050.1 852.485 1074.63 865.297L1366.24 1017.58L1071.64 871.167C1046.85 858.85 1022.62 888.773 1039.82 910.455L1244.29 1168.18L1034.7 914.602C1017.07 893.268 982.764 910.748 989.66 937.553L1071.62 1256.15L983.296 939.258C975.865 912.597 937.414 914.612 932.811 941.904L878.096 1266.3L926.303 940.873C930.359 913.495 894.413 899.696 879.107 922.756L697.179 1196.85L873.581 919.168C888.422 895.806 861.196 868.58 837.834 883.421L560.15 1059.82L834.245 877.895C857.305 862.589 843.507 826.643 816.128 830.699L490.702 878.906L815.097 824.191C842.389 819.588 844.405 781.137 817.743 773.706L500.845 685.383L819.449 767.342C846.253 774.237 863.734 739.93 842.4 722.298L588.822 512.716Z" stroke="#004ECC" stroke-width="2"/>
<path opacity="0.448276" d="M610.647 499.545L851.556 712.131C872.309 730.444 903.459 707.812 892.455 682.416L764.72 387.608L898.333 679.799C909.844 704.969 947.506 696.964 947.783 669.288L951 348.011L954.218 669.288C954.495 696.964 992.157 704.969 1003.67 679.799L1137.28 387.605L1009.55 682.416C998.542 707.812 1029.69 730.444 1050.44 712.131L1291.35 499.547L1054.75 716.913C1034.37 735.638 1053.62 768.983 1080.03 760.694L1386.57 664.474L1082.02 766.814C1055.78 775.63 1059.81 813.923 1087.3 817.091L1406.48 853.874L1086.63 823.491C1059.07 820.874 1047.18 857.493 1071.01 871.571L1347.63 1035L1067.79 877.144C1043.68 863.546 1017.92 892.159 1033.96 914.713L1220.2 1176.52L1028.76 918.495C1012.26 896.268 977.089 911.928 982.572 939.057L1046.22 1253.98L976.277 940.395C970.252 913.382 931.749 913.381 925.723 940.395L855.779 1253.98L919.429 939.057C924.912 911.928 889.737 896.268 873.245 918.495L681.801 1176.52L868.04 914.713C884.083 892.159 858.319 863.546 834.212 877.144L554.37 1035L830.995 871.571C854.824 857.493 842.926 820.874 815.373 823.491L495.519 853.874L814.7 817.091C842.195 813.923 846.22 775.63 819.984 766.814L515.427 664.474L821.973 760.694C848.38 768.983 867.632 735.638 847.25 716.913L610.647 499.545Z" stroke="#004ECC" stroke-width="2"/>
<path opacity="0.482759" d="M632.841 487.841L856.806 707.365C876.572 726.739 908.864 705.768 899.204 679.831L789.755 385.943L905.068 677.58C915.245 703.319 953.275 697.295 955 669.672L974.548 356.673L961.272 670C960.101 697.653 997.292 707.618 1010.1 683.085L1155.27 405.095L1015.7 685.936C1003.38 710.722 1033.31 734.953 1054.99 717.751L1300.67 522.842L1058.94 722.632C1037.61 740.265 1055.09 774.572 1081.89 767.676L1385.61 689.546L1083.52 773.743C1056.86 781.174 1058.87 819.625 1086.16 824.228L1395.4 876.386L1085.18 830.432C1057.8 826.376 1044 862.322 1067.06 877.628L1328.36 1051.06L1063.64 882.896C1040.28 868.055 1013.05 895.281 1027.9 918.643L1196.06 1183.35L1022.63 922.064C1007.32 899.004 971.376 912.802 975.432 940.181L1021.39 1250.4L969.228 941.163C964.625 913.871 926.174 911.856 918.743 938.518L834.546 1240.61L912.676 936.892C919.572 910.087 885.265 892.607 867.632 913.941L667.842 1155.67L862.751 909.988C879.953 888.305 855.722 858.382 830.936 870.7L550.096 1010.27L828.085 865.104C852.619 852.292 842.653 815.101 815 816.272L501.673 829.548L814.672 810C842.295 808.275 848.319 770.245 822.58 760.068L530.941 644.755L824.831 754.204C850.768 763.864 871.739 731.572 852.365 711.806L632.841 487.841Z" stroke="#004ECC" stroke-width="2"/>
<path opacity="0.517241" d="M655.313 477.606L862.283 702.892C881.008 723.274 914.353 704.022 906.064 677.615L814.447 385.732L911.891 675.721C920.707 701.957 959 697.932 962.168 670.437L997.191 366.524L968.262 671.077C965.645 698.631 1002.26 710.529 1016.34 686.699L1171.95 423.305L1021.65 689.763C1008.05 713.87 1036.66 739.634 1059.22 723.59L1308.5 546.26L1062.82 728.547C1040.59 745.039 1056.25 780.214 1083.38 774.731L1383.24 714.125L1084.65 780.724C1057.64 786.749 1057.64 825.253 1084.65 831.278L1383.24 897.877L1083.38 837.271C1056.25 831.788 1040.59 866.963 1062.82 883.455L1308.5 1065.74L1059.22 888.412C1036.66 872.368 1008.05 898.132 1021.65 922.239L1171.95 1188.7L1016.34 925.303C1002.26 901.473 965.645 913.371 968.262 940.925L997.191 1245.48L962.168 941.565C959 914.07 920.707 910.045 911.891 936.281L814.446 1226.27L906.064 934.388C914.353 907.98 881.008 888.728 862.283 909.11L655.313 1134.39L857.729 905.011C876.042 884.258 853.411 853.108 828.014 864.111L547.306 985.737L825.522 858.514C850.693 847.004 842.688 809.342 815.012 809.065L509.103 806.001L815.012 802.938C842.688 802.66 850.693 764.998 825.522 753.488L547.306 626.265L828.014 747.891C853.411 758.894 876.042 727.744 857.729 706.992L655.313 477.606Z" stroke="#004ECC" stroke-width="2"/>
<path opacity="0.551724" d="M677.968 468.833L867.969 698.718C885.601 720.052 919.908 702.572 913.013 675.767L838.711 386.932L918.782 674.221C926.213 700.883 964.664 698.868 969.267 671.575L1018.87 377.49L975.167 672.51C971.111 699.889 1007.06 713.687 1022.36 690.627L1187.29 442.139L1027.37 693.88C1012.53 717.242 1039.76 744.468 1063.12 729.627L1314.86 569.708L1066.37 734.637C1043.31 749.943 1057.11 785.889 1084.49 781.833L1379.51 738.13L1085.42 787.733C1058.13 792.336 1056.12 830.787 1082.78 838.218L1370.07 918.288L1081.23 843.987C1054.43 837.092 1036.95 871.399 1058.28 889.032L1288.17 1079.03L1054.52 893.674C1032.84 876.472 1002.92 900.703 1015.23 925.488L1147.96 1192.56L1009.91 928.2C997.101 903.666 959.909 913.632 961.081 941.284L973.706 1239.26L955.116 941.597C953.391 913.973 915.361 907.95 905.184 933.689L795.521 1211.04L899.608 931.548C909.267 905.611 876.975 884.64 857.21 904.014L644.221 1112.78L852.986 899.791C872.36 880.025 851.389 847.733 825.452 857.392L545.964 961.479L823.311 851.816C849.05 841.639 843.027 803.609 815.403 801.884L517.743 783.294L815.716 795.919C843.368 797.091 853.334 759.899 828.8 747.088L564.435 609.035L831.512 741.765C856.297 754.083 880.528 724.16 863.327 702.477L677.968 468.833Z" stroke="#004ECC" stroke-width="2"/>
<path opacity="0.586207" d="M700.718 461.517L873.847 694.86C890.339 717.087 925.514 701.426 920.031 674.297L862.47 389.501L925.723 673.088C931.748 700.101 970.252 700.101 976.277 673.088L1039.53 389.5L981.969 674.297C976.486 701.426 1011.66 717.087 1028.15 694.86L1201.28 461.516L1032.86 698.28C1016.82 720.834 1042.58 749.447 1066.69 735.849L1319.76 593.099L1069.6 740.889C1045.77 754.967 1057.67 791.586 1085.22 788.969L1374.47 761.493L1085.83 794.756C1058.33 797.925 1054.31 836.217 1080.54 845.033L1355.96 937.582L1078.75 850.568C1052.34 842.279 1033.09 875.624 1053.47 894.349L1267.44 1090.92L1049.57 898.674C1028.82 880.361 997.672 902.992 1008.68 928.389L1124.19 1194.99L1003.36 930.755C991.849 905.585 954.187 913.59 953.91 941.266L951 1231.81L948.091 941.266C947.813 913.59 910.151 905.585 898.641 930.755L777.809 1195L893.325 928.389C904.329 902.992 873.179 880.361 852.426 898.674L634.565 1090.92L848.532 894.349C868.914 875.624 849.662 842.279 823.255 850.568L546.034 937.583L821.457 845.033C847.693 836.217 843.668 797.925 816.172 794.756L527.527 761.493L816.781 788.969C844.334 791.586 856.232 754.967 832.403 740.889L582.241 593.098L835.312 735.849C859.419 749.447 885.183 720.833 869.14 698.28L700.718 461.517Z" stroke="#004ECC" stroke-width="2"/>
<path opacity="0.62069" d="M723.471 455.636L879.902 691.318C895.208 714.378 931.155 700.58 927.099 673.201L885.648 393.385L932.694 672.315C937.298 699.607 975.749 701.622 983.179 674.96L1059.12 402.475L988.652 676.427C981.756 703.232 1016.06 720.712 1033.7 699.378L1213.9 481.339L1038.1 702.943C1020.9 724.626 1045.13 754.549 1069.91 742.231L1323.23 616.341L1072.49 747.279C1047.95 760.091 1057.92 797.282 1085.57 796.111L1368.19 784.136L1085.87 801.768C1058.24 803.494 1052.22 841.523 1077.96 851.7L1341.01 955.711L1075.93 856.989C1049.99 847.33 1029.02 879.622 1048.39 899.387L1246.4 1101.4L1044.39 903.393C1024.62 884.019 992.33 904.99 1001.99 930.927L1100.71 1196.01L996.7 932.958C986.523 907.219 948.494 913.242 946.769 940.866L929.136 1223.19L941.111 940.569C942.283 912.917 905.091 902.951 892.279 927.485L761.341 1178.23L887.232 924.913C899.549 900.128 869.626 875.897 847.944 893.098L626.34 1068.9L844.378 888.695C865.712 871.063 848.232 836.756 821.427 843.651L547.475 914.124L819.961 838.179C846.622 830.748 844.607 792.297 817.315 787.694L538.383 740.648L818.201 782.098C845.58 786.154 859.378 750.208 836.318 734.902L600.637 578.471L839.404 730.151C862.766 744.992 889.992 717.766 875.151 694.404L723.471 455.636Z" stroke="#004ECC" stroke-width="2"/>
<path opacity="0.655172" d="M746.142 451.177L886.116 688.107C900.194 711.937 936.813 700.039 934.196 672.485L908.173 398.532L939.677 671.909C942.846 699.405 981.138 703.429 989.954 677.193L1077.61 416.34L995.196 678.897C986.907 705.304 1020.25 724.556 1038.98 704.174L1225.15 501.524L1043.07 707.861C1024.76 728.614 1047.39 759.764 1072.79 748.761L1325.29 639.355L1075.03 753.796C1049.86 765.306 1057.86 802.968 1085.54 803.245L1360.71 806.001L1085.54 808.757C1057.86 809.034 1049.86 846.696 1075.03 858.206L1325.29 972.646L1072.79 863.241C1047.39 852.237 1024.76 883.387 1043.07 904.14L1225.15 1110.48L1038.98 907.828C1020.25 887.446 986.907 906.698 995.196 933.105L1077.61 1195.66L989.954 934.808C981.138 908.573 942.846 912.597 939.677 940.093L908.173 1213.47L934.196 939.517C936.813 911.963 900.194 900.065 886.116 923.895L746.142 1160.82L881.343 921.139C894.941 897.032 866.327 871.268 843.774 887.311L619.535 1046.82L840.534 882.853C862.762 866.361 847.101 831.186 819.972 836.669L550.239 891.185L818.826 831.278C845.84 825.253 845.84 786.749 818.826 780.724L550.239 720.816L819.972 775.333C847.101 780.816 862.762 745.641 840.534 729.149L619.534 565.177L843.774 724.69C866.327 740.734 894.941 714.97 881.343 690.863L746.142 451.177Z" stroke="#004ECC" stroke-width="2"/>
<path opacity="0.689655" d="M768.646 448.096L892.471 685.215C905.283 709.749 942.474 699.783 941.303 672.131L929.979 404.868L946.653 671.85C948.378 699.474 986.408 705.497 996.585 679.759L1094.95 430.996L1001.59 681.679C991.927 707.616 1024.22 728.586 1043.98 709.212L1235.02 521.963L1047.77 713.001C1028.4 732.767 1049.37 765.059 1075.31 755.399L1325.99 662.04L1077.23 760.401C1051.49 770.578 1057.51 808.607 1085.14 810.333L1352.12 827.007L1084.85 815.683C1057.2 814.511 1047.24 851.703 1071.77 864.514L1308.89 988.339L1069.34 869.288C1044.55 856.97 1020.32 886.893 1037.52 908.576L1203.78 1118.14L1033.36 911.948C1015.73 890.614 981.42 908.094 988.316 934.899L1054.96 1193.97L983.141 936.285C975.71 909.624 937.259 911.639 932.656 938.931L888.166 1202.71L927.364 938.093C931.42 910.714 895.474 896.916 880.168 919.976L732.236 1142.85L875.675 917.058C890.516 893.696 863.289 866.47 839.927 881.311L614.133 1024.75L837.01 876.818C860.07 861.512 846.271 825.566 818.892 829.621L554.277 868.82L818.054 824.33C845.346 819.726 847.361 781.276 820.7 773.845L563.019 702.026L822.087 768.67C848.892 775.565 866.372 741.258 845.038 723.626L638.845 553.207L848.41 719.462C870.092 736.664 900.015 712.433 887.698 687.647L768.646 448.096Z" stroke="#004ECC" stroke-width="2"/>
<path opacity="0.724138" d="M790.899 446.393L898.949 682.679C910.459 707.85 948.121 699.845 948.398 672.169L951 412.364L953.602 672.169C953.879 699.845 991.541 707.85 1003.05 682.679L1111.1 446.394L1007.81 684.796C996.801 710.192 1027.95 732.824 1048.7 714.511L1243.52 542.601L1052.19 718.378C1031.8 737.103 1051.06 770.448 1077.46 762.159L1325.36 684.349L1079.07 767.108C1052.84 775.924 1056.86 814.217 1084.36 817.385L1342.47 847.13L1083.81 822.561C1056.26 819.943 1044.36 856.562 1068.19 870.641L1291.88 1002.8L1065.59 875.147C1041.48 861.549 1015.72 890.163 1031.76 912.716L1182.37 1124.43L1027.55 915.775C1011.06 893.547 975.884 909.208 981.367 936.337L1032.84 1191.01L976.277 937.419C970.252 910.405 931.748 910.405 925.723 937.419L869.162 1191.01L920.633 936.337C926.116 909.208 890.941 893.547 874.45 915.775L719.634 1124.43L870.24 912.716C886.283 890.163 860.519 861.549 836.412 875.147L610.114 1002.8L833.811 870.64C857.64 856.562 845.742 819.943 818.188 822.561L559.533 847.13L817.645 817.385C845.14 814.217 849.165 775.924 822.929 767.108L576.643 684.349L824.537 762.159C850.944 770.448 870.196 737.103 849.814 718.378L658.482 542.6L853.296 714.511C874.049 732.824 905.199 710.192 894.195 684.796L790.899 446.393Z" stroke="#004ECC" stroke-width="2"/>
<path opacity="0.758621" d="M812.821 446.019L905.531 680.49C915.708 706.229 953.738 700.206 955.463 672.582L971.179 420.938L960.506 672.846C959.334 700.499 996.526 710.464 1009.34 685.931L1126.05 462.434L1013.84 688.223C1001.52 713.008 1031.44 737.24 1053.12 720.038L1250.65 563.335L1056.3 723.962C1034.97 741.595 1052.45 775.902 1079.25 769.006L1323.44 706.191L1080.56 773.884C1053.9 781.315 1055.91 819.766 1083.21 824.369L1331.83 866.304L1082.42 829.357C1055.04 825.301 1041.24 861.247 1064.3 876.553L1274.37 1015.98L1061.55 880.788C1038.19 865.947 1010.96 893.173 1025.8 916.535L1161 1129.36L1021.57 919.286C1006.26 896.225 970.315 910.024 974.371 937.403L1011.32 1186.81L969.383 938.192C964.78 910.901 926.329 908.885 918.898 935.547L851.205 1178.42L914.02 934.24C920.916 907.435 886.609 889.955 868.976 911.289L708.348 1105.64L865.052 908.111C882.254 886.428 858.023 856.505 833.237 868.823L607.449 981.034L830.945 864.323C855.478 851.512 845.513 814.32 817.86 815.492L565.951 826.165L817.596 810.449C845.22 808.724 851.243 770.694 825.504 760.517L591.033 667.807L827.314 755.803C853.251 765.462 874.222 733.17 854.848 713.404L678.356 533.342L858.418 709.834C878.184 729.208 910.476 708.237 900.817 682.3L812.821 446.019Z" stroke="#004ECC" stroke-width="2"/>
<path opacity="0.793103" d="M834.337 446.932L912.201 678.651C921.017 704.887 959.309 700.862 962.478 673.366L990.463 430.524L967.347 673.878C964.73 701.432 1001.35 713.33 1015.43 689.5L1139.77 479.035L1019.67 691.948C1006.07 716.055 1034.68 741.819 1057.24 725.776L1256.43 584.079L1060.11 729.736C1037.89 746.228 1053.55 781.403 1080.68 775.92L1320.28 727.493L1081.69 780.709C1054.68 786.734 1054.68 825.238 1081.69 831.263L1320.28 884.479L1080.68 836.052C1053.55 830.569 1037.89 865.744 1060.11 882.235L1256.43 1027.89L1057.24 886.196C1034.68 870.153 1006.07 895.917 1019.67 920.024L1139.77 1132.94L1015.43 922.471C1001.35 898.642 964.73 910.54 967.347 938.094L990.463 1181.45L962.478 938.605C959.309 911.11 921.017 907.085 912.201 933.321L834.337 1165.04L907.544 931.808C915.833 905.401 882.488 886.149 863.763 906.531L698.383 1086.55L860.125 903.255C878.438 882.502 855.806 851.352 830.41 862.356L606.109 959.541L828.419 857.883C853.589 846.373 845.584 808.711 817.908 808.434L573.469 805.986L817.908 803.538C845.584 803.261 853.589 765.599 828.419 754.089L606.109 652.43L830.41 749.616C855.806 760.62 878.438 729.47 860.125 708.717L698.383 525.426L863.763 705.441C882.488 725.823 915.833 706.571 907.544 680.164L834.337 446.932Z" stroke="#004ECC" stroke-width="2"/>
<path opacity="0.827586" d="M855.37 449.091L918.937 677.165C926.368 703.826 964.819 701.811 969.422 674.519L1008.8 441.052L974.106 675.261C970.05 702.64 1006 716.438 1021.3 693.378L1152.24 496.111L1025.28 695.961C1010.44 719.323 1037.66 746.549 1061.03 731.708L1260.88 604.751L1063.61 735.685C1040.55 750.991 1054.35 786.937 1081.73 782.881L1315.94 748.186L1082.47 787.565C1055.18 792.168 1053.16 830.619 1079.82 838.049L1307.89 901.616L1078.59 842.63C1051.79 835.734 1034.31 870.041 1055.64 887.674L1238.14 1038.51L1052.66 891.359C1030.98 874.157 1001.05 898.389 1013.37 923.174L1118.74 1135.2L1009.15 925.327C996.334 900.793 959.143 910.759 960.315 938.411L970.338 1174.96L955.579 938.659C953.854 911.036 915.824 905.012 905.647 930.751L818.589 1150.93L901.22 929.051C910.88 903.114 878.588 882.144 858.822 901.518L689.735 1067.25L855.469 898.165C874.843 878.399 853.872 846.107 827.935 855.766L606.057 938.398L826.236 851.339C851.974 841.162 845.951 803.133 818.327 801.408L582.022 786.649L818.576 796.672C846.228 797.844 856.194 760.652 831.66 747.841L621.787 638.244L833.813 743.615C858.598 755.933 882.829 726.01 865.628 704.327L718.476 518.843L869.313 701.343C886.945 722.677 921.252 705.197 914.357 678.392L855.37 449.091Z" stroke="#004ECC" stroke-width="2"/>
<path opacity="0.862069" d="M875.853 452.444L925.723 676.032C931.748 703.046 970.252 703.046 976.277 676.032L1026.15 452.446L980.765 676.986C975.282 704.115 1010.46 719.776 1026.95 697.549L1163.45 513.576L1030.66 700.245C1014.62 722.799 1040.38 751.412 1064.49 737.814L1264.02 625.266L1066.78 741.788C1042.95 755.866 1054.85 792.485 1082.4 789.868L1310.46 768.205L1082.88 794.431C1055.39 797.599 1051.36 835.892 1077.6 844.708L1294.75 917.676L1076.18 849.071C1049.77 840.783 1030.52 874.128 1050.9 892.853L1219.6 1047.83L1047.83 896.262C1027.08 877.949 995.931 900.581 1006.94 925.977L1098.01 1136.18L1002.74 927.843C991.234 902.673 953.571 910.678 953.294 938.354L951 1167.42L948.706 938.354C948.429 910.678 910.767 902.673 899.257 927.843L803.99 1136.18L895.065 925.977C906.069 900.581 874.919 877.949 854.166 896.262L682.398 1047.84L851.096 892.853C871.478 874.128 852.226 840.783 825.819 849.071L607.252 917.676L824.401 844.708C850.637 835.892 846.612 797.599 819.117 794.431L591.541 768.205L819.596 789.868C847.15 792.485 859.048 755.866 835.219 741.788L637.985 625.266L837.513 737.814C861.619 751.412 887.383 722.799 871.34 700.245L738.552 513.575L875.052 697.549C891.544 719.776 926.718 704.115 921.235 676.986L875.853 452.444Z" stroke="#004ECC" stroke-width="2"/>
<path opacity="0.896552" d="M895.717 456.943L932.54 675.257C937.143 702.549 975.594 704.564 983.025 677.903L1042.46 464.635L987.308 679.05C980.412 705.855 1014.72 723.336 1032.35 702.002L1173.4 531.347L1035.8 704.792C1018.6 726.475 1042.83 756.398 1067.61 744.08L1265.88 645.548L1069.63 748.031C1045.09 760.843 1055.06 798.034 1082.71 796.863L1303.91 787.49L1082.94 801.291C1055.32 803.016 1049.3 841.045 1075.03 851.222L1280.92 932.63L1073.44 855.362C1047.51 845.703 1026.54 877.994 1045.91 897.76L1200.89 1055.87L1042.78 900.896C1023.01 881.522 990.718 902.492 1000.38 928.43L1077.65 1135.91L996.238 930.019C986.061 904.28 948.031 910.303 946.306 937.927L932.505 1158.89L941.878 937.695C943.049 910.042 905.858 900.077 893.046 924.611L790.563 1120.86L889.095 922.598C901.413 897.812 871.49 873.581 849.807 890.783L676.362 1028.38L847.017 887.337C868.351 869.704 850.87 835.397 824.066 842.293L609.65 897.45L822.918 838.01C849.579 830.579 847.564 792.128 820.272 787.525L601.958 750.702L820.966 783.145C848.344 787.201 862.143 751.255 839.083 735.949L654.62 613.513L841.498 732.23C864.86 747.071 892.086 719.845 877.245 696.483L758.529 509.605L880.964 694.068C896.27 717.128 932.216 703.329 928.16 675.951L895.717 456.943Z" stroke="#004ECC" stroke-width="2"/>
<path opacity="0.931035" d="M914.901 462.53L939.368 674.839C942.536 702.335 980.829 706.36 989.645 680.124L1057.72 477.542L993.716 681.446C985.427 707.854 1018.77 727.105 1037.5 706.723L1182.08 549.343L1040.68 709.587C1022.36 730.34 1045 761.49 1070.39 750.487L1266.49 665.521L1072.13 754.397C1046.96 765.907 1054.97 803.569 1082.64 803.846L1296.35 805.986L1082.64 808.127C1054.97 808.404 1046.96 846.066 1072.13 857.576L1266.49 946.452L1070.39 861.486C1045 850.483 1022.37 881.633 1040.68 902.385L1182.08 1062.63L1037.5 905.249C1018.77 884.867 985.427 904.119 993.716 930.527L1057.72 1134.43L989.645 931.849C980.829 905.613 942.536 909.638 939.368 937.134L914.902 1149.44L935.111 936.686C937.728 909.133 901.109 897.234 887.031 921.064L778.327 1105.07L883.324 918.924C896.922 894.817 868.309 869.053 845.755 885.097L671.608 1008.98L843.239 881.634C865.467 865.142 849.806 829.967 822.677 835.45L613.2 877.788L821.787 831.263C848.801 825.238 848.801 786.735 821.787 780.709L613.199 734.185L822.677 776.523C849.806 782.006 865.467 746.831 843.239 730.339L671.608 602.997L845.755 726.876C868.309 742.92 896.922 717.156 883.324 693.049L778.327 506.907L887.031 690.909C901.109 714.738 937.728 702.84 935.111 675.287L914.901 462.53Z" stroke="#004ECC" stroke-width="2"/>
<path opacity="0.965517" d="M933.347 469.147L946.19 674.776C947.915 702.4 985.944 708.423 996.121 682.684L1071.88 491.089L999.974 684.163C990.314 710.1 1022.61 731.071 1042.37 711.697L1189.51 567.479L1045.29 714.615C1025.92 734.381 1046.89 766.672 1072.82 757.013L1265.9 685.109L1074.3 760.865C1048.56 771.042 1054.59 809.072 1082.21 810.797L1287.84 823.64L1081.99 814.918C1054.34 813.746 1044.38 850.938 1068.91 863.749L1251.54 959.119L1067.04 867.426C1042.25 855.108 1018.02 885.031 1035.22 906.714L1163.27 1068.12L1032.02 909.311C1014.38 887.977 980.076 905.457 986.971 932.262L1038.3 1131.79L982.986 933.33C975.555 906.668 937.104 908.684 932.501 935.976L898.235 1139.13L928.425 935.33C932.481 907.951 896.535 894.153 881.229 917.213L767.293 1088.87L877.768 914.966C892.609 891.604 865.383 864.377 842.021 879.219L668.115 989.694L839.774 875.758C862.834 860.452 849.035 824.506 821.657 828.561L617.853 858.752L821.011 824.486C848.303 819.883 850.318 781.432 823.657 774.001L625.192 718.687L824.725 770.015C851.53 776.911 869.01 742.604 847.676 724.971L688.868 593.716L850.273 721.764C871.956 738.966 901.878 714.735 889.561 689.95L797.869 505.449L893.237 688.076C906.049 712.61 943.241 702.645 942.069 674.992L933.347 469.147Z" stroke="#004ECC" stroke-width="2"/>
<path d="M951 476.729L952.986 675.065C953.264 702.741 990.926 710.746 1002.44 685.576L1084.92 505.197L1006.06 687.191C995.061 712.587 1026.21 735.219 1046.96 716.906L1195.68 585.67L1049.62 719.859C1029.24 738.583 1048.49 771.929 1074.9 763.64L1264.14 704.24L1076.13 767.418C1049.89 776.234 1053.92 814.526 1081.41 817.695L1278.45 840.402L1081 821.646C1053.44 819.028 1041.54 855.648 1065.37 869.726L1236.14 970.613L1063.39 873.166C1039.28 859.568 1013.52 888.182 1029.56 910.735L1144.53 1072.36L1026.35 913.07C1009.85 890.842 974.68 906.503 980.163 933.632L1019.46 1128.05L976.277 934.458C970.252 907.444 931.748 907.444 925.723 934.458L882.544 1128.04L921.837 933.632C927.32 906.503 892.146 890.842 875.654 913.07L757.469 1072.36L872.44 910.735C888.483 888.182 862.72 859.568 838.613 873.166L665.856 970.614L836.626 869.726C860.456 855.648 848.558 819.028 821.004 821.646L623.549 840.402L820.589 817.695C848.085 814.526 852.109 776.234 825.873 767.418L637.86 704.24L827.101 763.64C853.508 771.929 872.76 738.583 852.378 719.859L706.315 585.67L855.036 716.906C875.789 735.219 906.939 712.588 895.935 687.191L817.08 505.196L899.564 685.576C911.074 710.746 948.737 702.741 949.014 675.065L951 476.729Z" stroke="#004ECC" stroke-width="2"/>
</g>
<defs>
<filter id="filter0_f_1189_37293" x="-6.10352e-05" y="220" width="1931" height="1523" filterUnits="userSpaceOnUse" color-interpolation-filters="sRGB">
<feFlood flood-opacity="0" result="BackgroundImageFix"/>
<feBlend mode="normal" in="SourceGraphic" in2="BackgroundImageFix" result="shape"/>
<feGaussianBlur stdDeviation="197.5" result="effect1_foregroundBlur_1189_37293"/>
</filter>
</defs>
</svg>
