<svg width="1512" height="1743" viewBox="0 0 1512 1743" fill="none" xmlns="http://www.w3.org/2000/svg">
<g opacity="0.5" filter="url(#filter0_f_1189_37293)">
<ellipse cx="770.5" cy="981.5" rx="570.5" ry="366.5" transform="rotate(180 770.5 981.5)" fill="#4264FB"/>
</g>
<g opacity="0.2">
<path opacity="0.0344828" d="M204.497 748.034L616.149 787.137C643.702 789.754 655.601 753.135 631.771 739.057L275.756 528.73L635.912 731.885C660.019 745.483 685.783 716.869 669.739 694.315L430.049 357.365L676.439 689.448C692.931 711.675 728.106 696.014 722.623 668.885L640.705 263.576L730.723 667.163C736.749 694.177 775.252 694.177 781.278 667.164L871.296 263.577L789.378 668.885C783.895 696.014 819.07 711.675 835.562 689.448L1081.95 357.367L842.262 694.315C826.219 716.869 851.982 745.483 876.089 731.885L1236.25 528.729L880.23 739.057C856.401 753.135 868.299 789.754 895.852 787.137L1307.5 748.034L896.718 795.373C869.222 798.541 865.198 836.834 891.433 845.65L1283.4 977.362L888.874 853.527C862.467 845.238 843.215 878.583 863.597 897.308L1168.1 1177.06L858.056 903.462C837.303 885.149 806.153 907.781 817.157 933.177L981.553 1312.6L809.591 936.546C798.081 911.375 760.419 919.38 760.141 947.056L756.001 1360.54L751.86 947.057C751.583 919.38 713.92 911.375 702.41 936.546L530.449 1312.6L694.845 933.177C705.848 907.781 674.698 885.149 653.945 903.462L343.896 1177.06L648.404 897.308C668.786 878.583 649.534 845.238 623.127 853.526L228.602 977.362L620.568 845.65C646.803 836.834 642.779 798.542 615.283 795.373L204.497 748.034Z" stroke="#004ECC" stroke-width="2"/>
<path opacity="0.0689655" d="M216.233 720.51L617.673 779.977C645.052 784.033 658.85 748.087 635.79 732.781L297.673 508.359L640.217 725.964C663.579 740.805 690.805 713.579 675.964 690.217L458.357 347.67L682.78 685.79C698.086 708.851 734.032 695.052 729.977 667.673L670.509 266.233L738.004 666.402C742.608 693.694 781.059 695.709 788.489 669.048L897.443 278.128L796.34 671.151C789.445 697.956 823.752 715.436 841.384 694.102L1099.92 381.295L847.701 699.217C830.499 720.9 854.73 750.823 879.516 738.505L1242.93 557.897L883.205 745.747C858.672 758.559 868.637 795.751 896.29 794.579L1301.75 777.399L896.715 802.696C869.092 804.421 863.068 842.45 888.807 852.627L1266.2 1001.85L885.894 860.215C859.957 850.556 838.986 882.848 858.36 902.613L1142.43 1192.43L852.613 908.361C832.847 888.987 800.555 909.957 810.215 935.895L951.847 1316.2L802.627 938.807C792.45 913.069 754.42 919.092 752.695 946.716L727.399 1351.75L744.578 946.29C745.75 918.638 708.559 908.672 695.747 933.206L507.897 1292.93L688.505 929.516C700.823 904.731 670.9 880.499 649.217 897.701L331.294 1149.92L644.102 891.385C665.436 873.752 647.956 839.445 621.151 846.341L228.127 947.444L619.047 838.49C645.709 831.059 643.693 792.608 616.401 788.005L216.233 720.51Z" stroke="#004ECC" stroke-width="2"/>
<path opacity="0.103448" d="M229.317 694.049L619.562 772.923C646.691 778.406 662.352 743.231 640.124 726.739L320.387 489.508L644.811 720.288C667.365 736.332 695.978 710.568 682.381 686.461L486.775 339.688L689.286 682.474C703.364 706.303 739.983 694.405 737.366 666.852L699.717 270.5L745.296 666.018C748.465 693.514 786.757 697.538 795.573 671.303L922.39 293.905L803.157 673.767C794.868 700.174 828.213 719.426 846.938 699.044L1116.29 405.854L852.864 704.379C834.551 725.132 857.183 756.282 882.579 745.278L1247.9 586.993L885.822 752.563C860.651 764.073 868.657 801.735 896.333 802.012L1294.45 805.999L896.333 809.986C868.657 810.263 860.652 847.926 885.822 859.436L1247.9 1025.01L882.579 866.72C857.183 855.717 834.551 886.867 852.864 907.62L1116.29 1206.14L846.938 912.955C828.213 892.573 794.868 911.825 803.157 938.232L922.39 1318.1L795.573 940.696C786.757 914.46 748.465 918.485 745.296 945.981L699.717 1341.5L737.366 945.147C739.983 917.594 703.364 905.695 689.286 929.525L486.775 1272.31L682.381 925.538C695.979 901.431 667.365 875.667 644.811 891.711L320.386 1122.49L640.125 885.26C662.352 868.768 646.691 833.593 619.562 839.076L229.317 917.949L617.904 831.276C644.918 825.251 644.918 786.748 617.904 780.722L229.317 694.049Z" stroke="#004ECC" stroke-width="2"/>
<path opacity="0.137931" d="M243.671 668.722L621.811 765.996C648.616 772.892 666.096 738.585 644.762 720.952L343.801 472.208L649.683 714.875C671.366 732.077 701.289 707.845 688.971 683.06L515.202 333.406L695.939 679.51C708.751 704.044 745.942 694.078 744.77 666.425L728.241 276.324L752.58 666.016C754.305 693.64 792.335 699.663 802.512 673.925L946.08 310.827L809.812 676.727C800.153 702.664 832.445 723.635 852.21 704.261L1131.05 430.949L857.74 709.79C838.366 729.556 859.337 761.848 885.274 752.189L1251.17 615.922L888.076 759.489C862.338 769.666 868.361 807.696 895.985 809.421L1285.68 833.759L895.575 817.23C867.923 816.059 857.957 853.25 882.491 866.062L1228.59 1046.8L878.941 873.03C854.155 860.712 829.924 890.635 847.126 912.318L1089.79 1218.2L841.049 917.239C823.416 895.905 789.109 913.385 796.005 940.19L893.28 1318.33L788.451 942.214C781.02 915.553 742.569 917.568 737.966 944.86L673.027 1329.87L730.242 943.636C734.298 916.258 698.352 902.459 683.046 925.519L467.122 1250.83L676.488 921.26C691.329 897.898 664.103 870.672 640.741 885.513L311.167 1094.88L636.481 878.955C659.542 863.649 645.743 827.703 618.364 831.758L232.128 888.973L617.141 824.035C644.433 819.431 646.448 780.981 619.787 773.55L243.671 668.722Z" stroke="#004ECC" stroke-width="2"/>
<path opacity="0.172414" d="M259.208 644.583L624.408 759.214C650.815 767.502 670.067 734.157 649.685 715.432L367.814 456.477L654.815 709.735C675.568 728.048 706.718 705.417 695.714 680.02L543.537 328.802L702.717 676.902C714.227 702.073 751.89 694.068 752.167 666.392L756 283.643L759.833 666.391C760.11 694.068 797.772 702.073 809.282 676.902L968.461 328.805L816.286 680.02C805.282 705.417 836.432 728.048 857.185 709.735L1144.19 456.476L862.314 715.432C841.933 734.157 861.184 767.502 887.592 759.214L1252.79 644.584L889.96 766.504C863.725 775.32 867.749 813.613 895.245 816.782L1275.5 860.602L894.443 824.406C866.89 821.789 854.992 858.408 878.821 872.486L1208.37 1067.18L874.988 879.125C850.882 865.527 825.118 894.141 841.161 916.694L1063.03 1228.6L834.959 921.2C818.467 898.972 783.292 914.633 788.775 941.762L864.604 1316.94L781.277 943.356C775.252 916.342 736.748 916.342 730.723 943.356L647.396 1316.94L723.224 941.762C728.707 914.633 693.532 898.972 677.041 921.2L448.966 1228.6L670.839 916.694C686.882 894.141 661.118 865.527 637.011 879.125L303.625 1067.18L633.178 872.486C657.008 858.408 645.11 821.789 617.556 824.406L236.505 860.602L616.755 816.782C644.25 813.613 648.275 775.32 622.039 766.505L259.208 644.583Z" stroke="#004ECC" stroke-width="2"/>
<path opacity="0.206897" d="M275.848 621.688L627.348 752.592C653.285 762.252 674.255 729.96 654.882 710.194L392.329 442.329L660.193 704.882C679.959 724.256 712.251 703.286 702.592 677.348L571.687 325.848L709.605 674.656C719.782 700.395 757.811 694.372 759.537 666.748L782.917 292.393L767.039 667.141C765.867 694.794 803.059 704.759 815.87 680.225L989.492 347.747L822.564 683.636C810.246 708.421 840.169 732.652 861.852 715.451L1155.69 482.334L866.579 721.289C845.245 738.921 862.725 773.228 889.53 766.333L1252.78 672.888L891.474 773.589C864.813 781.02 866.828 819.471 894.12 824.074L1263.98 886.457L892.945 831.494C865.566 827.438 851.768 863.384 874.828 878.69L1187.34 1086.11L870.737 884.99C847.375 870.149 820.149 897.375 834.99 920.737L1036.11 1237.34L828.689 924.829C813.383 901.769 777.437 915.567 781.493 942.946L836.456 1313.98L774.073 944.121C769.47 916.829 731.019 914.814 723.588 941.475L622.887 1302.79L716.332 939.531C723.228 912.726 688.921 895.246 671.288 916.58L432.334 1205.7L665.45 911.852C682.652 890.169 658.421 860.246 633.635 872.564L297.746 1039.49L630.225 865.871C654.759 853.059 644.793 815.868 617.14 817.039L242.394 832.918L616.747 809.537C644.371 807.812 650.394 769.783 624.656 759.606L275.848 621.688Z" stroke="#004ECC" stroke-width="2"/>
<path opacity="0.241379" d="M293.503 600.083L630.619 746.149C656.015 757.153 678.647 726.003 660.334 705.25L417.244 429.773L665.802 700.327C684.527 720.708 717.872 701.457 709.583 675.049L599.555 324.511L716.581 672.776C725.397 699.011 763.69 694.987 766.858 667.491L808.919 302.508L774.176 668.26C771.559 695.814 808.178 707.712 822.256 683.883L1009.13 367.563L828.629 687.562C815.031 711.668 843.645 737.432 866.198 721.389L1165.58 508.425L870.523 727.342C848.295 743.834 863.956 779.009 891.085 773.526L1251.2 700.742L892.615 780.723C865.601 786.748 865.601 825.252 892.615 831.277L1251.2 911.259L891.085 838.475C863.956 832.992 848.295 868.166 870.523 884.658L1165.58 1103.58L866.198 890.611C843.645 874.568 815.031 900.332 828.629 924.439L1009.13 1244.44L822.256 928.118C808.178 904.288 771.559 916.186 774.176 943.74L808.919 1309.49L766.858 944.509C763.69 917.013 725.397 912.989 716.581 939.225L599.556 1287.49L709.583 936.951C717.872 910.544 684.527 891.292 665.802 911.674L417.243 1182.23L660.334 906.75C678.647 885.997 656.015 854.847 630.619 865.851L293.503 1011.92L627.626 859.129C652.796 847.619 644.791 809.956 617.115 809.679L249.735 806L617.115 802.321C644.791 802.044 652.796 764.382 627.626 752.872L293.503 600.083Z" stroke="#004ECC" stroke-width="2"/>
<path opacity="0.275862" d="M312.083 579.815L634.211 739.904C658.996 752.222 683.227 722.299 666.025 700.616L442.462 418.814L671.624 696.082C689.257 717.416 723.564 699.936 716.668 673.131L627.051 324.757L723.627 671.266C731.058 697.928 769.509 695.912 774.112 668.62L833.939 313.915L781.228 669.747C777.172 697.126 813.118 710.925 828.424 687.864L1027.35 388.16L834.466 691.788C819.625 715.15 846.851 742.376 870.214 727.535L1173.84 534.652L874.137 733.578C851.077 748.883 864.876 784.83 892.254 780.774L1248.08 728.063L893.381 787.89C866.089 792.493 864.074 830.944 890.736 838.374L1237.24 934.95L888.871 845.333C862.066 838.438 844.586 872.745 865.92 890.377L1143.19 1119.54L861.386 895.976C839.703 878.775 809.78 903.006 822.098 927.791L982.187 1249.92L815.679 931.062C802.867 906.528 765.676 916.494 766.847 944.146L782.075 1303.54L759.653 944.523C757.927 916.9 719.898 910.876 709.721 936.615L577.455 1271.13L702.995 934.033C712.655 908.096 680.363 887.125 660.597 906.499L403.706 1158.3L655.503 901.405C674.877 881.639 653.906 849.347 627.969 859.007L290.872 984.547L625.387 852.281C651.125 842.104 645.102 804.074 617.478 802.349L258.464 779.927L617.856 795.154C645.508 796.326 655.474 759.135 630.94 746.323L312.083 579.815Z" stroke="#004ECC" stroke-width="2"/>
<path opacity="0.310345" d="M331.496 560.913L638.112 733.867C662.219 747.465 687.982 718.851 671.939 696.298L467.884 409.443L677.643 692.154C694.135 714.381 729.31 698.72 723.827 671.591L654.087 326.537L730.723 670.125C736.748 697.139 775.252 697.139 781.277 670.125L857.913 326.537L788.174 671.591C782.691 698.72 817.865 714.381 834.357 692.154L1044.12 409.442L840.061 696.298C824.018 718.851 849.782 747.465 873.888 733.867L1180.5 560.914L877.414 739.973C853.584 754.051 865.482 790.67 893.036 788.053L1243.49 754.763L893.773 795.064C866.277 798.233 862.252 836.526 888.488 845.342L1222.18 957.472L886.31 852.047C859.902 843.758 840.651 877.103 861.033 895.828L1120.27 1133.99L856.315 901.068C835.562 882.755 804.412 905.387 815.416 930.783L955.371 1253.8L808.975 933.65C797.465 908.48 759.802 916.485 759.525 944.161L756 1296.17L752.475 944.161C752.198 916.485 714.536 908.48 703.025 933.65L556.629 1253.8L696.584 930.783C707.588 905.387 676.438 882.755 655.685 901.068L391.73 1133.99L650.968 895.828C671.35 877.103 652.098 843.758 625.691 852.047L289.818 957.472L623.512 845.342C649.748 836.526 645.723 798.233 618.227 795.064L268.512 754.763L618.964 788.053C646.518 790.67 658.416 754.051 634.586 739.973L331.496 560.913Z" stroke="#004ECC" stroke-width="2"/>
<path opacity="0.344828" d="M351.653 543.415L642.31 728.058C665.672 742.899 692.899 715.673 678.057 692.311L493.416 401.656L683.841 688.554C699.147 711.615 735.094 697.816 731.038 670.437L680.579 329.809L737.849 669.359C742.453 696.651 780.904 698.666 788.334 672.004L880.784 340.301L794.996 673.789C788.101 700.594 822.408 718.074 840.04 696.741L1059.41 431.318L845.4 701.081C828.198 722.763 852.429 752.686 877.215 740.369L1185.58 587.119L880.346 746.514C855.812 759.325 865.777 796.517 893.43 795.345L1237.46 780.768L893.791 802.232C866.167 803.957 860.144 841.987 885.882 852.164L1206.11 978.78L883.411 858.603C857.474 848.943 836.503 881.235 855.877 901.001L1096.92 1146.92L851.001 905.878C831.235 886.504 798.943 907.474 808.602 933.411L928.779 1256.1L802.164 935.883C791.987 910.144 753.957 916.167 752.232 943.791L730.767 1287.47L745.345 943.43C746.516 915.778 709.325 905.812 696.513 930.346L537.119 1235.58L690.368 927.215C702.686 902.429 672.763 878.198 651.08 895.4L381.317 1109.41L646.74 890.04C668.074 872.408 650.594 838.101 623.789 844.996L290.301 930.784L622.004 838.335C648.665 830.904 646.65 792.453 619.358 787.85L279.809 730.579L620.437 781.038C647.816 785.094 661.614 749.148 638.554 733.842L351.653 543.415Z" stroke="#004ECC" stroke-width="2"/>
<path opacity="0.37931" d="M372.459 527.342L646.793 722.49C669.346 738.533 697.96 712.769 684.362 688.662L518.96 395.435L690.201 685.291C704.279 709.121 740.898 697.222 738.281 669.669L706.445 334.516L744.987 668.964C748.155 696.46 786.448 700.484 795.264 674.248L902.499 355.122L801.677 676.332C793.388 702.739 826.733 721.991 845.458 701.609L1073.22 453.69L850.469 706.121C832.156 726.874 854.787 758.024 880.184 747.02L1189.09 613.174L882.926 753.18C857.755 764.69 865.761 802.352 893.437 802.629L1230.08 806.001L893.437 809.372C865.761 809.649 857.755 847.311 882.926 858.821L1189.1 998.827L880.184 864.981C854.787 853.977 832.156 885.127 850.469 905.88L1073.22 1158.31L845.458 910.392C826.733 890.01 793.388 909.262 801.677 935.669L902.499 1256.88L795.264 937.753C786.448 911.517 748.155 915.542 744.987 943.037L706.445 1277.49L738.281 942.332C740.898 914.779 704.279 902.881 690.201 926.71L518.959 1216.57L684.362 923.339C697.96 899.232 669.346 873.468 646.793 889.511L372.46 1084.66L642.829 884.057C665.057 867.565 649.396 832.39 622.267 837.873L292.278 904.568L620.865 831.278C647.879 825.252 647.879 786.749 620.865 780.724L292.278 707.433L622.267 774.128C649.396 779.611 665.057 744.436 642.829 727.945L372.459 527.342Z" stroke="#004ECC" stroke-width="2"/>
<path opacity="0.413793" d="M393.822 512.716L651.546 717.177C673.229 734.379 703.152 710.148 690.834 685.362L544.425 390.762L696.705 682.371C709.516 706.905 746.708 696.939 745.536 669.287L731.61 340.604L752.116 668.942C753.841 696.566 791.871 702.589 802.048 676.85L923.013 370.919L808.199 679.212C798.539 705.149 830.831 726.119 850.597 706.745L1085.54 476.465L855.256 711.404C835.882 731.17 856.853 763.462 882.79 753.803L1191.08 638.989L885.151 759.954C859.413 770.131 865.436 808.16 893.06 809.886L1221.39 830.392L892.715 816.465C865.062 815.294 855.097 852.485 879.63 865.297L1171.24 1017.58L876.639 871.167C851.854 858.85 827.623 888.773 844.824 910.455L1049.29 1168.18L839.704 914.602C822.071 893.268 787.764 910.748 794.66 937.553L876.618 1256.15L788.296 939.258C780.865 912.597 742.414 914.612 737.811 941.904L683.096 1266.3L731.303 940.873C735.359 913.495 699.413 899.696 684.107 922.756L502.179 1196.85L678.581 919.168C693.422 895.806 666.196 868.58 642.834 883.421L365.15 1059.82L639.245 877.895C662.305 862.589 648.507 826.643 621.128 830.699L295.702 878.906L620.097 824.191C647.389 819.588 649.404 781.137 622.743 773.706L305.845 685.383L624.448 767.342C651.253 774.237 668.734 739.93 647.4 722.298L393.822 512.716Z" stroke="#004ECC" stroke-width="2"/>
<path opacity="0.448276" d="M415.647 499.545L656.556 712.131C677.309 730.444 708.459 707.812 697.455 682.416L569.72 387.609L703.333 679.799C714.844 704.969 752.506 696.964 752.783 669.288L756 348.011L759.218 669.288C759.495 696.964 797.157 704.969 808.667 679.799L942.282 387.606L814.546 682.416C803.542 707.812 834.692 730.444 855.445 712.131L1096.35 499.547L859.751 716.913C839.369 735.638 858.621 768.983 885.028 760.694L1191.57 664.474L887.016 766.814C860.781 775.63 864.805 813.923 892.301 817.091L1211.48 853.873L891.628 823.491C864.075 820.874 852.176 857.493 876.006 871.571L1152.63 1035L872.789 877.144C848.682 863.546 822.918 892.159 838.961 914.713L1025.2 1176.52L833.755 918.495C817.264 896.268 782.089 911.928 787.572 939.057L851.222 1253.98L781.278 940.395C775.252 913.382 736.749 913.381 730.723 940.395L660.779 1253.98L724.429 939.057C729.912 911.928 694.737 896.268 678.245 918.495L486.801 1176.52L673.04 914.713C689.083 892.159 663.319 863.546 639.212 877.144L359.37 1035L635.995 871.571C659.824 857.493 647.926 820.874 620.373 823.491L300.52 853.874L619.7 817.091C647.196 813.923 651.22 775.63 624.984 766.814L320.427 664.474L626.973 760.694C653.38 768.983 672.632 735.638 652.25 716.913L415.647 499.545Z" stroke="#004ECC" stroke-width="2"/>
<path opacity="0.482759" d="M437.841 487.841L661.806 707.365C681.572 726.739 713.864 705.768 704.204 679.831L594.755 385.943L710.068 677.58C720.245 703.319 758.275 697.295 760 669.672L779.548 356.674L766.272 670C765.1 697.653 802.292 707.618 815.104 683.085L960.271 405.096L820.7 685.936C808.382 710.722 838.305 734.953 859.988 717.751L1105.67 522.842L863.941 722.632C842.607 740.265 860.087 774.572 886.892 767.676L1190.61 689.546L888.518 773.743C861.856 781.174 863.871 819.625 891.163 824.228L1200.4 876.386L890.181 830.432C862.802 826.376 849.004 862.322 872.064 877.628L1133.36 1051.06L868.643 882.896C845.281 868.055 818.055 895.281 832.896 918.643L1001.06 1183.35L827.628 922.064C812.322 899.004 776.376 912.802 780.432 940.181L826.387 1250.4L774.228 941.163C769.625 913.871 731.174 911.856 723.743 938.518L639.546 1240.61L717.676 936.892C724.572 910.087 690.265 892.607 672.632 913.941L472.842 1155.67L667.751 909.988C684.953 888.305 660.722 858.382 635.936 870.7L355.096 1010.27L633.085 865.104C657.618 852.292 647.653 815.101 620 816.272L306.673 829.548L619.672 810C647.295 808.275 653.318 770.245 627.58 760.068L335.941 644.755L629.831 754.204C655.768 763.864 676.739 731.572 657.365 711.806L437.841 487.841Z" stroke="#004ECC" stroke-width="2"/>
<path opacity="0.517241" d="M460.312 477.606L667.283 702.892C686.008 723.274 719.353 704.022 711.064 677.615L619.447 385.732L716.891 675.721C725.707 701.957 764 697.932 767.168 670.437L802.191 366.524L773.262 671.077C770.644 698.631 807.264 710.529 821.342 686.699L976.95 423.305L826.648 689.763C813.05 713.87 841.664 739.634 864.217 723.59L1113.5 546.26L867.818 728.547C845.591 745.039 861.252 780.214 888.381 774.731L1188.24 714.125L889.654 780.724C862.641 786.749 862.641 825.253 889.654 831.278L1188.24 897.876L888.381 837.271C861.252 831.788 845.591 866.963 867.818 883.455L1113.5 1065.74L864.217 888.412C841.664 872.368 813.05 898.132 826.648 922.239L976.949 1188.7L821.342 925.303C807.264 901.473 770.644 913.371 773.262 940.925L802.191 1245.48L767.168 941.565C764 914.07 725.707 910.045 716.891 936.281L619.446 1226.27L711.064 934.388C719.353 907.98 686.008 888.729 667.283 909.11L460.313 1134.39L662.729 905.011C681.042 884.258 658.41 853.108 633.014 864.111L352.306 985.738L630.522 858.514C655.693 847.004 647.688 809.342 620.011 809.065L314.103 806.001L620.011 802.938C647.688 802.66 655.693 764.998 630.522 753.488L352.306 626.265L633.014 747.891C658.41 758.894 681.042 727.744 662.729 706.992L460.312 477.606Z" stroke="#004ECC" stroke-width="2"/>
<path opacity="0.551724" d="M482.968 468.833L672.969 698.718C690.601 720.052 724.908 702.572 718.013 675.767L643.712 386.933L723.782 674.221C731.213 700.883 769.664 698.868 774.267 671.575L823.87 377.489L780.167 672.51C776.111 699.889 812.057 713.687 827.363 690.627L992.294 442.14L832.373 693.88C817.532 717.242 844.758 744.468 868.12 729.627L1119.86 569.708L871.373 734.637C848.313 749.943 862.112 785.889 889.49 781.833L1184.51 738.13L890.425 787.733C863.133 792.336 861.118 830.787 887.779 838.218L1175.07 918.288L886.233 843.987C859.428 837.092 841.948 871.399 863.282 889.032L1093.17 1079.03L859.523 893.674C837.84 876.472 807.917 900.703 820.235 925.488L952.965 1192.56L814.913 928.2C802.101 903.666 764.909 913.632 766.081 941.284L778.706 1239.26L760.116 941.597C758.391 913.973 720.361 907.95 710.184 933.689L600.521 1211.04L704.608 931.548C714.267 905.611 681.976 884.64 662.21 904.014L449.221 1112.78L657.986 899.791C677.36 880.025 656.389 847.733 630.452 857.392L350.964 961.479L628.312 851.816C654.05 841.639 648.027 803.609 620.403 801.884L322.744 783.294L620.716 795.919C648.368 797.091 658.334 759.899 633.8 747.088L369.435 609.035L636.512 741.765C661.297 754.083 685.528 724.16 668.327 702.477L482.968 468.833Z" stroke="#004ECC" stroke-width="2"/>
<path opacity="0.586207" d="M505.718 461.517L678.847 694.86C695.339 717.087 730.514 701.426 725.031 674.297L667.47 389.502L730.723 673.088C736.748 700.101 775.252 700.101 781.277 673.088L844.53 389.5L786.969 674.297C781.486 701.426 816.661 717.087 833.153 694.86L1006.28 461.516L837.861 698.28C821.817 720.834 847.581 749.447 871.688 735.849L1124.76 593.099L874.598 740.889C850.768 754.967 862.666 791.586 890.22 788.969L1179.47 761.492L890.828 794.756C863.332 797.925 859.308 836.217 885.544 845.033L1160.96 937.582L883.745 850.568C857.338 842.279 838.086 875.624 858.468 894.349L1072.44 1090.92L854.574 898.674C833.822 880.361 802.672 902.993 813.675 928.389L929.191 1194.99L808.359 930.755C796.849 905.585 759.187 913.59 758.91 941.266L756 1231.81L753.09 941.266C752.813 913.59 715.151 905.585 703.641 930.755L582.809 1195L698.325 928.389C709.329 902.992 678.178 880.361 657.426 898.674L439.565 1090.92L653.532 894.349C673.914 875.624 654.662 842.279 628.255 850.568L351.034 937.583L626.457 845.033C652.692 836.217 648.668 797.925 621.172 794.756L332.527 761.493L621.78 788.969C649.334 791.586 661.232 754.967 637.402 740.889L387.241 593.098L640.312 735.849C664.419 749.447 690.183 720.833 674.139 698.28L505.718 461.517Z" stroke="#004ECC" stroke-width="2"/>
<path opacity="0.62069" d="M528.471 455.636L684.903 691.318C700.208 714.378 736.155 700.58 732.099 673.201L690.648 393.385L737.694 672.315C742.298 699.607 780.749 701.622 788.179 674.96L864.124 402.475L793.652 676.427C786.756 703.232 821.063 720.712 838.696 699.378L1018.9 481.34L843.099 702.943C825.897 724.626 850.128 754.549 874.913 742.231L1128.23 616.341L877.485 747.279C852.952 760.091 862.917 797.282 890.57 796.111L1173.19 784.136L890.866 801.768C863.243 803.494 857.219 841.523 882.958 851.7L1146.01 955.711L880.928 856.989C854.99 847.33 834.02 879.622 853.394 899.387L1051.4 1101.4L849.388 903.393C829.622 884.019 797.33 904.99 806.989 930.927L905.712 1196.01L801.7 932.958C791.523 907.219 753.494 913.242 751.769 940.866L734.136 1223.19L746.111 940.569C747.283 912.917 710.091 902.951 697.279 927.485L566.341 1178.23L692.232 924.913C704.549 900.128 674.626 875.897 652.944 893.098L431.34 1068.9L649.378 888.695C670.712 871.063 653.232 836.756 626.427 843.651L352.475 914.124L624.961 838.179C651.622 830.748 649.607 792.297 622.315 787.694L343.383 740.648L623.201 782.098C650.58 786.154 664.379 750.208 641.318 734.902L405.637 578.471L644.404 730.151C667.766 744.992 694.992 717.766 680.151 694.404L528.471 455.636Z" stroke="#004ECC" stroke-width="2"/>
<path opacity="0.655172" d="M551.142 451.177L691.116 688.107C705.194 711.937 741.813 700.039 739.196 672.485L713.173 398.533L744.677 671.909C747.846 699.405 786.139 703.429 794.955 677.193L882.608 416.34L800.196 678.896C791.907 705.304 825.252 724.556 843.977 704.174L1030.15 501.524L848.073 707.861C829.76 728.614 852.392 759.764 877.788 748.761L1130.29 639.355L880.03 753.796C854.859 765.306 862.865 802.968 890.541 803.245L1165.71 806.001L890.541 808.757C862.865 809.034 854.859 846.696 880.03 858.206L1130.29 972.646L877.788 863.241C852.392 852.237 829.76 883.387 848.073 904.14L1030.15 1110.48L843.977 907.828C825.253 887.446 791.907 906.698 800.196 933.105L882.608 1195.66L794.954 934.808C786.138 908.573 747.846 912.597 744.677 940.093L713.173 1213.47L739.196 939.517C741.813 911.963 705.194 900.065 691.116 923.895L551.142 1160.83L686.343 921.139C699.941 897.032 671.327 871.268 648.774 887.311L424.535 1046.82L645.534 882.853C667.762 866.361 652.101 831.186 624.972 836.669L355.238 891.185L623.826 831.278C650.84 825.253 650.84 786.749 623.826 780.724L355.239 720.817L624.972 775.333C652.101 780.816 667.762 745.641 645.534 729.149L424.534 565.177L648.774 724.69C671.327 740.734 699.941 714.97 686.343 690.863L551.142 451.177Z" stroke="#004ECC" stroke-width="2"/>
<path opacity="0.689655" d="M573.646 448.096L697.471 685.215C710.283 709.749 747.474 699.783 746.303 672.131L734.979 404.869L751.653 671.85C753.378 699.474 791.408 705.497 801.585 679.759L899.945 430.996L806.586 681.679C796.927 707.616 829.219 728.586 848.985 709.212L1040.02 521.963L852.773 713.001C833.399 732.767 854.37 765.059 880.307 755.399L1130.99 662.041L882.227 760.401C856.488 770.578 862.512 808.607 890.135 810.333L1157.12 827.007L889.855 815.683C862.202 814.511 852.237 851.703 876.77 864.514L1113.89 988.338L874.338 869.288C849.553 856.97 825.322 886.893 842.524 908.576L1008.78 1118.14L838.36 911.948C820.727 890.614 786.42 908.094 793.316 934.899L859.959 1193.97L788.141 936.285C780.71 909.624 742.259 911.639 737.656 938.931L693.166 1202.71L732.364 938.093C736.42 910.714 700.474 896.916 685.168 919.976L537.235 1142.85L680.675 917.058C695.516 893.696 668.289 866.47 644.927 881.311L419.134 1024.75L642.01 876.818C665.07 861.512 651.271 825.566 623.892 829.621L359.277 868.82L623.054 824.33C650.346 819.726 652.361 781.276 625.7 773.845L368.019 702.026L627.087 768.67C653.892 775.565 671.372 741.258 650.038 723.626L443.845 553.207L653.41 719.462C675.092 736.664 705.015 712.433 692.698 687.647L573.646 448.096Z" stroke="#004ECC" stroke-width="2"/>
<path opacity="0.724138" d="M595.899 446.393L703.949 682.679C715.459 707.85 753.121 699.845 753.398 672.169L756 412.365L758.602 672.169C758.879 699.845 796.541 707.85 808.051 682.679L916.101 446.394L812.805 684.796C801.801 710.192 832.952 732.824 853.704 714.511L1048.52 542.601L857.186 718.378C836.804 737.103 856.056 770.448 882.463 762.159L1130.36 684.35L884.071 767.108C857.835 775.924 861.86 814.217 889.356 817.385L1147.47 847.13L888.812 822.561C861.258 819.943 849.36 856.562 873.19 870.64L1096.89 1002.8L870.588 875.147C846.481 861.549 820.717 890.163 836.761 912.716L987.366 1124.43L832.551 915.775C816.059 893.547 780.884 909.208 786.367 936.337L837.839 1191.01L781.277 937.419C775.252 910.405 736.748 910.405 730.723 937.419L674.162 1191L725.633 936.337C731.116 909.208 695.941 893.547 679.45 915.775L524.634 1124.43L675.24 912.716C691.283 890.163 665.519 861.549 641.412 875.147L415.114 1002.8L638.811 870.64C662.64 856.562 650.742 819.943 623.188 822.561L364.533 847.13L622.645 817.385C650.14 814.217 654.165 775.924 627.929 767.108L381.643 684.349L629.537 762.159C655.944 770.448 675.196 737.103 654.814 718.378L463.482 542.601L658.296 714.511C679.049 732.824 710.199 710.192 699.195 684.796L595.899 446.393Z" stroke="#004ECC" stroke-width="2"/>
<path opacity="0.758621" d="M617.821 446.019L710.531 680.49C720.708 706.229 758.738 700.206 760.463 672.582L776.179 420.939L765.506 672.846C764.334 700.499 801.526 710.464 814.337 685.931L931.048 462.435L818.837 688.223C806.519 713.008 836.442 737.24 858.125 720.038L1055.65 563.335L861.303 723.962C839.969 741.595 857.449 775.902 884.254 769.006L1128.44 706.191L885.561 773.884C858.899 781.315 860.915 819.766 888.206 824.369L1136.83 866.303L887.417 829.357C860.038 825.301 846.239 861.247 869.3 876.553L1079.37 1015.98L866.549 880.788C843.187 865.947 815.961 893.173 830.802 916.535L966 1129.36L826.567 919.286C811.261 896.225 775.315 910.024 779.371 937.402L816.317 1186.81L774.383 938.193C769.78 910.901 731.329 908.885 723.898 935.547L656.206 1178.42L719.02 934.24C725.916 907.435 691.609 889.955 673.976 911.289L513.348 1105.64L670.052 908.111C687.254 886.428 663.023 856.505 638.237 868.823L412.449 981.033L635.945 864.323C660.478 851.512 650.513 814.32 622.86 815.492L370.951 826.165L622.596 810.449C650.22 808.724 656.243 770.694 630.504 760.517L396.033 667.808L632.314 755.803C658.251 765.462 679.222 733.17 659.848 713.404L483.356 533.342L663.418 709.834C683.184 729.208 715.476 708.237 705.817 682.3L617.821 446.019Z" stroke="#004ECC" stroke-width="2"/>
<path opacity="0.793103" d="M639.337 446.932L717.201 678.651C726.017 704.887 764.309 700.862 767.478 673.366L795.463 430.525L772.347 673.878C769.73 701.432 806.349 713.33 820.427 689.5L944.766 479.035L824.667 691.948C811.069 716.055 839.682 741.819 862.236 725.776L1061.43 584.079L865.114 729.736C842.886 746.228 858.547 781.403 885.676 775.92L1125.28 727.493L886.693 780.709C859.68 786.734 859.68 825.238 886.694 831.263L1125.28 884.479L885.676 836.052C858.547 830.569 842.886 865.744 865.113 882.235L1061.43 1027.89L862.236 886.196C839.682 870.153 811.069 895.917 824.667 920.024L944.766 1132.94L820.427 922.471C806.349 898.642 769.73 910.54 772.347 938.094L795.463 1181.45L767.478 938.605C764.309 911.11 726.017 907.085 717.201 933.321L639.337 1165.04L712.544 931.808C720.833 905.401 687.488 886.149 668.763 906.531L503.382 1086.55L665.125 903.255C683.438 882.502 660.806 851.352 635.41 862.356L411.109 959.541L633.419 857.883C658.589 846.373 650.584 808.711 622.908 808.434L378.469 805.986L622.908 803.538C650.584 803.261 658.589 765.599 633.418 754.089L411.109 652.43L635.41 749.616C660.806 760.62 683.438 729.47 665.125 708.717L503.383 525.426L668.763 705.441C687.488 725.823 720.833 706.571 712.544 680.164L639.337 446.932Z" stroke="#004ECC" stroke-width="2"/>
<path opacity="0.827586" d="M660.37 449.091L723.937 677.165C731.368 703.826 769.819 701.811 774.422 674.519L813.8 441.053L779.106 675.261C775.05 702.64 810.996 716.438 826.302 693.378L957.236 496.11L830.279 695.96C815.438 719.323 842.664 746.549 866.026 731.708L1065.88 604.751L868.609 735.685C845.549 750.991 859.347 786.937 886.726 782.881L1120.94 748.186L887.468 787.565C860.176 792.168 858.161 830.619 884.822 838.049L1112.89 901.616L883.595 842.63C856.79 835.734 839.309 870.041 860.643 887.674L1043.14 1038.51L857.659 891.359C835.976 874.157 806.054 898.388 818.371 923.174L923.743 1135.2L814.146 925.327C801.334 900.793 764.143 910.759 765.315 938.411L775.338 1174.96L760.579 938.659C758.854 911.036 720.824 905.012 710.647 930.751L623.589 1150.93L706.22 929.051C715.88 903.114 683.588 882.144 663.822 901.518L494.734 1067.25L660.469 898.165C679.843 878.399 658.872 846.107 632.935 855.766L411.057 938.398L631.236 851.339C656.974 841.162 650.951 803.133 623.327 801.408L387.021 786.649L623.576 796.672C651.228 797.844 661.194 760.652 636.66 747.841L426.787 638.244L638.813 743.615C663.598 755.933 687.829 726.01 670.628 704.327L523.476 518.843L674.313 701.343C691.945 722.677 726.252 705.197 719.357 678.392L660.37 449.091Z" stroke="#004ECC" stroke-width="2"/>
<path opacity="0.862069" d="M680.853 452.444L730.723 676.032C736.748 703.046 775.252 703.046 781.277 676.032L831.147 452.446L785.765 676.986C780.282 704.115 815.457 719.776 831.949 697.549L968.449 513.575L835.66 700.245C819.617 722.799 845.381 751.413 869.488 737.814L1069.02 625.266L871.782 741.788C847.952 755.866 859.85 792.485 887.404 789.868L1115.46 768.205L887.884 794.431C860.388 797.599 856.363 835.892 882.599 844.708L1099.75 917.676L881.181 849.071C854.774 840.783 835.522 874.128 855.904 892.853L1024.6 1047.83L852.834 896.262C832.081 877.949 800.931 900.581 811.935 925.977L903.011 1136.18L807.744 927.843C796.234 902.673 758.571 910.678 758.294 938.354L756 1167.42L753.706 938.354C753.429 910.678 715.767 902.673 704.257 927.843L608.99 1136.18L700.065 925.977C711.069 900.581 679.919 877.949 659.166 896.262L487.398 1047.84L656.096 892.853C676.478 874.128 657.226 840.783 630.819 849.071L412.252 917.676L629.401 844.708C655.637 835.892 651.612 797.599 624.117 794.431L396.541 768.205L624.596 789.868C652.15 792.485 664.048 755.866 640.219 741.788L442.985 625.266L642.513 737.814C666.619 751.412 692.383 722.799 676.34 700.245L543.552 513.575L680.052 697.549C696.544 719.776 731.718 704.115 726.235 676.986L680.853 452.444Z" stroke="#004ECC" stroke-width="2"/>
<path opacity="0.896552" d="M700.718 456.943L737.54 675.257C742.143 702.549 780.594 704.564 788.025 677.903L847.465 464.635L792.308 679.05C785.412 705.855 819.719 723.336 837.352 702.002L978.398 531.348L840.798 704.792C823.596 726.475 847.827 756.398 872.613 744.08L1070.88 645.548L874.626 748.031C850.092 760.843 860.057 798.034 887.71 796.863L1108.91 787.49L887.942 801.291C860.319 803.016 854.295 841.045 880.034 851.222L1085.92 932.63L878.445 855.362C852.508 845.703 831.537 877.994 850.911 897.76L1005.89 1055.87L847.776 900.896C828.01 881.522 795.718 902.492 805.377 928.43L882.645 1135.91L801.238 930.019C791.061 904.28 753.031 910.303 751.306 937.927L737.505 1158.89L746.878 937.695C748.049 910.042 710.858 900.077 698.046 924.611L595.564 1120.86L694.095 922.598C706.413 897.812 676.49 873.581 654.807 890.783L481.362 1028.38L652.017 887.337C673.351 869.704 655.871 835.397 629.066 842.293L414.65 897.45L627.918 838.01C654.579 830.579 652.564 792.128 625.272 787.525L406.958 750.702L625.966 783.145C653.344 787.201 667.143 751.255 644.083 735.949L459.62 613.514L646.498 732.23C669.86 747.071 697.086 719.845 682.245 696.483L563.529 509.605L685.964 694.068C701.27 717.128 737.216 703.329 733.16 675.951L700.718 456.943Z" stroke="#004ECC" stroke-width="2"/>
<path opacity="0.931035" d="M719.901 462.53L744.368 674.839C747.537 702.335 785.829 706.359 794.645 680.124L862.718 477.543L798.716 681.446C790.427 707.854 823.772 727.105 842.497 706.723L987.082 549.344L845.678 709.587C827.365 730.34 849.997 761.49 875.393 750.487L1071.49 665.521L877.134 754.397C851.963 765.907 859.969 803.569 887.645 803.846L1101.35 805.986L887.645 808.127C859.969 808.404 851.963 846.066 877.134 857.576L1071.49 946.452L875.393 861.486C849.997 850.483 827.365 881.633 845.678 902.385L987.081 1062.63L842.497 905.249C823.772 884.868 790.427 904.119 798.716 930.527L862.718 1134.43L794.645 931.849C785.829 905.613 747.537 909.638 744.368 937.134L719.902 1149.44L740.111 936.686C742.728 909.133 706.109 897.234 692.031 921.064L583.327 1105.06L688.324 918.924C701.922 894.817 673.309 869.053 650.755 885.097L476.607 1008.98L648.24 881.634C670.467 865.142 654.806 829.967 627.677 835.45L418.2 877.788L626.787 831.263C653.801 825.238 653.801 786.735 626.787 780.709L418.199 734.185L627.677 776.523C654.806 782.006 670.467 746.831 648.239 730.339L476.609 602.997L650.755 726.876C673.309 742.92 701.922 717.156 688.324 693.049L583.327 506.907L692.031 690.909C706.109 714.738 742.728 702.84 740.111 675.287L719.901 462.53Z" stroke="#004ECC" stroke-width="2"/>
<path opacity="0.965517" d="M738.347 469.147L751.19 674.776C752.915 702.4 790.944 708.423 801.121 682.684L876.878 491.089L804.974 684.163C795.314 710.1 827.606 731.071 847.372 711.697L994.508 567.479L850.29 714.615C830.916 734.381 851.886 766.672 877.824 757.013L1070.9 685.109L879.302 760.865C853.564 771.042 859.587 809.072 887.211 810.797L1092.84 823.64L886.995 814.918C859.342 813.746 849.377 850.938 873.91 863.749L1056.54 959.118L872.037 867.426C847.252 855.108 823.021 885.031 840.222 906.714L968.27 1068.12L837.016 909.311C819.383 887.977 785.076 905.457 791.971 932.262L843.3 1131.79L787.986 933.33C780.555 906.668 742.104 908.684 737.501 935.976L703.235 1139.13L733.425 935.33C737.481 907.951 701.535 894.153 686.229 917.213L572.293 1088.87L682.768 914.966C697.609 891.604 670.383 864.377 647.021 879.219L473.115 989.695L644.774 875.758C667.834 860.452 654.035 824.506 626.657 828.562L422.852 858.752L626.011 824.486C653.303 819.883 655.318 781.432 628.657 774.001L430.191 718.686L629.725 770.015C656.53 776.911 674.01 742.604 652.676 724.971L493.868 593.716L655.273 721.764C676.956 738.966 706.879 714.735 694.561 689.95L602.869 505.449L698.237 688.076C711.049 712.61 748.241 702.645 747.069 674.992L738.347 469.147Z" stroke="#004ECC" stroke-width="2"/>
<path d="M756 476.729L757.986 675.065C758.264 702.741 795.926 710.746 807.436 685.576L889.92 505.197L811.065 687.191C800.061 712.587 831.211 735.219 851.964 716.906L1000.68 585.671L854.622 719.859C834.24 738.583 853.492 771.929 879.899 763.64L1069.14 704.24L881.127 767.418C854.891 776.234 858.916 814.526 886.411 817.695L1083.45 840.402L885.996 821.646C858.442 819.028 846.544 855.648 870.374 869.726L1041.14 970.613L868.388 873.166C844.281 859.568 818.517 888.182 834.56 910.735L949.531 1072.36L831.346 913.07C814.855 890.842 779.68 906.503 785.163 933.632L824.456 1128.05L781.277 934.458C775.252 907.444 736.748 907.444 730.723 934.458L687.544 1128.05L726.837 933.632C732.32 906.503 697.146 890.842 680.654 913.07L562.469 1072.36L677.44 910.735C693.483 888.182 667.72 859.568 643.613 873.166L470.856 970.614L641.626 869.726C665.456 855.648 653.558 819.028 626.004 821.646L428.549 840.402L625.589 817.695C653.085 814.526 657.109 776.234 630.873 767.418L442.86 704.24L632.101 763.64C658.508 771.929 677.76 738.583 657.378 719.859L511.316 585.671L660.036 716.906C680.789 735.219 711.939 712.588 700.935 687.191L622.08 505.196L704.564 685.576C716.074 710.746 753.737 702.741 754.014 675.065L756 476.729Z" stroke="#004ECC" stroke-width="2"/>
</g>
<defs>
<filter id="filter0_f_1189_37293" x="-195" y="220" width="1931" height="1523" filterUnits="userSpaceOnUse" color-interpolation-filters="sRGB">
<feFlood flood-opacity="0" result="BackgroundImageFix"/>
<feBlend mode="normal" in="SourceGraphic" in2="BackgroundImageFix" result="shape"/>
<feGaussianBlur stdDeviation="197.5" result="effect1_foregroundBlur_1189_37293"/>
</filter>
</defs>
</svg>
