<svg width="240" height="54" viewBox="0 0 240 54" fill="none" xmlns="http://www.w3.org/2000/svg">
<path d="M137.698 43.4054C133.348 43.4054 129.438 41.9556 126.758 39.1L128.164 37.6502C130.8 40.2422 134.007 41.3406 137.61 41.3406C145.474 41.3406 151.404 35.5415 151.404 27.8094C151.404 20.0774 145.474 14.2783 137.61 14.2783C134.007 14.2783 130.8 15.3327 128.164 17.9247L126.758 16.4749C129.438 13.6193 133.348 12.2135 137.698 12.2135C146.836 12.2135 153.645 18.8473 153.645 27.8094C153.645 36.7716 146.836 43.4054 137.698 43.4054Z" fill="white"/>
<path d="M160.488 43.1844H162.729V12.4319H160.488V43.1844Z" fill="white"/>
<path d="M185.482 43.4041C193.126 43.4041 197.827 38.923 197.827 30.1366V12.4319H195.586V30.0487C195.586 37.7368 191.94 41.3393 185.526 41.3393C179.112 41.3393 175.422 37.7368 175.422 30.0487V12.4319H173.181V30.1366C173.181 38.923 177.838 43.4041 185.482 43.4041Z" fill="white"/>
<path d="M239.561 43.1844L239.517 12.4319H237.672L223.921 36.1992L210.171 12.4319H208.281V43.1844H210.478V16.9569L223.35 39.0987H224.449L237.321 16.869L237.365 43.1844H239.561Z" fill="white"/>
<path fill-rule="evenodd" clip-rule="evenodd" d="M102.615 20.5574C97.0989 21.8839 91.4687 18.7512 89.6911 13.358C95.2074 12.0315 100.838 15.1641 102.615 20.5574Z" fill="white"/>
<path d="M75.3209 21.012C77.4955 17.2454 80.706 14.5842 84.519 13.6912L85.0716 15.6335C81.5089 16.6203 78.9542 18.8485 77.153 21.9683C73.221 28.7787 75.2777 36.8144 81.9739 40.6805C88.6701 44.5465 96.6576 42.3098 100.59 35.4995C102.391 32.3797 103.081 29.0751 102.154 25.4963L104.113 25.0037C105.246 28.7523 104.508 32.8414 102.334 36.608C97.7649 44.5216 88.6151 47.1019 80.8536 42.6209C73.0922 38.1398 70.7519 28.9257 75.3209 21.012Z" fill="white"/>
<path d="M0 43.1831H2.24054V12.4306H0V43.1831Z" fill="white"/>
<path d="M35.7574 12.4306V39.1414L14.8456 12.4306H12.9566V43.1831H15.1971V16.4724L36.1528 43.1831H37.9979V12.4306H35.7574Z" fill="white"/>
<path d="M56.8208 43.4028C64.4211 43.4028 67.8917 39.6246 67.8917 35.2753C67.8917 24.1166 48.6933 29.5642 48.6933 20.3384C48.6933 16.9556 51.3732 14.1879 57.348 14.1879C60.1157 14.1879 63.2349 15.0226 65.783 16.7799L66.6177 14.9787C64.2453 13.2653 60.7308 12.2109 57.348 12.2109C49.7917 12.2109 46.4528 16.033 46.4528 20.3823C46.4528 31.7168 65.6512 26.1814 65.6512 35.4071C65.6512 38.746 62.9274 41.4259 56.7769 41.4259C52.6472 41.4259 48.7373 39.7564 46.6285 37.5598L45.6181 39.2292C47.8586 41.6894 52.2519 43.4028 56.8208 43.4028Z" fill="white"/>
<path d="M137.752 54C130.591 54 123.723 51.1554 118.66 46.0919C113.596 41.0284 110.752 34.1608 110.752 27C110.752 19.8392 113.596 12.9716 118.66 7.90812C123.723 2.84464 130.591 1.08126e-06 137.752 0V2.05706C131.136 2.05706 124.792 4.68497 120.114 9.36268C115.437 14.0404 112.809 20.3847 112.809 27C112.809 33.6153 115.437 39.9596 120.114 44.6373C124.792 49.315 131.136 51.9429 137.752 51.9429V54Z" fill="white"/>
</svg>
