<svg width="42" height="42" viewBox="0 0 42 42" fill="none" xmlns="http://www.w3.org/2000/svg">
<circle cx="21" cy="21" r="20.5" fill="#222B48" stroke="#222B48"/>
<path d="M15.5841 5.03979L11.76 35.3581H30.8072L26.3742 5.03979H15.5841Z" fill="white" stroke="#222B48" stroke-width="0.3" stroke-miterlimit="10"/>
<path d="M21.224 17.7362C23.1746 17.7362 24.7558 16.1347 24.7558 14.1592C24.7558 12.1836 23.1746 10.5822 21.224 10.5822C19.2735 10.5822 17.6923 12.1836 17.6923 14.1592C17.6923 16.1347 19.2735 17.7362 21.224 17.7362Z" fill="white" stroke="#222B48" stroke-width="0.3" stroke-miterlimit="10"/>
<path d="M21.2388 16.7384C22.6445 16.7384 23.7841 15.5842 23.7841 14.1604C23.7841 12.7367 22.6445 11.5825 21.2388 11.5825C19.8331 11.5825 18.6935 12.7367 18.6935 14.1604C18.6935 15.5842 19.8331 16.7384 21.2388 16.7384Z" fill="#222B48" stroke="white" stroke-width="0.3" stroke-miterlimit="10"/>
<path d="M23.3504 8.6265H18.7104L17.7483 6.875H24.3003L23.3504 8.6265Z" stroke="#222B48" stroke-width="0.3" stroke-miterlimit="10"/>
<path d="M21.2267 32.6853C21.8119 32.6853 22.2862 32.2049 22.2862 31.6122C22.2862 31.0196 21.8119 30.5391 21.2267 30.5391C20.6415 30.5391 20.1672 31.0196 20.1672 31.6122C20.1672 32.2049 20.6415 32.6853 21.2267 32.6853Z" fill="#222B48" stroke="#222B48" stroke-width="0.3" stroke-miterlimit="10"/>
<path d="M21.2332 29.6732C24.0783 29.6732 26.3847 27.3373 26.3847 24.4557C26.3847 21.5742 24.0783 19.2382 21.2332 19.2382C18.3881 19.2382 16.0817 21.5742 16.0817 24.4557C16.0817 27.3373 18.3881 29.6732 21.2332 29.6732Z" fill="white" stroke="#222B48" stroke-width="0.3" stroke-miterlimit="10"/>
<path d="M21.2201 28.2172C23.2715 28.2172 24.9345 26.5329 24.9345 24.4551C24.9345 22.3774 23.2715 20.6931 21.2201 20.6931C19.1686 20.6931 17.5056 22.3774 17.5056 24.4551C17.5056 26.5329 19.1686 28.2172 21.2201 28.2172Z" fill="#222B48" stroke="white" stroke-width="0.3" stroke-miterlimit="10"/>
</svg>
