<svg width="108" height="25" viewBox="0 0 108 25" fill="none" xmlns="http://www.w3.org/2000/svg">
<path d="M62.0774 19.5679C60.1166 19.5679 58.3539 18.9143 57.1457 17.627L57.7795 16.9734C58.9679 18.1419 60.4137 18.637 62.0378 18.637C65.583 18.637 68.2568 16.0227 68.2568 12.5369C68.2568 9.05108 65.583 6.43673 62.0378 6.43673C60.4137 6.43673 58.9679 6.91207 57.7795 8.0806L57.1457 7.42701C58.3539 6.13964 60.1166 5.50586 62.0774 5.50586C66.197 5.50586 69.2668 8.49652 69.2668 12.5369C69.2668 16.5772 66.197 19.5679 62.0774 19.5679Z" fill="white"/>
<path d="M72.3518 19.4685H73.3619V5.60449H72.3518V19.4685Z" fill="white"/>
<path d="M83.6197 19.5675C87.0659 19.5675 89.1851 17.5473 89.1851 13.5862V5.60449H88.175V13.5466C88.175 17.0126 86.5311 18.6367 83.6395 18.6367C80.7479 18.6367 79.0842 17.0126 79.0842 13.5466V5.60449H78.0741V13.5862C78.0741 17.5473 80.1735 19.5675 83.6197 19.5675Z" fill="white"/>
<path d="M108 19.4685L107.98 5.60449H107.148L100.949 16.3194L94.7499 5.60449H93.8982V19.4685H94.8885V7.64448L100.692 17.6266H101.187L106.99 7.60487L107.01 19.4685H108Z" fill="white"/>
<path fill-rule="evenodd" clip-rule="evenodd" d="M40.4349 6.02189C42.9219 5.42386 45.4601 6.83615 46.2615 9.26758C43.7746 9.86561 41.2363 8.45332 40.4349 6.02189Z" fill="white"/>
<path d="M33.9564 9.47317C34.9368 7.7751 36.3842 6.57534 38.1032 6.17274L38.3523 7.04841C36.7462 7.49327 35.5944 8.49782 34.7824 9.9043C33.0098 12.9746 33.937 16.5973 36.9558 18.3402C39.9746 20.0831 43.5756 19.0747 45.3482 16.0045C46.1602 14.598 46.4715 13.1082 46.0537 11.4948L46.9366 11.2727C47.4474 12.9627 47.1149 14.8061 46.1345 16.5042C44.0747 20.0719 39.9498 21.2351 36.4507 19.215C32.9517 17.1948 31.8966 13.0408 33.9564 9.47317Z" fill="white"/>
<path d="M0 19.4679H1.01009V5.60391H0V19.4679Z" fill="white"/>
<path d="M16.1203 5.60391V17.6458L6.69278 5.60391H5.84113V19.4679H6.85123V7.42604L16.2985 19.4679H17.1304V5.60391H16.1203Z" fill="white"/>
<path d="M25.6162 19.5669C29.0426 19.5669 30.6072 17.8636 30.6072 15.9029C30.6072 10.8722 21.9521 13.3281 21.9521 9.16894C21.9521 7.6439 23.1603 6.39614 25.8539 6.39614C27.1016 6.39614 28.5078 6.77245 29.6566 7.56468L30.0329 6.75264C28.9634 5.98022 27.3789 5.50488 25.8539 5.50488C22.4473 5.50488 20.9421 7.22798 20.9421 9.18874C20.9421 14.2986 29.5971 11.8031 29.5971 15.9623C29.5971 17.4675 28.3692 18.6757 25.5964 18.6757C23.7347 18.6757 21.972 17.9231 21.0213 16.9328L20.5657 17.6854C21.5758 18.7945 23.5564 19.5669 25.6162 19.5669Z" fill="white"/>
<path d="M62.1019 24.3445C58.8736 24.3445 55.7776 23.0621 53.4948 20.7793C51.2121 18.4966 49.9297 15.4005 49.9297 12.1723C49.9297 8.94397 51.2121 5.84791 53.4948 3.56517C55.7776 1.28243 58.8736 4.87457e-07 62.1019 0V0.927371C59.1196 0.927372 56.2594 2.1121 54.1506 4.22092C52.0418 6.32975 50.857 9.18993 50.857 12.1723C50.857 15.1546 52.0418 18.0148 54.1506 20.1236C56.2594 22.2324 59.1196 23.4171 62.1019 23.4171V24.3445Z" fill="white"/>
</svg>
