<svg width="1026" height="1074" viewBox="0 0 1026 1074" fill="none" xmlns="http://www.w3.org/2000/svg">
<path d="M1026 0H-6.10352e-05V1025.3H1026V0Z" fill="#2C3347"/>
<path d="M-4.1008e-05 125.599C-4.1008e-05 125.599 134.662 156.358 168.007 171.737H180.832L293.692 160.203L337.297 143.542L383.467 198.652C383.467 198.652 339.862 289.647 341.145 352.446C342.427 415.246 338.58 560.069 338.58 560.069C338.58 560.069 228.285 575.449 200.07 574.167C171.855 572.885 100.035 525.465 94.905 519.057C89.775 512.649 -11.5425 456.258 -11.5425 456.258L-4.1008e-05 125.599Z" fill="#133874" fill-opacity="0.35"/>
<path d="M722.355 810.357L757.778 870.837L811.899 893.945L761.715 1056.2L599.351 989.823L722.355 810.357Z" fill="#4C658C"/>
<path d="M-2.27005 894.88L172.368 920.68L192.042 885.602C192.042 885.602 110.295 728.962 108.41 728.346C106.524 727.731 79.515 714.249 79.515 714.249L-25.65 884.435L-2.27005 894.88Z" fill="#4C658C"/>
<path d="M659.59 537.654L741.798 532.732L842.987 497.629L949.807 424.602" stroke="#3D4B67" stroke-width="15" stroke-miterlimit="10"/>
<path d="M819.107 657.729L741.105 536.244" stroke="#3D4B67" stroke-width="15" stroke-miterlimit="10"/>
<path d="M806.449 641.58L772.719 665.457L755.854 659.844L725.638 675.287" stroke="#3D4B67" stroke-width="12" stroke-linecap="round" stroke-linejoin="round"/>
<path d="M890.619 471.227L947.96 545.433" stroke="#3D4B67" stroke-width="12" stroke-linecap="round" stroke-linejoin="round"/>
<path d="M823.711 509.432L861.943 574.821L893.556 566.734" stroke="#3D4B67" stroke-width="12" stroke-linecap="round" stroke-linejoin="round"/>
<path d="M883.271 524.12L843.564 540.294" stroke="#3D4B67" stroke-width="12" stroke-linecap="round" stroke-linejoin="round"/>
<path d="M881.796 403.634L1000.17 538.089" stroke="#3D4B67" stroke-width="12" stroke-linecap="round" stroke-linejoin="round"/>
<path d="M818.568 352.203L839.152 325.02" stroke="#3D4B67" stroke-width="12" stroke-linecap="round" stroke-linejoin="round"/>
<path d="M870.766 390.408L806.064 350.729L762.69 362.494L747.992 441.109" stroke="#3D4B67" stroke-width="12" stroke-linecap="round" stroke-linejoin="round"/>
<path d="M753.135 395.547L703.875 403.634" stroke="#3D4B67" stroke-width="12" stroke-linecap="round" stroke-linejoin="round"/>
<path d="M769.526 847.55L852.196 785.929L972.148 565.836" stroke="#3D4B67" stroke-width="16" stroke-linecap="round" stroke-linejoin="round"/>
<path d="M999.927 838.745L879.308 821.136L794.599 698.561" stroke="#3D4B67" stroke-width="12" stroke-linecap="round" stroke-linejoin="round"/>
<path d="M978.919 882.09L878.628 858.393L822.377 810.306" stroke="#3D4B67" stroke-width="12" stroke-linecap="round" stroke-linejoin="round"/>
<path d="M741.734 795.401L823.057 742.585" stroke="#3D4B67" stroke-width="8" stroke-linecap="round" stroke-linejoin="round"/>
<path d="M1003.99 803.539L896.25 785.93" stroke="#3D4B67" stroke-width="8" stroke-linecap="round" stroke-linejoin="round"/>
<path d="M1016.2 779.15L908.446 761.54" stroke="#3D4B67" stroke-width="8" stroke-linecap="round" stroke-linejoin="round"/>
<path d="M1028.4 754.773L920.643 737.164" stroke="#3D4B67" stroke-width="8" stroke-linecap="round" stroke-linejoin="round"/>
<path d="M1040.59 730.397L932.839 712.787" stroke="#3D4B67" stroke-width="8" stroke-linecap="round" stroke-linejoin="round"/>
<path d="M842.705 659.959L905.74 689.757L1060.24 671.481" stroke="#3D4B67" stroke-width="12" stroke-linecap="round" stroke-linejoin="round"/>
<path d="M959.951 600.376L1060.63 651.064" stroke="#3D4B67" stroke-width="12" stroke-linecap="round" stroke-linejoin="round"/>
<path d="M458.955 552.969L438.666 609.578L416.287 686.45L439.372 713.697L445.669 835.298L429.573 903.775L368.039 1044.24" stroke="#3D4B67" stroke-width="19" stroke-linecap="round" stroke-linejoin="round"/>
<path d="M242.867 817.829L391.162 790.569L495.353 799.656C495.353 799.656 656.191 698.331 658.987 696.934" stroke="#3D4B67" stroke-width="12" stroke-linecap="round" stroke-linejoin="round"/>
<path d="M633.068 650.808L440.77 731.871L302.311 724.886L-27.0608 585.125" stroke="#3D4B67" stroke-width="12" stroke-linecap="round" stroke-linejoin="round"/>
<path d="M-17.2625 652.205L107.204 725.578L196.71 897.495" stroke="#3D4B67" stroke-width="8" stroke-linecap="round" stroke-linejoin="round"/>
<path d="M253.358 571.142L230.978 696.934L178.537 804.552" stroke="#3D4B67" stroke-width="8" stroke-linecap="round" stroke-linejoin="round"/>
<path d="M273.634 758.426L-17.9678 613.769" stroke="#3D4B67" stroke-width="8" stroke-linecap="round" stroke-linejoin="round"/>
<path d="M42.1686 689.936L-23.5596 782.187" stroke="#3D4B67" stroke-width="8" stroke-linecap="round" stroke-linejoin="round"/>
<path d="M80.6308 710.903L-36.1537 899.584" stroke="#3D4B67" stroke-width="8" stroke-linecap="round" stroke-linejoin="round"/>
<path d="M130.328 771.37L-17.2625 965.972" stroke="#3D4B67" stroke-width="8" stroke-linecap="round" stroke-linejoin="round"/>
<path d="M-13.0687 891.894L196.71 920.551L304.401 1028.17" stroke="#3D4B67" stroke-width="16" stroke-linecap="round" stroke-linejoin="round"/>
<path d="M534.546 545.779L532.058 641.068L614.151 730.563" stroke="#3D4B67" stroke-width="8" stroke-linecap="round" stroke-linejoin="round"/>
<path d="M496.404 554.891L491.428 710.673" stroke="#3D4B67" stroke-width="8" stroke-linecap="round" stroke-linejoin="round"/>
<path d="M600.043 610.411L425.085 685.809L323.1 670.904" stroke="#3D4B67" stroke-width="8" stroke-linecap="round" stroke-linejoin="round"/>
<path d="M347.147 598.813L441.988 604.606" stroke="#3D4B67" stroke-width="8" stroke-linecap="round" stroke-linejoin="round"/>
<path d="M337.195 636.095L432.036 641.901" stroke="#3D4B67" stroke-width="8" stroke-linecap="round" stroke-linejoin="round"/>
<path d="M198.723 917.001L425.918 913.682L534.546 974.995L580.972 984.94" stroke="#3D4B67" stroke-width="8" stroke-linecap="round" stroke-linejoin="round"/>
<path d="M903.303 906.107L927.247 830.069" stroke="#3D4B67" stroke-width="8" stroke-linecap="round" stroke-linejoin="round"/>
<path d="M875.947 901.84L830.637 1054.78" stroke="#3D4B67" stroke-width="8" stroke-linecap="round" stroke-linejoin="round"/>
<path d="M957.168 970.189L950.332 971.893L861.417 957.372" stroke="#3D4B67" stroke-width="8" stroke-linecap="round" stroke-linejoin="round"/>
<path d="M939.213 1021.45L851.157 994.962" stroke="#3D4B67" stroke-width="8" stroke-linecap="round" stroke-linejoin="round"/>
<path d="M812.682 886.46L761.382 1065.89" stroke="#3D4B67" stroke-width="8" stroke-linecap="round" stroke-linejoin="round"/>
<path d="M710.928 469.497L747.697 532.732" stroke="#3D4B67" stroke-width="8" stroke-linecap="round" stroke-linejoin="round"/>
<path d="M882.783 398.585C881.078 398.585 791.302 513.931 791.302 513.931" stroke="#3D4B67" stroke-width="8" stroke-linecap="round" stroke-linejoin="round"/>
<path d="M243.252 1047.94L325.332 802.719" stroke="#3D4B67" stroke-width="8" stroke-linecap="round" stroke-linejoin="round"/>
<path d="M298.822 1073.58L411.682 729.243" stroke="#3D4B67" stroke-width="8" stroke-linecap="round" stroke-linejoin="round"/>
<path d="M653.562 128.226L655.601 263.784L625.001 416.656L511.794 536.923" stroke="#3D4B67" stroke-width="8" stroke-linecap="round" stroke-linejoin="round"/>
<path d="M459.776 546.1L482.22 298.439L436.319 82.3699L401.653 -31.7842" stroke="#3D4B67" stroke-width="19" stroke-linecap="round" stroke-linejoin="round"/>
<path d="M840.191 -70.5149L738.207 212.826" stroke="#3D4B67" stroke-width="19" stroke-linecap="round" stroke-linejoin="round"/>
<path d="M356.779 284.161L475.076 270.922L634.183 108.861L674.98 -11.3936" stroke="#3D4B67" stroke-width="8" stroke-linecap="round" stroke-linejoin="round"/>
<path d="M708.632 181.234L681.097 337.157L669.875 475.777" stroke="#3D4B67" stroke-width="8" stroke-linecap="round" stroke-linejoin="round"/>
<path d="M735.155 349.396L474.063 341.245L349.635 360.61" stroke="#3D4B67" stroke-width="8" stroke-linecap="round" stroke-linejoin="round"/>
<path d="M344.531 402.391L470.998 406.467" stroke="#3D4B67" stroke-width="8" stroke-linecap="round" stroke-linejoin="round"/>
<path d="M346.57 492.079L464.881 488.004L625.001 416.656L674.98 473.739" stroke="#3D4B67" stroke-width="8" stroke-linecap="round" stroke-linejoin="round"/>
<path d="M774.925 254.607L482.22 265.821" stroke="#3D4B67" stroke-width="8" stroke-linecap="round" stroke-linejoin="round"/>
<path d="M942.509 183.093L903.675 344.449" stroke="#3D4B67" stroke-width="8" stroke-linecap="round" stroke-linejoin="round"/>
<path d="M992.578 171.866L971.122 355.689" stroke="#3D4B67" stroke-width="8" stroke-linecap="round" stroke-linejoin="round"/>
<path d="M788.199 243.355L843.385 41.153" stroke="#3D4B67" stroke-width="8" stroke-linecap="round" stroke-linejoin="round"/>
<path d="M683.957 150.424L726.883 38.0898" stroke="#3D4B67" stroke-width="8" stroke-linecap="round" stroke-linejoin="round"/>
<path d="M783.082 89.1497L882.206 213.736" stroke="#3D4B67" stroke-width="8" stroke-linecap="round" stroke-linejoin="round"/>
<path d="M898.558 191.269L904.688 108.553L952.718 -11.9575" stroke="#3D4B67" stroke-width="8" stroke-linecap="round" stroke-linejoin="round"/>
<path d="M942.509 172.891L1006.89 -30.336" stroke="#3D4B67" stroke-width="8" stroke-linecap="round" stroke-linejoin="round"/>
<path d="M-12.9789 120.806L177.088 168.803L296.655 159.613L570.533 52.3799" stroke="#3D4B67" stroke-width="8" stroke-linecap="round" stroke-linejoin="round"/>
<path d="M188.335 88.1244L304.837 114.68" stroke="#3D4B67" stroke-width="8" stroke-linecap="round" stroke-linejoin="round"/>
<path d="M363.076 27.8753L425.418 187.181" stroke="#3D4B67" stroke-width="8" stroke-linecap="round" stroke-linejoin="round"/>
<path d="M311.981 113.654L397.832 209.648" stroke="#3D4B67" stroke-width="8" stroke-linecap="round" stroke-linejoin="round"/>
<path d="M295.629 277.048L343.659 288.288" stroke="#3D4B67" stroke-width="8" stroke-linecap="round" stroke-linejoin="round"/>
<path d="M287.46 403.686L339.58 402.66" stroke="#3D4B67" stroke-width="8" stroke-linecap="round" stroke-linejoin="round"/>
<path d="M285.42 490.49L344.685 496.616" stroke="#3D4B67" stroke-width="8" stroke-linecap="round" stroke-linejoin="round"/>
<path d="M62.8425 -19.2244L53.865 135.852" stroke="#3D4B67" stroke-width="8" stroke-linecap="round" stroke-linejoin="round"/>
<path d="M124.402 -7.68976L115.425 149.95" stroke="#3D4B67" stroke-width="8" stroke-linecap="round" stroke-linejoin="round"/>
<path d="M88.4925 519.057L67.9725 629.277" stroke="#3D4B67" stroke-width="8" stroke-linecap="round" stroke-linejoin="round"/>
<path d="M157.747 572.885L149.168 799.656L230.978 822.712" stroke="#3D4B67" stroke-width="8" stroke-linecap="round" stroke-linejoin="round"/>
<path d="M537.367 -28.1957L591.232 66.6444L824.647 292.21L934.942 389.613L1104.23 552.38" stroke="#3D4B67" stroke-width="34" stroke-linecap="round" stroke-linejoin="round"/>
<path d="M159.03 1063.75C159.03 1063.75 171.855 936.866 191.092 902.263C210.33 867.659 307.8 715.146 328.32 658.754C348.84 602.363 342.427 484.453 342.427 416.527C342.427 348.601 337.297 269.141 392.445 214.031C447.592 158.921 587.385 58.9547 587.385 58.9547" stroke="#3D4B67" stroke-width="34" stroke-linecap="round" stroke-linejoin="round"/>
<path d="M1070.89 643.375L924.682 1062.47" stroke="#3D4B67" stroke-width="34" stroke-linecap="round" stroke-linejoin="round"/>
<path d="M1095.25 965.062L761.805 862.532L637.402 658.754L605.34 610.053L606.622 501.115L734.872 456.258L1090.12 303.745" stroke="#3D4B67" stroke-width="34" stroke-linecap="round" stroke-linejoin="round"/>
<path d="M723.33 799.733L600.248 974.956L536.085 1066.31" stroke="#3D4B67" stroke-width="34" stroke-linecap="round" stroke-linejoin="round"/>
<path d="M767.23 1065.59L590.245 991.258" stroke="#3D4B67" stroke-width="34" stroke-linecap="round" stroke-linejoin="round"/>
<path d="M-41.04 442.16C-41.04 442.16 64.125 494.706 92.34 510.086C120.555 525.465 147.487 588.265 248.805 571.604C350.122 554.943 648.945 537 648.945 537C648.945 537 686.137 401.148 747.697 329.377C809.257 257.606 936.225 175.582 936.225 175.582L1111.93 152.513" stroke="#3D4B67" stroke-width="23" stroke-linejoin="round"/>
<path d="M648.945 537C648.945 537 674.595 649.783 664.335 672.852C654.075 695.921 625.86 717.709 598.928 758.721C571.995 799.733 595.08 843.308 507.87 871.504C420.66 899.699 478.373 1056.06 478.373 1056.06" stroke="#3D4B67" stroke-width="23" stroke-linejoin="round"/>
<path d="M648.945 537C648.945 537 674.595 649.783 664.335 672.852C654.075 695.921 625.86 717.709 598.928 758.721C571.995 799.733 595.08 843.308 507.87 871.504C420.66 899.699 478.373 1056.06 478.373 1056.06" stroke="#293F64" stroke-opacity="0.96" stroke-width="10" stroke-linejoin="round"/>
<path d="M-41.04 442.16C-41.04 442.16 64.125 494.706 92.34 510.086C120.555 525.465 147.487 588.265 248.805 571.604C350.122 554.943 648.945 537 648.945 537C648.945 537 686.137 401.148 747.697 329.377C809.257 257.606 936.225 175.582 936.225 175.582L1111.93 152.513" stroke="#293F64" stroke-opacity="0.96" stroke-width="10" stroke-linejoin="round"/>
<path d="M432.202 1045.8L533.52 970.188L648.945 822.802L719.482 743.341L916.987 602.363L1033.69 521.62" stroke="#3D4B67" stroke-width="23" stroke-linejoin="round"/>
<path d="M432.202 1045.8L533.52 970.188L648.945 822.802L719.482 743.341L916.987 602.363L1033.69 521.62" stroke="#606A98" stroke-width="14" stroke-linejoin="round"/>
<path d="M537.367 -28.1957L591.232 66.6444L824.647 292.21L934.942 389.613L1104.23 552.38" stroke="#2C3347" stroke-width="21" stroke-linecap="round" stroke-linejoin="round"/>
<path d="M159.03 1063.75C159.03 1063.75 171.855 936.866 191.092 902.263C210.33 867.659 307.8 715.146 328.32 658.754C348.84 602.363 342.427 484.453 342.427 416.527C342.427 348.601 337.297 269.141 392.445 214.031C447.592 158.921 587.385 58.9547 587.385 58.9547" stroke="#2C3347" stroke-width="21" stroke-linecap="round" stroke-linejoin="round"/>
<path d="M1070.89 643.375L924.682 1062.47" stroke="#2C3347" stroke-width="21" stroke-linecap="round" stroke-linejoin="round"/>
<path d="M1095.25 965.062L761.805 862.532L637.402 658.754L605.34 610.053L606.622 501.115L734.872 456.258L1090.12 303.745" stroke="#2C3347" stroke-width="21" stroke-linecap="round" stroke-linejoin="round"/>
<path d="M723.33 799.733L600.248 974.956L536.085 1066.31" stroke="#2C3347" stroke-width="21" stroke-linecap="round" stroke-linejoin="round"/>
<path d="M765.281 1064.75L592.207 992.117" stroke="#2C3347" stroke-width="21" stroke-linecap="round" stroke-linejoin="round"/>
<path d="M765.281 1064.75L592.207 992.117" stroke="#48496F" stroke-width="19" stroke-linecap="round" stroke-linejoin="round"/>
<path d="M180.832 -16.6611C180.832 -16.6611 187.245 152.513 171.855 201.215C156.465 249.916 92.34 365.263 121.837 446.005C151.335 526.747 265.477 563.914 279.585 502.396C293.692 440.878 277.02 337.067 284.715 296.055C292.41 255.043 305.235 82.0239 321.907 58.9547C338.58 35.8855 371.925 3.84489 436.05 -8.97133" stroke="#3D4B67" stroke-width="23" stroke-linejoin="round"/>
<path d="M720.765 -23.0692C724.612 -23.0692 887.49 -32.0406 945.202 33.3222C1002.91 98.6849 992.655 129.444 1004.2 157.64C1015.74 185.835 1040.11 208.905 1068.32 223.002" stroke="#3D4B67" stroke-width="23" stroke-linejoin="round"/>
<path d="M180.832 -16.6611C180.832 -16.6611 187.245 152.513 171.855 201.215C156.465 249.916 92.34 365.263 121.837 446.005C151.335 526.747 265.477 563.914 279.585 502.396C293.692 440.878 277.02 337.067 284.715 296.055C292.41 255.043 305.235 82.0239 321.907 58.9547C338.58 35.8855 371.925 3.84489 436.05 -8.97133" stroke="#606A98" stroke-width="14" stroke-linejoin="round"/>
<path d="M720.765 -23.0692C724.612 -23.0692 887.49 -32.0406 945.202 33.3222C1002.91 98.6849 992.655 129.444 1004.2 157.64C1015.74 185.835 1040.11 208.905 1068.32 223.002" stroke="#606A98" stroke-width="14" stroke-linejoin="round"/>
<path d="M537.367 -28.1957L591.232 66.6444L824.647 292.21L934.942 389.613L1104.23 552.38" stroke="#48496F" stroke-width="19" stroke-linecap="round" stroke-linejoin="round"/>
<path d="M159.03 1063.75C159.03 1063.75 171.855 936.866 191.092 902.263C210.33 867.659 307.8 715.146 328.32 658.754C348.84 602.363 342.427 484.453 342.427 416.527C342.427 348.601 337.297 269.141 392.445 214.031C447.592 158.921 587.385 58.9547 587.385 58.9547" stroke="#48496F" stroke-width="19" stroke-linecap="round" stroke-linejoin="round"/>
<path d="M1070.89 643.375L924.682 1062.47" stroke="#48496F" stroke-width="19" stroke-linecap="round" stroke-linejoin="round"/>
<path d="M1095.25 965.062L761.805 862.532L637.402 658.754L605.34 610.053L606.622 501.115L734.872 456.258L1090.12 303.745" stroke="#48496F" stroke-width="19" stroke-linecap="round" stroke-linejoin="round"/>
<path d="M723.33 799.733L600.248 974.956L536.085 1066.31" stroke="#48496F" stroke-width="19" stroke-linecap="round" stroke-linejoin="round"/>
<path d="M1026 0H-6.10352e-05V1074H1026V0Z" fill="url(#paint0_radial_1177_35807)"/>
<path opacity="0.2" d="M956.745 0H-6.10352e-05V949.682H956.745V0Z" fill="#151618"/>
<path style="mix-blend-mode:multiply" opacity="0.28" d="M435.845 547.471C435.845 550.752 424.7 553.405 410.939 553.405C397.177 553.405 386.032 550.752 386.032 547.471C386.032 544.19 397.19 541.537 410.951 541.537C424.713 541.537 435.845 544.203 435.845 547.471Z" fill="url(#paint1_radial_1177_35807)"/>
<path d="M500.303 987.747C500.239 987.439 500.188 987.145 500.149 986.837C500.175 987.145 500.239 987.439 500.303 987.747Z" fill="#B5B5B5"/>
<path d="M501.291 990.618L501.214 990.451L501.291 990.618Z" fill="#B5B5B5"/>
<path d="M500.611 988.926C500.773 989.435 500.97 989.931 501.201 990.413C500.972 989.93 500.775 989.434 500.611 988.926Z" fill="#B5B5B5"/>
<defs>
<radialGradient id="paint0_radial_1177_35807" cx="0" cy="0" r="1" gradientUnits="userSpaceOnUse" gradientTransform="translate(517.489 524.555) rotate(-1.17879) scale(508.619 516.421)">
<stop stop-color="#151618" stop-opacity="0"/>
<stop offset="1" stop-color="#151618"/>
</radialGradient>
<radialGradient id="paint1_radial_1177_35807" cx="0" cy="0" r="1" gradientUnits="userSpaceOnUse" gradientTransform="translate(411.227 546.388) scale(24.9303 5.90724)">
<stop/>
<stop offset="0.15" stop-opacity="0.5"/>
<stop offset="1" stop-opacity="0"/>
</radialGradient>
</defs>
</svg>
