<svg width="391" height="89" viewBox="0 0 391 89" fill="none" xmlns="http://www.w3.org/2000/svg">
<path d="M224.743 71.0922C217.645 71.0922 211.263 68.726 206.889 64.0652L209.184 61.699C213.486 65.9295 218.72 67.7221 224.6 67.7221C237.435 67.7221 247.115 58.2572 247.115 45.6373C247.115 33.0174 237.435 23.5525 224.6 23.5525C218.72 23.5525 213.486 25.2734 209.184 29.5039L206.889 27.1377C211.263 22.4769 217.645 20.1824 224.743 20.1824C239.658 20.1824 250.772 31.0097 250.772 45.6373C250.772 60.2649 239.658 71.0922 224.743 71.0922Z" fill="white"/>
<path d="M261.94 70.7316H265.597V20.5388H261.94V70.7316Z" fill="white"/>
<path d="M302.734 71.0901C315.211 71.0901 322.883 63.7763 322.883 49.4355V20.5388H319.226V49.2921C319.226 61.8403 313.275 67.7201 302.806 67.7201C292.337 67.7201 286.314 61.8403 286.314 49.2921V20.5388H282.657V49.4355C282.657 63.7763 290.258 71.0901 302.734 71.0901Z" fill="white"/>
<path d="M391 70.7316L390.928 20.5388H387.916L365.473 59.3307L343.03 20.5388H339.947V70.7316H343.532V27.9243L364.541 64.0632H366.334L387.343 27.7809L387.415 70.7316H391Z" fill="white"/>
<path fill-rule="evenodd" clip-rule="evenodd" d="M146.389 22.0508C155.393 19.8857 164.582 24.9987 167.483 33.8015C158.48 35.9667 149.29 30.8536 146.389 22.0508Z" fill="white"/>
<path d="M122.935 34.5427C126.484 28.3951 131.724 24.0515 137.948 22.594L138.849 25.7642C133.035 27.3748 128.865 31.0116 125.925 36.1036C119.508 47.219 122.864 60.3347 133.794 66.6446C144.723 72.9546 157.76 69.3039 164.177 58.1884C167.117 53.0964 168.244 47.7029 166.731 41.8617L169.928 41.0577C171.777 47.1761 170.573 53.85 167.024 59.9977C159.567 72.9139 144.633 77.1254 131.965 69.8116C119.297 62.4978 115.478 47.459 122.935 34.5427Z" fill="white"/>
<path d="M0 70.7293H3.6569V20.5365H0V70.7293Z" fill="white"/>
<path d="M58.3614 20.5365V64.1325L24.2303 20.5365H21.1471V70.7293H24.804V27.1333L59.0068 70.7293H62.0183V20.5365H58.3614Z" fill="white"/>
<path d="M92.7401 71.0878C105.145 71.0878 110.81 64.9213 110.81 57.8226C110.81 39.6098 79.4749 48.5011 79.4749 33.4432C79.4749 27.922 83.8488 23.4047 93.6006 23.4047C98.1179 23.4047 103.209 24.767 107.368 27.6352L108.73 24.6953C104.858 21.8989 99.1218 20.178 93.6006 20.178C81.2675 20.178 75.818 26.4162 75.818 33.5149C75.818 52.0146 107.153 42.9798 107.153 58.0377C107.153 63.4872 102.707 67.8611 92.6684 67.8611C85.9282 67.8611 79.5466 65.1364 76.1048 61.5512L74.4556 64.2759C78.1125 68.2914 85.2829 71.0878 92.7401 71.0878Z" fill="white"/>
<path d="M224.832 88.3842C213.144 88.3842 201.935 83.7413 193.671 75.477C185.407 67.2126 180.764 56.0037 180.764 44.3161C180.764 32.6285 185.407 21.4197 193.671 13.1553C201.935 4.89092 213.144 0.248049 224.832 0.248047V3.60547C214.035 3.60547 203.68 7.89462 196.045 15.5293C188.41 23.1641 184.121 33.519 184.121 44.3161C184.121 55.1133 188.41 65.4682 196.045 73.1029C203.68 80.7376 214.035 85.0268 224.832 85.0268V88.3842Z" fill="white"/>
</svg>
