<svg width="48" height="48" viewBox="0 0 48 48" fill="none" xmlns="http://www.w3.org/2000/svg">
<path d="M48 24C48 29.0514 46.4062 33.974 43.4455 38.0668C40.4848 42.1596 36.3082 45.2138 31.5105 46.7946C26.7128 48.3753 21.5387 48.402 16.7249 46.8708C11.9112 45.3396 7.70336 42.3286 4.70061 38.2665C1.69787 34.2045 0.0533593 29.2986 0.00127577 24.2475C-0.0508078 19.1963 1.49219 14.2576 4.41054 10.1345C7.32888 6.01138 11.4738 2.91423 16.2549 1.28408C21.036 -0.346074 26.2096 -0.426097 31.0389 1.0554L29.2836 6.7769C25.6586 5.66482 21.7751 5.72489 18.1862 6.94855C14.5973 8.1722 11.486 10.497 9.29539 13.592C7.10477 16.6869 5.94653 20.3942 5.98563 24.1858C6.02472 27.9773 7.25916 31.6599 9.51313 34.709C11.7671 37.7581 14.9257 40.0183 18.5391 41.1677C22.1524 42.3171 26.0363 42.2971 29.6377 41.1105C33.239 39.9239 36.3741 37.6313 38.5965 34.5591C40.8189 31.4869 42.0153 27.7918 42.0153 24H48Z" fill="#246BFD"/>
</svg>
