<svg width="136" height="32" viewBox="0 0 136 32" fill="none" xmlns="http://www.w3.org/2000/svg">
<path d="M41.1125 0.00012207L20.6101 31.1331H10.9619L13.9634 26.5597L14.0176 26.492L31.4643 0.00012207H41.1125Z" fill="white"/>
<path d="M25.5907 2.8905L9.65493 27.0922H0L1.2399 25.2019L1.28733 25.1341L15.9425 2.8905H25.5907Z" fill="white"/>
<path d="M45.1404 25.1225V6.46128H52.1383C53.5719 6.46128 54.7747 6.71034 55.7467 7.20846C56.7247 7.70658 57.4627 8.40516 57.9609 9.3042C58.465 10.1972 58.7171 11.239 58.7171 12.4296C58.7171 13.6263 58.462 14.6651 57.9517 15.5459C57.4476 16.4206 56.7034 17.0979 55.7193 17.5778C54.7352 18.0517 53.5264 18.2886 52.0928 18.2886H47.1086V15.4821H51.6372C52.4755 15.4821 53.1619 15.3667 53.6965 15.1358C54.231 14.8989 54.6259 14.5557 54.881 14.1062C55.1422 13.6506 55.2728 13.0917 55.2728 12.4296C55.2728 11.7675 55.1422 11.2025 54.881 10.7348C54.6198 10.261 54.2219 9.90255 53.6874 9.65957C53.1528 9.41051 52.4633 9.28598 51.619 9.28598H48.5209V25.1225H45.1404ZM54.7808 16.6666L59.4005 25.1225H55.6282L51.0905 16.6666H54.7808Z" fill="white"/>
<path d="M61.6831 25.1225V11.1266H64.9816V25.1225H61.6831ZM63.3414 9.14019C62.819 9.14019 62.3695 8.96706 61.9929 8.62081C61.6163 8.26848 61.4279 7.8463 61.4279 7.35425C61.4279 6.85613 61.6163 6.43395 61.9929 6.0877C62.3695 5.73537 62.819 5.5592 63.3414 5.5592C63.8699 5.5592 64.3195 5.73537 64.69 6.0877C65.0666 6.43395 65.2549 6.85613 65.2549 7.35425C65.2549 7.8463 65.0666 8.26848 64.69 8.62081C64.3195 8.96706 63.8699 9.14019 63.3414 9.14019Z" fill="white"/>
<path d="M71.672 16.9218V25.1225H68.3735V11.1266H71.5262V13.5048H71.6902C72.0122 12.7212 72.5255 12.0985 73.2302 11.6369C73.9409 11.1752 74.8187 10.9444 75.8635 10.9444C76.8294 10.9444 77.6707 11.1509 78.3875 11.564C79.1104 11.977 79.6693 12.5754 80.0641 13.359C80.465 14.1426 80.6624 15.0933 80.6564 16.211V25.1225H77.3579V16.7213C77.3579 15.7858 77.1149 15.0538 76.6289 14.5253C76.149 13.9968 75.4838 13.7326 74.6334 13.7326C74.0563 13.7326 73.543 13.8602 73.0935 14.1153C72.65 14.3644 72.3007 14.7258 72.0456 15.1996C71.7966 15.6734 71.672 16.2475 71.672 16.9218Z" fill="white"/>
<path d="M90.9984 11.1266V13.6779H82.9526V11.1266H90.9984ZM84.939 7.7734H88.2375V20.9128C88.2375 21.3562 88.3043 21.6964 88.438 21.9333C88.5777 22.1642 88.7599 22.3221 88.9847 22.4072C89.2094 22.4922 89.4585 22.5347 89.7318 22.5347C89.9384 22.5347 90.1267 22.5195 90.2968 22.4892C90.473 22.4588 90.6066 22.4315 90.6977 22.4072L91.2535 24.9858C91.0774 25.0466 90.8253 25.1134 90.4973 25.1863C90.1753 25.2592 89.7804 25.3017 89.3127 25.3139C88.4866 25.3382 87.7424 25.2136 87.0803 24.9403C86.4181 24.6608 85.8927 24.2295 85.5039 23.6464C85.1212 23.0632 84.9329 22.3343 84.939 21.4595V7.7734Z" fill="white"/>
<path d="M99.8028 25.3959C98.3996 25.3959 97.1877 25.1043 96.1671 24.5211C95.1527 23.9319 94.3721 23.0997 93.8254 22.0245C93.2787 20.9432 93.0053 19.6705 93.0053 18.2066C93.0053 16.7669 93.2787 15.5034 93.8254 14.416C94.3782 13.3226 95.1497 12.4721 96.1398 11.8647C97.13 11.2511 98.2933 10.9444 99.6297 10.9444C100.492 10.9444 101.306 11.0841 102.072 11.3635C102.843 11.6369 103.524 12.0621 104.113 12.6392C104.708 13.2163 105.176 13.9513 105.516 14.8443C105.856 15.7312 106.026 16.7881 106.026 18.0152V19.0266H94.5543V16.8033H102.864C102.858 16.1716 102.722 15.6097 102.454 15.1176C102.187 14.6195 101.813 14.2277 101.334 13.9422C100.86 13.6567 100.307 13.5139 99.6752 13.5139C99.001 13.5139 98.4087 13.6779 97.8984 14.006C97.3881 14.3279 96.9903 14.7531 96.7048 15.2816C96.4253 15.804 96.2826 16.3781 96.2765 17.0038V18.9446C96.2765 19.7586 96.4253 20.4572 96.723 21.0404C97.0206 21.6175 97.4367 22.0609 97.9713 22.3707C98.5059 22.6744 99.1316 22.8263 99.8484 22.8263C100.328 22.8263 100.763 22.7595 101.151 22.6258C101.54 22.4861 101.877 22.2826 102.163 22.0153C102.448 21.7481 102.664 21.417 102.81 21.0221L105.89 21.3684C105.695 22.1824 105.325 22.8931 104.778 23.5006C104.237 24.102 103.545 24.5697 102.7 24.9038C101.856 25.2319 100.89 25.3959 99.8028 25.3959Z" fill="white"/>
<path d="M114.922 25.3959C113.525 25.3959 112.325 25.0891 111.323 24.4756C110.326 23.862 109.558 23.0146 109.017 21.9333C108.483 20.846 108.215 19.5946 108.215 18.1792C108.215 16.7578 108.489 15.5034 109.035 14.416C109.582 13.3226 110.354 12.4721 111.35 11.8647C112.352 11.2511 113.537 10.9444 114.904 10.9444C116.039 10.9444 117.045 11.1539 117.92 11.5731C118.8 11.9861 119.502 12.5723 120.024 13.3317C120.547 14.0849 120.845 14.9657 120.917 15.9741H117.765C117.637 15.2999 117.333 14.738 116.853 14.2884C116.38 13.8328 115.745 13.605 114.949 13.605C114.275 13.605 113.683 13.7873 113.172 14.1517C112.662 14.5102 112.264 15.0265 111.979 15.7008C111.699 16.3751 111.559 17.183 111.559 18.1245C111.559 19.0783 111.699 19.8983 111.979 20.5848C112.258 21.2651 112.65 21.7906 113.154 22.1611C113.664 22.5256 114.263 22.7078 114.949 22.7078C115.435 22.7078 115.869 22.6167 116.252 22.4345C116.641 22.2462 116.966 21.9759 117.227 21.6235C117.488 21.2712 117.667 20.8429 117.765 20.3387H120.917C120.838 21.3289 120.547 22.2067 120.043 22.9721C119.538 23.7314 118.852 24.3267 117.983 24.758C117.115 25.1833 116.094 25.3959 114.922 25.3959Z" fill="white"/>
<path d="M126.924 16.9218V25.1225H123.626V6.46128H126.852V13.5048H127.016C127.344 12.7151 127.851 12.0925 128.537 11.6369C129.23 11.1752 130.111 10.9444 131.18 10.9444C132.152 10.9444 132.999 11.1479 133.722 11.5549C134.445 11.9618 135.004 12.5572 135.399 13.3408C135.799 14.1244 136 15.0812 136 16.211V25.1225H132.701V16.7213C132.701 15.7797 132.458 15.0478 131.972 14.5253C131.493 13.9968 130.818 13.7326 129.95 13.7326C129.366 13.7326 128.844 13.8602 128.382 14.1153C127.927 14.3644 127.568 14.7258 127.307 15.1996C127.052 15.6734 126.924 16.2475 126.924 16.9218Z" fill="white"/>
</svg>
