<svg width="39" height="39" viewBox="0 0 39 39" fill="none" xmlns="http://www.w3.org/2000/svg">
<path d="M33.7254 38.004H5.76409C4.46535 38.004 3.21981 37.5041 2.30146 36.6143C1.38311 35.7245 0.867188 34.5176 0.867188 33.2592V8.06458C0.874507 7.41382 1.00737 6.77012 1.25894 6.16668C1.51337 5.57213 1.89759 5.03798 2.38523 4.60091C2.83631 4.12843 3.38759 3.75614 4.0012 3.50962C4.62778 3.28419 5.29162 3.17163 5.95997 3.17749H33.8723C34.5254 3.16366 35.1748 3.27659 35.7821 3.50962C36.3838 3.75596 36.932 4.1101 37.3981 4.55346C37.8765 5.01649 38.2589 5.56412 38.5244 6.16668C38.776 6.77012 38.9088 7.41382 38.9162 8.06458V33.0694C38.9088 33.7202 38.776 34.3639 38.5244 34.9673C38.2702 35.5503 37.9047 36.0815 37.4471 36.5331C36.976 37.0045 36.409 37.3761 35.7821 37.6244C35.1328 37.8931 34.4312 38.0226 33.7254 38.004ZM5.76409 6.11923C5.50546 6.06938 5.23922 6.06938 4.98059 6.11923C4.72286 6.21188 4.4888 6.35734 4.29442 6.54568C4.10004 6.73402 3.94991 6.9608 3.8543 7.21053C3.7816 7.47478 3.7816 7.75288 3.8543 8.01713V33.0694C3.85722 33.622 4.08615 34.151 4.4909 34.5403C4.67511 34.74 4.90186 34.8986 5.1555 35.0051C5.40914 35.1116 5.68362 35.1635 5.95997 35.1571H33.9213C34.1977 35.1635 34.4721 35.1116 34.7258 35.0051C34.9794 34.8986 35.2062 34.74 35.3904 34.5403C35.5816 34.3496 35.7314 34.1237 35.8311 33.876C35.8817 33.6094 35.8817 33.3361 35.8311 33.0694V8.06458C35.9038 7.80033 35.9038 7.52223 35.8311 7.25797C35.7355 7.00825 35.5854 6.78147 35.391 6.59313C35.1966 6.40479 34.9625 6.25932 34.7048 6.16668C34.4488 6.09549 34.1773 6.09549 33.9213 6.16668L5.76409 6.11923Z" fill="white"/>
<path d="M37.2512 11.1961H2.14038L3.8543 35.1571H37.2512V11.1961Z" fill="white"/>
<path d="M11.5424 0.567871H8.6043V8.49161H11.5424V0.567871Z" fill="white"/>
<path d="M30.6894 0.567871H27.7512V8.49161H30.6894V0.567871Z" fill="white"/>
</svg>
