<svg width="498" height="1095" viewBox="0 0 498 1095" fill="none" xmlns="http://www.w3.org/2000/svg">
<g opacity="0.9">
<path opacity="0.0344828" d="M113.81 745.49C133.699 754.477 154.236 734.295 145.598 714.253L78.6303 558.876C75.7482 552.189 75.8144 544.597 78.8128 537.961L148.482 383.777C157.468 363.889 137.287 343.352 117.244 351.99L-38.1324 418.957C-44.8196 421.839 -52.4112 421.773 -59.047 418.775L-213.231 349.106C-233.12 340.119 -253.657 360.301 -245.019 380.343L-178.051 535.72C-175.169 542.407 -175.235 549.999 -178.234 556.635L-247.903 710.819C-256.889 730.707 -236.708 751.244 -216.666 742.606L-61.2887 675.639C-54.6015 672.757 -47.0099 672.823 -40.374 675.821L113.81 745.49Z" stroke="#004ECC" stroke-width="2"/>
<path opacity="0.0689655" d="M121.094 734.031C141.425 741.965 160.878 720.736 151.203 701.174L77.5277 552.208C74.2995 545.681 73.9683 538.097 76.6153 531.313L137.027 376.493C144.96 356.162 123.731 336.709 104.169 346.385L-44.7965 420.059C-51.3237 423.288 -58.9083 423.619 -65.692 420.972L-220.512 360.56C-240.843 352.627 -260.296 373.856 -250.62 393.418L-176.945 542.384C-173.717 548.911 -173.386 556.495 -176.033 563.279L-236.444 718.099C-244.378 738.43 -223.149 757.883 -203.587 748.207L-54.6213 674.532C-48.0941 671.304 -40.5095 670.973 -33.7258 673.62L121.094 734.031Z" stroke="#004ECC" stroke-width="2"/>
<path opacity="0.103448" d="M127.63 722.366C148.349 729.224 166.664 707.007 155.978 687.977L76.0795 545.692C72.5141 539.343 71.7865 531.786 74.0748 524.873L125.356 369.957C132.215 349.238 109.997 330.923 90.9677 341.609L-51.3172 421.508C-57.6665 425.073 -65.2234 425.801 -72.1363 423.513L-227.052 372.231C-247.771 365.373 -266.086 387.59 -255.4 406.62L-175.502 548.905C-171.936 555.254 -171.209 562.811 -173.497 569.724L-224.778 724.64C-231.637 745.359 -209.419 763.674 -190.39 752.988L-48.1048 673.089C-41.7556 669.524 -34.1986 668.796 -27.2857 671.084L127.63 722.366Z" stroke="#004ECC" stroke-width="2"/>
<path opacity="0.137931" d="M133.425 710.53C154.475 716.295 171.601 693.149 159.934 674.705L74.3051 539.336C70.4123 533.182 69.2902 525.674 71.2136 518.65L113.523 364.161C119.288 343.112 96.1423 325.985 77.6982 337.652L-57.6703 423.281C-63.8243 427.174 -71.3328 428.296 -78.356 426.373L-232.845 384.063C-253.895 378.298 -271.021 401.444 -259.354 419.888L-173.725 555.257C-169.832 561.411 -168.71 568.919 -170.634 575.942L-212.943 730.432C-218.708 751.481 -195.562 768.608 -177.118 756.941L-41.7497 671.312C-35.5957 667.419 -28.0872 666.297 -21.064 668.22L133.425 710.53Z" stroke="#004ECC" stroke-width="2"/>
<path opacity="0.172414" d="M138.478 698.574C159.8 703.229 175.692 679.219 163.076 661.411L72.2166 533.161C68.0071 527.22 66.4935 519.78 68.0467 512.666L101.572 359.11C106.227 337.788 82.2169 321.896 64.4087 334.512L-63.8406 425.371C-69.7824 429.581 -77.2219 431.095 -84.3362 429.541L-237.892 396.016C-259.214 391.361 -275.106 415.371 -262.49 433.179L-171.63 561.429C-167.421 567.37 -165.907 574.81 -167.461 581.924L-200.986 735.48C-205.641 756.802 -181.631 772.694 -163.823 760.078L-35.5733 669.219C-29.6315 665.009 -22.192 663.495 -15.0777 665.049L138.478 698.574Z" stroke="#004ECC" stroke-width="2"/>
<path opacity="0.206897" d="M142.781 686.549C164.318 690.082 178.932 665.273 165.4 648.149L69.817 527.189C65.3022 521.475 63.4014 514.125 64.5802 506.94L89.5366 354.805C93.0695 333.269 68.2603 318.655 51.1368 332.186L-69.8236 427.77C-75.537 432.284 -82.887 434.185 -90.0728 433.006L-242.207 408.05C-263.744 404.517 -278.357 429.326 -264.826 446.45L-169.243 567.41C-164.728 573.124 -162.827 580.474 -164.006 587.659L-188.962 739.794C-192.495 761.33 -167.686 775.944 -150.563 762.413L-29.6021 666.829C-23.8888 662.315 -16.5387 660.414 -9.35289 661.593L142.781 686.549Z" stroke="#004ECC" stroke-width="2"/>
<path opacity="0.241379" d="M146.361 674.485C168.053 676.886 181.349 651.346 166.94 634.954L67.1408 521.419C62.3333 515.95 60.0504 508.709 60.8514 501.472L77.481 351.227C79.8819 329.535 54.3419 316.24 37.95 330.648L-75.585 430.447C-81.0542 435.255 -88.2947 437.538 -95.5323 436.737L-245.777 420.107C-267.469 417.706 -280.764 443.246 -266.356 459.638L-166.557 573.173C-161.749 578.642 -159.466 585.883 -160.267 593.12L-176.897 743.365C-179.298 765.057 -153.758 778.353 -137.366 763.944L-23.8309 664.145C-18.3616 659.337 -11.1211 657.054 -3.88345 657.855L146.361 674.485Z" stroke="#004ECC" stroke-width="2"/>
<path opacity="0.275862" d="M149.21 662.437C170.998 663.699 182.938 637.498 167.691 621.883L64.1866 515.877C59.0994 510.667 56.4407 503.556 56.8619 496.286L65.4316 348.377C66.694 326.589 40.4931 314.649 24.8778 329.896L-81.1283 433.4C-86.3384 438.488 -93.4495 441.146 -100.719 440.725L-248.628 432.155C-270.416 430.893 -282.356 457.094 -267.11 472.709L-163.605 578.715C-158.518 583.925 -155.859 591.036 -156.28 598.306L-164.85 746.215C-166.112 768.003 -139.911 779.943 -124.296 764.697L-18.29 661.192C-13.0799 656.105 -5.96877 653.446 1.30088 653.867L149.21 662.437Z" stroke="#004ECC" stroke-width="2"/>
<path opacity="0.310345" d="M151.349 650.442C173.173 650.562 183.726 623.772 167.682 608.976L60.9808 510.57C55.6279 505.633 52.6006 498.671 52.6408 491.389L53.4412 346.24C53.5616 324.415 26.7717 313.863 11.9757 329.906L-86.4306 436.608C-91.3674 441.96 -98.3296 444.988 -105.611 444.948L-250.761 444.147C-272.585 444.027 -283.138 470.817 -267.095 485.613L-160.393 584.019C-155.04 588.956 -152.013 595.918 -152.053 603.2L-152.853 748.349C-152.974 770.173 -126.184 780.726 -111.388 764.683L-12.9816 657.981C-8.04485 652.628 -1.08264 649.601 6.1991 649.641L151.349 650.442Z" stroke="#004ECC" stroke-width="2"/>
<path opacity="0.344828" d="M152.781 638.546C174.581 637.524 183.718 610.219 166.922 596.283L57.5292 505.515C51.9253 500.865 48.5378 494.071 48.1968 486.797L41.5404 344.806C40.5184 323.006 13.2129 313.87 -0.723114 330.665L-91.4913 440.058C-96.1411 445.662 -102.935 449.049 -110.209 449.39L-252.2 456.047C-274 457.069 -283.137 484.374 -266.341 498.31L-156.948 589.078C-151.344 593.728 -147.957 600.522 -147.616 607.796L-140.959 749.787C-139.937 771.587 -112.632 780.724 -98.6958 763.928L-7.92765 654.535C-3.27782 648.931 3.51642 645.544 10.7903 645.203L152.781 638.546Z" stroke="#004ECC" stroke-width="2"/>
<path opacity="0.37931" d="M153.531 626.786C175.248 624.624 182.943 596.878 165.441 583.84L53.8578 500.717C48.0182 496.367 44.2798 489.759 43.5586 482.513L29.7777 344.056C27.6161 322.339 -0.130068 314.644 -13.168 332.146L-96.2912 443.729C-100.641 449.569 -107.249 453.307 -114.495 454.029L-252.952 467.81C-274.669 469.971 -282.364 497.717 -264.862 510.755L-153.279 593.878C-147.439 598.229 -143.701 604.836 -142.98 612.082L-129.199 750.539C-127.037 772.257 -99.291 779.951 -86.253 762.449L-3.12984 650.866C1.22034 645.026 7.82798 641.288 15.074 640.567L153.531 626.786Z" stroke="#004ECC" stroke-width="2"/>
<path opacity="0.413793" d="M153.618 615.198C175.192 611.903 181.424 583.792 163.264 571.688L49.984 496.185C43.9247 492.146 39.8456 485.743 38.7462 478.545L18.1917 343.97C14.8965 322.396 -13.2144 316.164 -25.3185 334.324L-100.821 447.604C-104.86 453.663 -111.263 457.742 -118.461 458.842L-253.036 479.396C-274.611 482.691 -280.843 510.802 -262.682 522.906L-149.402 598.409C-143.343 602.448 -139.264 608.851 -138.165 616.049L-117.61 750.624C-114.315 772.198 -86.2041 778.43 -74.0999 760.27L1.40278 646.99C5.44137 640.931 11.8443 636.852 19.0427 635.752L153.618 615.198Z" stroke="#004ECC" stroke-width="2"/>
<path opacity="0.448276" d="M153.058 603.822C174.43 599.402 179.182 571.004 160.413 559.866L45.9218 491.929C39.6594 488.213 35.2508 482.033 33.7761 474.902L6.81527 344.53C2.39551 323.158 -26.003 318.405 -37.1401 337.174L-105.077 451.666C-108.793 457.928 -114.974 462.337 -122.105 463.811L-252.477 490.772C-273.849 495.192 -278.601 523.591 -259.832 534.728L-145.341 602.665C-139.078 606.381 -134.67 612.561 -133.195 619.692L-106.234 750.064C-101.814 771.437 -73.416 776.189 -62.2789 757.42L5.65814 642.928C9.37408 636.666 15.5548 632.257 22.6857 630.783L153.058 603.822Z" stroke="#004ECC" stroke-width="2"/>
<path opacity="0.482759" d="M151.875 592.691C172.987 587.159 176.246 558.551 156.92 548.411L41.6911 487.955C35.2429 484.572 30.5168 478.631 28.671 471.587L-4.31433 345.711C-9.84659 324.6 -38.4549 321.34 -48.5944 340.666L-109.05 455.895C-112.433 462.344 -118.375 467.07 -125.419 468.916L-251.294 501.901C-272.406 507.433 -275.665 536.041 -256.339 546.181L-141.11 606.637C-134.662 610.02 -129.936 615.961 -128.09 623.005L-95.1045 748.881C-89.5723 769.992 -60.964 773.252 -50.8244 753.926L9.63121 638.696C13.0143 632.248 18.9558 627.522 25.9998 625.676L151.875 592.691Z" stroke="#004ECC" stroke-width="2"/>
<path opacity="0.517241" d="M150.094 581.843C170.887 575.213 172.645 546.473 152.814 537.359L37.3099 484.272C30.6934 481.231 25.6629 475.545 23.4509 468.607L-15.1641 347.494C-21.7936 326.701 -50.5333 324.943 -59.6475 344.773L-112.735 460.278C-115.776 466.894 -121.462 471.925 -128.399 474.137L-249.513 512.752C-270.306 519.381 -272.064 548.121 -252.233 557.235L-136.729 610.322C-130.112 613.363 -125.082 619.049 -122.87 625.987L-84.2549 747.1C-77.6254 767.894 -48.8857 769.651 -39.7715 749.821L13.3157 634.317C16.3567 627.7 22.0426 622.67 28.9804 620.458L150.094 581.843Z" stroke="#004ECC" stroke-width="2"/>
<path opacity="0.551724" d="M147.74 571.304C168.158 563.595 168.409 534.803 148.129 526.739L32.7971 480.88C26.0305 478.189 20.7093 472.774 18.1373 465.962L-25.7018 349.847C-33.4105 329.43 -62.2028 329.178 -70.2667 349.458L-116.126 464.79C-118.816 471.557 -124.231 476.878 -131.044 479.45L-247.158 523.289C-267.576 530.998 -267.827 559.79 -247.547 567.854L-132.215 613.713C-125.449 616.404 -120.128 621.818 -117.555 628.631L-73.7163 744.746C-66.0076 765.163 -37.2153 765.415 -29.1514 745.135L16.7075 629.803C19.398 623.036 24.8129 617.715 31.6254 615.143L147.74 571.304Z" stroke="#004ECC" stroke-width="2"/>
<path opacity="0.586207" d="M144.841 561.107C164.828 552.34 163.572 523.574 142.898 516.583L28.1705 477.785C21.2724 475.453 15.6751 470.324 12.75 463.655L-35.8988 352.746C-44.6655 332.76 -73.4315 334.016 -80.4229 354.69L-119.22 469.417C-121.553 476.315 -126.682 481.913 -133.351 484.838L-244.26 533.486C-264.246 542.253 -262.99 571.019 -242.316 578.011L-127.589 616.808C-120.69 619.141 -115.093 624.27 -112.168 630.938L-63.5193 741.847C-54.7526 761.834 -25.9866 760.578 -18.9951 739.903L19.8022 625.176C22.1349 618.278 27.2639 612.681 33.9324 609.756L144.841 561.107Z" stroke="#004ECC" stroke-width="2"/>
<path opacity="0.62069" d="M141.429 551.278C160.929 541.477 158.169 512.816 137.157 506.916L23.4502 474.989C16.4394 473.02 10.5814 468.191 7.31133 461.685L-45.7257 356.159C-55.5264 336.659 -84.1873 339.419 -90.0871 360.431L-122.015 474.138C-123.983 481.148 -128.812 487.006 -135.318 490.276L-240.844 543.314C-260.344 553.114 -257.585 581.775 -236.573 587.675L-122.866 619.602C-115.855 621.571 -109.997 626.4 -106.727 632.906L-53.6897 738.432C-43.889 757.932 -15.2282 755.172 -9.32837 734.161L22.599 620.454C24.5675 613.443 29.3965 607.585 35.9029 604.315L141.429 551.278Z" stroke="#004ECC" stroke-width="2"/>
<path opacity="0.655172" d="M137.528 541.845C156.488 531.037 152.232 502.56 130.94 497.768L18.6501 472.495C11.546 470.896 5.44321 466.38 1.83713 460.054L-55.1619 360.06C-65.9697 341.099 -94.4468 345.355 -99.2389 366.647L-124.512 478.937C-126.111 486.041 -130.626 492.144 -136.953 495.75L-236.947 552.749C-255.908 563.557 -251.652 592.034 -230.36 596.826L-118.07 622.099C-110.966 623.698 -104.863 628.214 -101.257 634.54L-44.2577 734.535C-33.4499 753.495 -4.97277 749.239 -0.180676 727.947L25.0921 615.657C26.691 608.553 31.2068 602.45 37.5331 598.844L137.528 541.845Z" stroke="#004ECC" stroke-width="2"/>
<path opacity="0.689655" d="M133.182 532.823C151.551 521.038 145.81 492.822 124.297 489.151L13.8001 470.295C6.62197 469.07 0.291213 464.88 -3.64102 458.751L-64.1723 364.406C-75.9577 346.037 -104.173 351.778 -107.844 373.291L-126.7 483.788C-127.925 490.966 -132.115 497.297 -138.244 501.229L-232.589 561.76C-250.958 573.546 -245.217 601.761 -223.704 605.432L-113.207 624.288C-106.029 625.513 -99.6986 629.703 -95.7663 635.832L-35.235 730.177C-23.4496 748.546 4.7657 742.805 8.4369 721.292L27.2927 610.795C28.5176 603.617 32.7078 597.286 38.8367 593.354L133.182 532.823Z" stroke="#004ECC" stroke-width="2"/>
<path opacity="0.724138" d="M128.409 524.246C146.136 511.515 138.927 483.639 117.251 481.099L8.90366 468.401C1.6713 467.554 -4.87008 463.701 -9.11768 457.786L-72.7506 369.179C-85.4812 351.452 -113.357 358.662 -115.898 380.338L-128.595 488.685C-129.442 495.917 -133.296 502.459 -139.21 506.706L-227.817 570.339C-245.544 583.07 -238.335 610.946 -216.658 613.486L-108.311 626.183C-101.079 627.031 -94.5376 630.884 -90.29 636.799L-26.6571 725.406C-13.9266 743.132 13.9497 735.923 16.49 714.247L29.1872 605.9C30.0347 598.668 33.8879 592.126 39.8026 587.879L128.409 524.246Z" stroke="#004ECC" stroke-width="2"/>
<path opacity="0.758621" d="M123.253 516.123C140.289 502.482 131.631 475.021 109.851 473.619L3.98718 466.803C-3.27963 466.335 -10.0137 462.829 -14.565 457.145L-80.8697 374.336C-94.5106 357.3 -121.971 365.958 -123.374 387.737L-130.19 493.601C-130.658 500.868 -134.163 507.602 -139.848 512.154L-222.657 578.458C-239.693 592.099 -231.035 619.56 -209.255 620.962L-103.391 627.779C-96.1244 628.247 -89.3904 631.752 -84.839 637.436L-18.5342 720.246C-4.89338 737.282 22.5673 728.623 23.9696 706.844L30.7859 600.98C31.2538 593.713 34.7593 586.979 40.4436 582.428L123.253 516.123Z" stroke="#004ECC" stroke-width="2"/>
<path opacity="0.793103" d="M117.74 508.478C134.039 493.964 123.955 466.994 102.132 466.734L-0.938483 465.503C-8.21982 465.416 -15.1281 462.268 -19.9707 456.83L-88.5199 379.849C-103.034 363.55 -130.004 373.633 -130.264 395.456L-131.495 498.527C-131.582 505.808 -134.73 512.717 -140.168 517.559L-217.149 586.108C-233.448 600.622 -223.365 627.592 -201.542 627.853L-98.4711 629.083C-91.1898 629.17 -84.2815 632.318 -79.4389 637.757L-10.8897 714.738C3.62408 731.037 30.594 720.953 30.8546 699.13L32.0852 596.06C32.1721 588.778 35.3204 581.87 40.7586 577.027L117.74 508.478Z" stroke="#004ECC" stroke-width="2"/>
<path opacity="0.827586" d="M111.914 501.318C127.431 485.971 115.95 459.566 94.1431 460.448L-5.84789 464.492C-13.1238 464.786 -20.1874 462.004 -25.308 456.827L-95.6788 385.675C-111.026 370.158 -137.431 381.64 -136.549 403.446L-132.505 503.437C-132.211 510.713 -134.993 517.777 -140.171 522.897L-211.322 593.268C-226.839 608.615 -215.358 635.02 -193.551 634.138L-93.5599 630.094C-86.284 629.8 -79.2204 632.583 -74.0999 637.76L-3.72903 708.911C11.6179 724.428 38.0231 712.947 37.1412 691.14L33.0972 591.149C32.8029 583.873 35.5854 576.81 40.7627 571.689L111.914 501.318Z" stroke="#004ECC" stroke-width="2"/>
<path opacity="0.862069" d="M105.807 494.655C120.5 478.518 107.652 452.749 85.9219 454.771L-10.7281 463.764C-17.9787 464.439 -25.1782 462.03 -30.5627 457.128L-102.339 391.78C-118.477 377.088 -144.245 389.935 -142.223 411.666L-133.23 508.316C-132.555 515.566 -134.964 522.766 -139.866 528.15L-205.214 599.926C-219.907 616.064 -207.059 641.832 -185.328 639.81L-88.6784 630.817C-81.4279 630.143 -74.2283 632.552 -68.8438 637.454L2.93214 702.802C19.0701 717.494 44.8383 704.647 42.8163 682.916L33.8232 586.266C33.1485 579.015 35.5574 571.816 40.4597 566.431L105.807 494.655Z" stroke="#004ECC" stroke-width="2"/>
<path opacity="0.896552" d="M99.4564 488.504C113.284 471.619 99.1058 446.559 77.5108 449.715L-15.5624 463.32C-22.7677 464.373 -30.0835 462.344 -35.7172 457.73L-108.49 398.133C-125.374 384.305 -150.435 398.483 -147.278 420.078L-133.674 513.151C-132.621 520.357 -134.65 527.672 -139.263 533.306L-198.861 606.079C-212.689 622.963 -198.51 648.024 -176.915 644.868L-83.8421 631.263C-76.6368 630.21 -69.3211 632.239 -63.6874 636.852L9.08514 696.45C25.9699 710.278 51.0304 696.099 47.8739 674.504L34.2695 581.431C33.2163 574.226 35.2451 566.91 39.8589 561.276L99.4564 488.504Z" stroke="#004ECC" stroke-width="2"/>
<path opacity="0.931035" d="M92.893 482.869C105.818 465.284 90.3476 440.999 68.9474 445.282L-20.3395 463.149C-27.4798 464.578 -34.8917 462.935 -40.7591 458.622L-114.13 404.695C-131.715 391.769 -155.999 407.24 -151.717 428.64L-133.849 517.927C-132.421 525.067 -134.064 532.479 -138.376 538.347L-192.304 611.717C-205.229 629.303 -189.758 653.587 -168.358 649.304L-79.0713 631.437C-71.931 630.008 -64.5191 631.651 -58.6517 635.964L14.7188 689.891C32.3041 702.817 56.5882 687.346 52.3058 665.946L34.4386 576.659C33.0098 569.519 34.653 562.107 38.9656 556.239L92.893 482.869Z" stroke="#004ECC" stroke-width="2"/>
<path opacity="0.965517" d="M86.162 477.751C98.1492 459.514 81.4288 436.073 60.2821 441.469L-25.0354 463.242C-32.0911 465.042 -39.5788 463.789 -45.6639 459.79L-119.245 411.427C-137.482 399.439 -160.924 416.16 -155.527 437.307L-133.755 522.624C-131.954 529.68 -133.207 537.167 -137.207 543.253L-185.57 616.833C-197.557 635.071 -180.836 658.512 -159.69 653.116L-74.3722 631.343C-67.3165 629.543 -59.8287 630.796 -53.7436 634.795L19.8372 683.158C38.0749 695.145 61.516 678.425 56.1195 657.278L34.347 571.961C32.5465 564.905 33.7995 557.417 37.7991 551.332L86.162 477.751Z" stroke="#004ECC" stroke-width="2"/>
<path d="M79.2917 473.158C90.308 454.318 72.3837 431.784 51.5484 438.28L-29.6436 463.593C-36.5954 465.76 -44.1385 464.901 -50.4245 461.225L-123.841 418.297C-142.681 407.28 -165.215 425.205 -158.719 446.04L-133.406 527.232C-131.239 534.184 -132.098 541.727 -135.774 548.013L-178.703 621.43C-189.719 640.27 -171.795 662.804 -150.959 656.308L-69.7673 630.994C-62.8155 628.827 -55.2724 629.686 -48.9863 633.362L24.4304 676.291C43.2705 687.307 65.8045 669.383 59.3086 648.547L33.9953 567.356C31.8279 560.404 32.6873 552.861 36.363 546.575L79.2917 473.158Z" stroke="#004ECC" stroke-width="2"/>
</g>
<g filter="url(#filter0_f_1378_24157)">
<circle cx="-111.205" cy="569.795" r="210" fill="#4864DE"/>
</g>
<path d="M107.781 586.672C103.405 586.672 99.4715 585.213 96.7752 582.34L98.1896 580.881C100.842 583.489 104.068 584.594 107.693 584.594C115.605 584.594 121.572 578.76 121.572 570.98C121.572 563.201 115.605 557.367 107.693 557.367C104.068 557.367 100.842 558.427 98.1896 561.035L96.7752 559.577C99.4715 556.703 103.405 555.289 107.781 555.289C116.975 555.289 123.826 561.963 123.826 570.98C123.826 579.997 116.975 586.672 107.781 586.672Z" fill="white"/>
<path fill-rule="evenodd" clip-rule="evenodd" d="M72.484 563.684C66.9338 565.018 61.2691 561.866 59.4807 556.44C65.031 555.105 70.6957 558.257 72.484 563.684Z" fill="white"/>
<path d="M45.0227 564.14C47.2106 560.35 50.4408 557.673 54.277 556.774L54.833 558.729C51.2485 559.721 48.6782 561.963 46.866 565.102C42.91 571.954 44.9793 580.039 51.7164 583.929C58.4535 587.818 66.4899 585.568 70.4459 578.716C72.2581 575.577 72.9528 572.252 72.0203 568.652L73.9908 568.156C75.1308 571.928 74.3888 576.042 72.2008 579.831C67.6039 587.793 58.3982 590.389 50.5893 585.881C42.7803 581.372 40.4258 572.102 45.0227 564.14Z" fill="white"/>
<path d="M107.835 597.33C100.63 597.33 93.7207 594.468 88.6262 589.374C83.5318 584.279 80.6698 577.37 80.6698 570.165C80.6698 562.96 83.5318 556.051 88.6262 550.956C93.7207 545.862 100.63 543 107.835 543V545.07C101.179 545.07 94.796 547.714 90.0897 552.42C85.3834 557.126 82.7394 563.509 82.7394 570.165C82.7394 576.821 85.3834 583.204 90.0897 587.91C94.796 592.617 101.179 595.261 107.835 595.261V597.33Z" fill="white"/>
<defs>
<filter id="filter0_f_1378_24157" x="-444.205" y="236.795" width="666" height="666" filterUnits="userSpaceOnUse" color-interpolation-filters="sRGB">
<feFlood flood-opacity="0" result="BackgroundImageFix"/>
<feBlend mode="normal" in="SourceGraphic" in2="BackgroundImageFix" result="shape"/>
<feGaussianBlur stdDeviation="61.5" result="effect1_foregroundBlur_1378_24157"/>
</filter>
</defs>
</svg>
