<svg width="375" height="559" viewBox="0 0 375 559" fill="none" xmlns="http://www.w3.org/2000/svg">
<g opacity="0.9">
<path opacity="0.0344828" d="M147.983 171.781C130.978 158.101 106.042 172.498 109.387 194.065L118.186 250.796C119.302 257.992 117.337 265.325 112.772 270.999L76.7868 315.73C63.1068 332.735 77.5035 357.671 99.0701 354.326L155.801 345.527C162.997 344.411 170.33 346.376 176.004 350.94L220.735 386.926C237.74 400.606 262.676 386.209 259.331 364.643L250.533 307.911C249.417 300.716 251.381 293.382 255.946 287.709L291.931 242.977C305.611 225.972 291.215 201.037 269.648 204.381L212.917 213.18C205.721 214.296 198.388 212.331 192.714 207.767L147.983 171.781Z" stroke="#004ECC" stroke-width="2"/>
<path opacity="0.0689655" d="M143.551 175.603C125.853 162.831 101.705 178.513 106.174 199.875L117.596 254.472C119.087 261.6 117.509 269.026 113.247 274.93L80.6066 320.161C67.8353 337.859 83.5173 362.007 104.879 357.538L159.476 346.116C166.603 344.625 174.029 346.204 179.934 350.465L225.165 383.106C242.863 395.877 267.011 380.195 262.542 358.833L251.12 304.236C249.629 297.109 251.208 289.683 255.469 283.778L288.109 238.547C300.881 220.849 285.199 196.701 263.837 201.17L209.24 212.592C202.113 214.083 194.687 212.505 188.782 208.243L143.551 175.603Z" stroke="#004ECC" stroke-width="2"/>
<path opacity="0.103448" d="M139.418 179.586C121.077 167.759 97.7825 184.683 103.363 205.782L117.21 258.13C119.072 265.169 117.884 272.668 113.938 278.787L84.5928 324.294C72.7653 342.636 89.6896 365.93 110.788 360.349L163.136 346.503C170.176 344.641 177.674 345.828 183.794 349.775L229.3 379.12C247.642 390.947 270.936 374.023 265.356 352.924L251.509 300.577C249.647 293.537 250.835 286.038 254.781 279.919L284.126 234.412C295.954 216.07 279.029 192.776 257.93 198.357L205.583 212.203C198.543 214.065 191.045 212.878 184.925 208.932L139.418 179.586Z" stroke="#004ECC" stroke-width="2"/>
<path opacity="0.137931" d="M135.586 183.716C116.65 172.864 94.2734 190.984 100.951 211.762L117.019 261.761C119.247 268.693 118.453 276.244 114.833 282.562L88.7204 328.127C77.8689 347.062 95.9892 369.439 116.767 362.761L166.765 346.693C173.698 344.465 181.248 345.259 187.566 348.88L233.131 374.992C252.067 385.843 274.444 367.723 267.766 346.945L251.698 296.947C249.47 290.014 250.264 282.464 253.884 276.146L279.996 230.581C290.848 211.645 272.728 189.269 251.95 195.946L201.951 212.014C195.019 214.242 187.469 213.449 181.151 209.828L135.586 183.716Z" stroke="#004ECC" stroke-width="2"/>
<path opacity="0.172414" d="M132.057 187.968C112.58 178.123 91.1823 197.389 98.938 217.789L117.021 265.354C119.609 272.16 119.212 279.742 115.927 286.24L92.9706 331.654C83.125 351.131 102.392 372.529 122.791 364.773L170.356 346.69C177.163 344.102 184.744 344.5 191.243 347.785L236.657 370.741C256.134 380.586 277.532 361.32 269.776 340.92L251.693 293.355C249.105 286.549 249.502 278.967 252.787 272.469L275.743 227.055C285.589 207.577 266.322 186.18 245.922 193.936L198.358 212.019C191.551 214.607 183.97 214.209 177.471 210.924L132.057 187.968Z" stroke="#004ECC" stroke-width="2"/>
<path opacity="0.206897" d="M128.842 192.321C108.876 183.508 88.5157 203.868 97.3284 223.834L117.218 268.895C120.158 275.557 120.158 283.149 117.218 289.81L97.3284 334.871C88.5157 354.837 108.876 375.197 128.842 366.385L173.903 346.495C180.564 343.555 188.156 343.555 194.818 346.495L239.879 366.385C259.845 375.197 280.205 354.837 271.392 334.871L251.503 289.81C248.563 283.149 248.563 275.557 251.503 268.895L271.392 223.834C280.205 203.868 259.845 183.508 239.879 192.321L194.818 212.21C188.156 215.15 180.564 215.15 173.903 212.21L128.842 192.321Z" stroke="#004ECC" stroke-width="2"/>
<path opacity="0.241379" d="M125.928 196.759C105.528 189.003 86.2617 210.401 96.1073 229.878L117.592 272.381C120.877 278.88 121.274 286.461 118.686 293.268L101.762 337.784C94.0067 358.183 115.404 377.45 134.882 367.604L177.385 346.12C183.883 342.835 191.465 342.437 198.271 345.025L242.787 361.949C263.187 369.705 282.453 348.307 272.608 328.83L251.123 286.327C247.838 279.828 247.441 272.247 250.029 265.44L266.953 220.925C274.708 200.525 253.311 181.258 233.833 191.104L191.331 212.588C184.832 215.873 177.25 216.271 170.444 213.683L125.928 196.759Z" stroke="#004ECC" stroke-width="2"/>
<path opacity="0.275862" d="M123.326 201.258C102.548 194.58 84.4278 216.957 95.2793 235.892L118.148 275.797C121.769 282.115 122.562 289.666 120.334 296.598L106.262 340.386C99.5846 361.164 121.961 379.284 140.897 368.433L180.802 345.564C187.12 341.943 194.67 341.15 201.603 343.378L245.391 357.45C266.168 364.127 284.289 341.751 273.437 322.815L250.569 282.91C246.948 276.592 246.154 269.042 248.382 262.109L262.454 218.321C269.132 197.544 246.755 179.423 227.82 190.275L187.915 213.144C181.597 216.764 174.046 217.558 167.114 215.33L123.326 201.258Z" stroke="#004ECC" stroke-width="2"/>
<path opacity="0.310345" d="M121.027 205.8C99.9287 200.219 83.0043 223.513 94.8319 241.855L118.874 279.138C122.82 285.258 124.008 292.756 122.146 299.796L110.802 342.684C105.221 363.782 128.515 380.707 146.857 368.879L184.14 344.837C190.259 340.891 197.758 339.703 204.798 341.565L247.685 352.909C268.784 358.49 285.708 335.196 273.881 316.854L249.839 279.571C245.893 273.452 244.705 265.953 246.567 258.913L257.911 216.026C263.492 194.927 240.198 178.003 221.856 189.83L184.573 213.872C178.453 217.819 170.955 219.006 163.915 217.144L121.027 205.8Z" stroke="#004ECC" stroke-width="2"/>
<path opacity="0.344828" d="M119.036 210.364C97.6744 205.895 81.9924 230.043 94.7637 247.74L119.77 282.391C124.031 288.296 125.609 295.722 124.118 302.85L115.368 344.676C110.899 366.038 135.047 381.72 152.745 368.949L187.396 343.943C193.301 339.682 200.727 338.103 207.854 339.594L249.681 348.344C271.042 352.813 286.724 328.665 273.953 310.968L248.947 276.317C244.686 270.412 243.108 262.986 244.599 255.858L253.349 214.032C257.818 192.67 233.67 176.988 215.972 189.759L181.321 214.765C175.416 219.026 167.99 220.605 160.863 219.114L119.036 210.364Z" stroke="#004ECC" stroke-width="2"/>
<path opacity="0.37931" d="M117.343 214.931C95.7767 211.586 81.38 236.522 95.06 253.527L120.823 285.551C125.387 291.225 127.352 298.558 126.236 305.754L119.937 346.369C116.592 367.936 141.528 382.332 158.533 368.652L190.557 342.89C196.231 338.325 203.564 336.36 210.76 337.476L251.375 343.775C272.942 347.12 287.338 322.184 273.658 305.18L247.895 273.155C243.331 267.482 241.366 260.148 242.482 252.953L248.781 212.337C252.126 190.771 227.19 176.374 210.186 190.054L178.161 215.817C172.488 220.381 165.154 222.346 157.959 221.23L117.343 214.931Z" stroke="#004ECC" stroke-width="2"/>
<path opacity="0.413793" d="M115.943 219.485C94.2307 217.273 81.1588 242.929 95.71 259.194L122.026 288.611C126.881 294.038 129.227 301.258 128.489 308.502L124.49 347.769C122.278 369.481 147.933 382.553 164.199 368.002L193.615 341.686C199.043 336.831 206.263 334.485 213.507 335.223L252.774 339.222C274.486 341.434 287.558 315.779 273.007 299.513L246.691 270.097C241.836 264.67 239.489 257.449 240.227 250.205L244.227 210.938C246.439 189.226 220.784 176.154 204.518 190.705L175.101 217.021C169.674 221.877 162.454 224.223 155.21 223.485L115.943 219.485Z" stroke="#004ECC" stroke-width="2"/>
<path opacity="0.448276" d="M114.831 224.006C93.0328 222.934 81.3215 249.238 96.704 264.72L123.374 291.562C128.507 296.728 131.227 303.815 130.87 311.088L129.011 348.882C127.938 370.68 154.243 382.391 169.724 367.009L196.566 340.338C201.732 335.206 208.82 332.485 216.093 332.843L253.886 334.702C275.684 335.774 287.395 309.47 272.013 293.988L245.343 267.146C240.21 261.981 237.489 254.893 237.847 247.62L239.706 209.827C240.778 188.029 214.474 176.317 198.993 191.7L172.151 218.37C166.985 223.502 159.897 226.223 152.624 225.865L114.831 224.006Z" stroke="#004ECC" stroke-width="2"/>
<path opacity="0.482759" d="M113.999 228.477C92.1748 228.547 81.8562 255.428 98.0279 270.084L124.858 294.398C130.254 299.288 133.342 306.224 133.365 313.505L133.481 349.713C133.551 371.538 160.432 381.856 175.088 365.685L199.402 338.855C204.292 333.459 211.228 330.371 218.509 330.348L254.717 330.231C276.542 330.161 286.86 303.28 270.689 288.625L243.859 264.31C238.463 259.421 235.375 252.485 235.352 245.203L235.235 208.995C235.165 187.171 208.284 176.852 193.629 193.024L169.314 219.854C164.425 225.25 157.489 228.338 150.207 228.361L113.999 228.477Z" stroke="#004ECC" stroke-width="2"/>
<path opacity="0.517241" d="M113.439 232.881C91.6487 234.093 82.7511 261.478 99.6677 275.267L126.469 297.113C132.114 301.714 135.56 308.478 135.965 315.749L137.885 350.273C139.097 372.064 166.482 380.961 180.271 364.045L202.117 337.243C206.718 331.599 213.482 328.152 220.753 327.748L255.277 325.827C277.068 324.615 285.965 297.231 269.049 283.442L242.247 261.595C236.603 256.994 233.156 250.23 232.752 242.959L230.831 208.435C229.619 186.645 202.235 177.747 188.446 194.664L166.599 221.465C161.998 227.11 155.234 230.556 147.964 230.961L113.439 232.881Z" stroke="#004ECC" stroke-width="2"/>
<path opacity="0.551724" d="M113.142 237.203C91.445 239.554 83.9927 267.366 101.608 280.251L128.2 299.702C134.077 304.001 137.873 310.575 138.657 317.815L142.207 350.57C144.557 372.267 172.37 379.719 185.255 362.104L204.705 335.512C209.005 329.635 215.579 325.839 222.819 325.055L255.574 321.506C277.271 319.155 284.723 291.342 267.108 278.458L240.516 259.007C234.639 254.708 230.843 248.133 230.059 240.893L226.509 208.139C224.159 186.441 196.346 178.989 183.461 196.604L164.011 223.196C159.711 229.073 153.137 232.869 145.897 233.654L113.142 237.203Z" stroke="#004ECC" stroke-width="2"/>
<path opacity="0.586207" d="M113.098 241.426C91.5533 244.909 85.5669 273.074 103.832 285.019L130.041 302.159C136.135 306.144 140.27 312.511 141.432 319.7L146.43 350.614C149.914 372.159 178.078 378.145 190.023 359.88L207.163 333.671C211.148 327.577 217.515 323.442 224.704 322.28L255.618 317.282C277.163 313.799 283.149 285.634 264.884 273.689L238.675 256.549C232.581 252.564 228.446 246.197 227.284 239.008L222.286 208.094C218.803 186.549 190.639 180.563 178.693 198.828L161.553 225.037C157.568 231.131 151.201 235.266 144.012 236.428L113.098 241.426Z" stroke="#004ECC" stroke-width="2"/>
<path opacity="0.62069" d="M113.294 245.538C91.9612 250.144 87.4569 278.583 106.322 289.556L131.982 304.48C138.277 308.142 142.739 314.284 144.276 321.401L150.541 350.418C155.147 371.75 183.586 376.255 194.559 357.389L209.484 331.729C213.145 325.435 219.287 320.972 226.405 319.436L255.421 313.17C276.754 308.564 281.258 280.126 262.393 269.153L236.733 254.228C230.438 250.567 225.976 244.425 224.439 237.307L218.174 208.291C213.568 186.958 185.129 182.454 174.156 201.319L159.231 226.979C155.57 233.273 149.428 237.736 142.31 239.273L113.294 245.538Z" stroke="#004ECC" stroke-width="2"/>
<path opacity="0.655172" d="M113.721 249.524C92.6584 255.24 89.6487 283.876 109.062 293.846L134.018 306.662C140.495 309.989 145.273 315.889 147.18 322.917L154.528 349.991C160.244 371.054 188.88 374.064 198.85 354.65L211.667 329.695C214.994 323.217 220.894 318.439 227.921 316.532L254.996 309.184C276.058 303.468 279.068 274.832 259.654 264.862L234.699 252.045C228.222 248.719 223.444 242.819 221.537 235.791L214.189 208.716C208.472 187.654 179.837 184.644 169.866 204.058L157.05 229.013C153.723 235.491 147.823 240.268 140.796 242.176L113.721 249.524Z" stroke="#004ECC" stroke-width="2"/>
<path opacity="0.689655" d="M114.36 253.374C93.6252 260.184 92.1183 288.938 112.027 297.879L136.131 308.704C142.774 311.687 147.854 317.329 150.127 324.247L158.372 349.35C165.183 370.085 193.937 371.592 202.878 351.683L213.703 327.579C216.686 320.936 222.328 315.856 229.246 313.584L254.349 305.338C275.084 298.527 276.591 269.773 256.682 260.832L232.578 250.008C225.935 247.024 220.855 241.383 218.582 234.464L210.337 209.361C203.526 188.626 174.772 187.119 165.831 207.028L155.006 231.133C152.023 237.775 146.381 242.855 139.463 245.128L114.36 253.374Z" stroke="#004ECC" stroke-width="2"/>
<path opacity="0.724138" d="M115.206 257.072C94.8562 264.959 94.8563 293.752 115.206 301.639L138.323 310.598C145.113 313.229 150.481 318.597 153.112 325.387L162.071 348.504C169.958 368.854 198.751 368.854 206.638 348.504L215.597 325.387C218.228 318.597 223.596 313.229 230.386 310.598L253.503 301.639C273.853 293.752 273.853 264.959 253.503 257.072L230.386 248.113C223.596 245.482 218.228 240.114 215.597 233.324L206.638 210.207C198.751 189.857 169.958 189.857 162.071 210.207L153.112 233.324C150.481 240.114 145.113 245.482 138.323 248.113L115.206 257.072Z" stroke="#004ECC" stroke-width="2"/>
<path opacity="0.758621" d="M116.241 260.612C96.3317 269.552 97.8387 298.306 118.573 305.117L140.578 312.345C147.496 314.617 153.138 319.697 156.121 326.34L165.61 347.469C174.55 367.378 203.304 365.871 210.115 345.136L217.343 323.132C219.615 316.213 224.695 310.572 231.338 307.588L252.467 298.1C272.376 289.159 270.869 260.405 250.134 253.595L228.13 246.367C221.211 244.094 215.57 239.014 212.586 232.371L203.098 211.243C194.157 191.334 165.403 192.841 158.592 213.575L151.364 235.58C149.092 242.498 144.012 248.14 137.369 251.123L116.241 260.612Z" stroke="#004ECC" stroke-width="2"/>
<path opacity="0.793103" d="M117.453 263.981C98.0393 273.951 101.049 302.587 122.112 308.303L142.89 313.943C149.918 315.85 155.818 320.627 159.145 327.105L168.981 346.257C178.951 365.671 207.587 362.661 213.303 341.599L218.943 320.82C220.85 313.792 225.628 307.892 232.105 304.566L251.257 294.729C270.671 284.759 267.662 256.123 246.599 250.407L225.82 244.768C218.792 242.861 212.893 238.083 209.566 231.605L199.73 212.453C189.759 193.039 161.123 196.049 155.407 217.111L149.768 237.89C147.861 244.918 143.083 250.818 136.605 254.145L117.453 263.981Z" stroke="#004ECC" stroke-width="2"/>
<path opacity="0.827586" d="M118.824 267.173C99.9585 278.146 104.463 306.585 125.796 311.191L145.247 315.391C152.365 316.928 158.507 321.39 162.168 327.685L172.173 344.886C183.146 363.752 211.585 359.247 216.191 337.915L220.391 318.463C221.928 311.345 226.39 305.204 232.684 301.542L249.886 291.537C268.751 280.564 264.247 252.126 242.914 247.519L223.463 243.32C216.345 241.783 210.203 237.32 206.542 231.026L196.537 213.824C185.564 194.959 157.125 199.463 152.519 220.796L148.319 240.247C146.782 247.365 142.32 253.507 136.025 257.168L118.824 267.173Z" stroke="#004ECC" stroke-width="2"/>
<path opacity="0.862069" d="M120.339 270.182C102.074 282.127 108.061 310.291 129.605 313.774L147.64 316.69C154.828 317.852 161.195 321.987 165.181 328.082L175.18 343.371C187.125 361.636 215.289 355.65 218.773 334.105L221.689 316.071C222.851 308.882 226.986 302.515 233.08 298.529L248.369 288.53C266.635 276.585 260.648 248.421 239.103 244.938L221.069 242.022C213.88 240.86 207.513 236.725 203.528 230.631L193.529 215.341C181.584 197.076 153.419 203.062 149.936 224.607L147.02 242.642C145.858 249.83 141.723 256.197 135.629 260.183L120.339 270.182Z" stroke="#004ECC" stroke-width="2"/>
<path opacity="0.896552" d="M121.985 272.998C104.37 285.883 111.822 313.695 133.519 316.046L150.06 317.839C157.3 318.623 163.875 322.419 168.174 328.296L177.996 341.725C190.881 359.34 218.693 351.888 221.044 330.191L222.837 313.65C223.621 306.41 227.417 299.835 233.294 295.536L246.723 285.714C264.338 272.829 256.886 245.017 235.188 242.666L218.647 240.873C211.408 240.089 204.833 236.293 200.534 230.416L190.711 216.987C177.827 199.372 150.014 206.824 147.663 228.521L145.871 245.063C145.087 252.302 141.291 258.877 135.413 263.176L121.985 272.998Z" stroke="#004ECC" stroke-width="2"/>
<path opacity="0.931035" d="M123.746 275.618C106.829 289.407 115.727 316.792 137.518 318.004L152.502 318.837C159.772 319.242 166.537 322.688 171.137 328.333L180.619 339.965C194.408 356.881 221.792 347.984 223.004 326.193L223.838 311.209C224.242 303.939 227.689 297.174 233.333 292.573L244.966 283.092C261.882 269.303 252.985 241.919 231.194 240.707L216.21 239.873C208.939 239.469 202.175 236.022 197.574 230.378L188.093 218.745C174.304 201.829 146.919 210.726 145.707 232.517L144.874 247.501C144.469 254.772 141.023 261.536 135.378 266.137L123.746 275.618Z" stroke="#004ECC" stroke-width="2"/>
<path opacity="0.965517" d="M125.602 278.04C109.431 292.695 119.749 319.576 141.573 319.646L154.95 319.689C162.231 319.712 169.167 322.8 174.057 328.196L183.039 338.108C197.694 354.279 224.575 343.961 224.645 322.136L224.688 308.76C224.712 301.479 227.8 294.543 233.195 289.653L243.107 280.671C259.279 266.016 248.96 239.135 227.136 239.065L213.76 239.022C206.478 238.998 199.542 235.91 194.653 230.514L185.67 220.603C171.015 204.431 144.134 214.75 144.064 236.574L144.021 249.95C143.998 257.232 140.91 264.167 135.514 269.057L125.602 278.04Z" stroke="#004ECC" stroke-width="2"/>
<path d="M127.543 280.258C112.16 295.74 123.871 322.044 145.669 320.971L157.401 320.394C164.674 320.037 171.761 322.757 176.927 327.89L185.259 336.168C200.74 351.551 227.044 339.839 225.972 318.041L225.395 306.31C225.037 299.037 227.758 291.95 232.89 286.784L241.169 278.452C256.551 262.971 244.84 236.667 223.042 237.739L211.311 238.316C204.038 238.673 196.95 235.953 191.785 230.82L183.453 222.542C167.971 207.159 141.667 218.871 142.739 240.669L143.316 252.4C143.674 259.673 140.953 266.76 135.821 271.926L127.543 280.258Z" stroke="#004ECC" stroke-width="2"/>
</g>
</svg>
